<?xml version="1.0" encoding="UTF-8" standalone="no"?>
<svg
   xmlns:dc="http://purl.org/dc/elements/1.1/"
   xmlns:cc="http://creativecommons.org/ns#"
   xmlns:rdf="http://www.w3.org/1999/02/22-rdf-syntax-ns#"
   xmlns:svg="http://www.w3.org/2000/svg"
   xmlns="http://www.w3.org/2000/svg"
   xmlns:sodipodi="http://sodipodi.sourceforge.net/DTD/sodipodi-0.dtd"
   xmlns:inkscape="http://www.inkscape.org/namespaces/inkscape"
   width="408"
   height="408"
   viewBox="0 0 408 408"
   fill="none"
   version="1.1"
   id="svg4"
   sodipodi:docname="SafetagSymbolWhiteBETA.svg"
   inkscape:version="1.0.2-2 (e86c870879, 2021-01-15)">
  <metadata
     id="metadata10">
    <rdf:RDF>
      <cc:Work
         rdf:about="">
        <dc:format>image/svg+xml</dc:format>
        <dc:type
           rdf:resource="http://purl.org/dc/dcmitype/StillImage" />
      </cc:Work>
    </rdf:RDF>
  </metadata>
  <defs
     id="defs8" />
  <sodipodi:namedview
     pagecolor="#ffffff"
     bordercolor="#666666"
     borderopacity="1"
     objecttolerance="10"
     gridtolerance="10"
     guidetolerance="10"
     inkscape:pageopacity="0"
     inkscape:pageshadow="2"
     inkscape:window-width="1366"
     inkscape:window-height="713"
     id="namedview6"
     showgrid="false"
     inkscape:zoom="1.3382353"
     inkscape:cx="204"
     inkscape:cy="183.97543"
     inkscape:window-x="-8"
     inkscape:window-y="-8"
     inkscape:window-maximized="1"
     inkscape:current-layer="svg4" />
  <path
     fill-rule="evenodd"
     clip-rule="evenodd"
     d="M260 56C260 86.9279 234.928 112 204 112C173.072 112 148 86.9279 148 56C148 25.0721 173.072 0 204 0C234.928 0 260 25.0721 260 56ZM148 228C148 197.072 173.072 172 204 172C234.928 172 260 197.072 260 228H304C304 172.772 259.228 128 204 128C148.772 128 104 172.772 104 228V408H304V252H148V228Z"
     fill="#FFFFFF"
     id="path2" />
  <text
     xml:space="preserve"
     style="font-style:normal;font-weight:normal;font-size:133.333px;line-height:1.25;font-family:sans-serif;fill:#0721eb;fill-opacity:1;stroke:#ffffff;stroke-width:3.2;stroke-miterlimit:4;stroke-dasharray:none;stroke-opacity:1;"
     x="32.351646"
     y="226.41759"
     id="text837"><tspan
       sodipodi:role="line"
       id="tspan835"
       x="32.351646"
       y="226.41759"
       style="font-size:133.333px;fill:#0721eb;stroke:#ffffff;stroke-width:3.2;stroke-miterlimit:4;stroke-dasharray:none;stroke-opacity:1;fill-opacity:1;">BETA</tspan></text>
</svg>
