<?xml version="1.0" encoding="UTF-8" standalone="no"?>
<!-- Created with Inkscape (http://www.inkscape.org/) -->

<svg
   xmlns:dc="http://purl.org/dc/elements/1.1/"
   xmlns:cc="http://creativecommons.org/ns#"
   xmlns:rdf="http://www.w3.org/1999/02/22-rdf-syntax-ns#"
   xmlns:svg="http://www.w3.org/2000/svg"
   xmlns="http://www.w3.org/2000/svg"
   xmlns:sodipodi="http://sodipodi.sourceforge.net/DTD/sodipodi-0.dtd"
   xmlns:inkscape="http://www.inkscape.org/namespaces/inkscape"
   width="1052.3622"
   height="744.09448"
   id="svg24515"
   version="1.1"
   inkscape:version="0.48.4 r9939"
   sodipodi:docname="risk_vs_likelihood.svg">
  <defs
     id="defs24517">
    <clipPath
       id="clipPath20416"
       clipPathUnits="userSpaceOnUse">
      <path
         inkscape:connector-curvature="0"
         id="path20418"
         d="M 0,792 612,792 612,0 0,0 0,792 z" />
    </clipPath>
    <clipPath
       id="clipPath20506"
       clipPathUnits="userSpaceOnUse">
      <path
         inkscape:connector-curvature="0"
         id="path20508"
         d="m 54,296.64 436.738,0 0,374.025 -436.738,0 0,-374.025 z" />
    </clipPath>
    <clipPath
       id="clipPath20780"
       clipPathUnits="userSpaceOnUse">
      <path
         inkscape:connector-curvature="0"
         id="path20782"
         d="m 284.82,478.366 0,-12.719 c -3.73,-0.787 -6.535,-4.096 -6.535,-8.063 l 0,0 0,-25.29 c 0,-4.553 3.695,-8.24 8.246,-8.24 l 0,0 25.289,0 c 4.551,0 8.243,3.687 8.243,8.24 l 0,0 0,25.29 c 0,3.679 -2.406,6.795 -5.734,7.855 l 0,0 0,12.728 c 0,8.411 -6.367,14.941 -14.757,15.225 l 0,0 c -0.149,0.005 -0.297,0.007 -0.444,0.007 l 0,0 c -8.021,0 -14.308,-7.259 -14.308,-15.033 m 5.811,-2.305 c 0,1.969 -0.047,3.774 0.557,5.692 l 0,0 c 1.11,3.586 4.823,5.701 8.384,5.825 l 0,0 c 10.9,0.365 9.234,-13.955 8.974,-21.749 l 0,0 -17.915,0 0,10.232 z m 5.493,-30.842 c -1.353,0.959 -2.24,2.533 -2.24,4.315 l 0,0 c 0,2.92 2.37,5.29 5.29,5.29 l 0,0 c 2.924,0 5.291,-2.37 5.291,-5.29 l 0,0 c 0,-1.782 -0.883,-3.356 -2.233,-4.315 l 0,0 4.576,-10.162 -15.267,0 4.583,10.162 z" />
    </clipPath>
    <clipPath
       id="clipPath20948"
       clipPathUnits="userSpaceOnUse">
      <path
         inkscape:connector-curvature="0"
         id="path20950"
         d="m 54,296.64 436.738,0 0,374.025 -436.738,0 0,-374.025 z" />
    </clipPath>
    <clipPath
       id="clipPath20988"
       clipPathUnits="userSpaceOnUse">
      <path
         inkscape:connector-curvature="0"
         id="path20990"
         d="m 78.246,619.625 0,-25.457 3.907,0 0.017,11.565 c 0.005,5.617 4.559,10.167 10.175,10.167 l 0,0 0.016,0 204.064,-0.252 c 5.623,-0.006 10.179,-4.57 10.172,-10.193 l 0,0 -0.017,-11.287 18.801,0 0,25.457 -247.135,0 z" />
    </clipPath>
    <clipPath
       id="clipPath21000"
       clipPathUnits="userSpaceOnUse">
      <path
         inkscape:connector-curvature="0"
         id="path21002"
         d="m 78.246,594.522 0,-127.632 5.531,0 c -1.141,1.647 -1.809,3.647 -1.806,5.803 l 0,0 0.182,121.829 -3.907,0 z" />
    </clipPath>
    <clipPath
       id="clipPath21012"
       clipPathUnits="userSpaceOnUse">
      <path
         inkscape:connector-curvature="0"
         id="path21014"
         d="m 306.581,594.522 -0.071,-46.94 18.871,0 0,46.94 -18.8,0 z" />
    </clipPath>
    <clipPath
       id="clipPath21024"
       clipPathUnits="userSpaceOnUse">
      <path
         inkscape:connector-curvature="0"
         id="path21026"
         d="m 54,296.64 436.738,0 0,374.025 -436.738,0 0,-374.025 z" />
    </clipPath>
    <clipPath
       id="clipPath21044"
       clipPathUnits="userSpaceOnUse">
      <path
         inkscape:connector-curvature="0"
         id="path21046"
         d="m 243.835,411.206 0.863,0 0,18.662 -0.863,0 0,-18.662 z" />
    </clipPath>
    <clipPath
       id="clipPath21056"
       clipPathUnits="userSpaceOnUse">
      <path
         inkscape:connector-curvature="0"
         id="path21058"
         d="m 54,466.89 0,-55.684 76.343,0 0,18.662 -61.966,0 c -5.887,0 -10.652,4.772 -10.652,10.654 l 0,0 c 0,5.884 1.22,10.652 3.268,10.652 l 0,0 17.119,9.778 c 0,0 0.045,0.026 0.134,0.073 l 0,0 0,5.865 -24.246,0 z" />
    </clipPath>
    <clipPath
       id="clipPath21068"
       clipPathUnits="userSpaceOnUse">
      <path
         inkscape:connector-curvature="0"
         id="path21070"
         d="m 78.246,466.89 0,-5.865 c 0.728,0.374 4.377,2.092 10.305,2.13 l 0,0 c -1.946,0.737 -3.607,2.051 -4.774,3.735 l 0,0 -5.531,0 z" />
    </clipPath>
    <clipPath
       id="clipPath21080"
       clipPathUnits="userSpaceOnUse">
      <path
         inkscape:connector-curvature="0"
         id="path21082"
         d="m 83.777,466.89 c 1.167,-1.684 2.828,-2.998 4.774,-3.735 l 0,0 c 0.068,0.001 0.137,0.001 0.206,0.001 l 0,0 41.586,0 0,3.606 113.492,0 0,-3.606 0.863,0 0,3.734 -160.921,0 z" />
    </clipPath>
    <clipPath
       id="clipPath21092"
       clipPathUnits="userSpaceOnUse">
      <path
         inkscape:connector-curvature="0"
         id="path21094"
         d="m 54,296.64 436.738,0 0,374.025 -436.738,0 0,-374.025 z" />
    </clipPath>
    <clipPath
       id="clipPath21124"
       clipPathUnits="userSpaceOnUse">
      <path
         inkscape:connector-curvature="0"
         id="path21126"
         d="m 326.866,665.279 0,-25.456 2.285,0 0.018,14.767 c 0.004,4.754 3.858,8.601 8.609,8.601 l 0,0 0.012,0 133.857,-0.166 c 4.754,-0.007 8.606,-3.866 8.598,-8.619 l 0,0 -0.018,-14.583 10.511,0 0,25.456 -163.872,0 z" />
    </clipPath>
    <clipPath
       id="clipPath21136"
       clipPathUnits="userSpaceOnUse">
      <path
         inkscape:connector-curvature="0"
         id="path21138"
         d="m 326.866,640.177 0,-92.595 2.169,0 0.116,92.595 -2.285,0 z" />
    </clipPath>
    <clipPath
       id="clipPath21148"
       clipPathUnits="userSpaceOnUse">
      <path
         inkscape:connector-curvature="0"
         id="path21150"
         d="M 480.227,640.177 480.03,481.83 c -0.003,-4.752 -3.859,-8.599 -8.602,-8.599 l 0,0 -0.013,0 -4.188,0.005 0,-10.543 23.511,0 0,177.484 -10.511,0 z" />
    </clipPath>
    <clipPath
       id="clipPath21160"
       clipPathUnits="userSpaceOnUse">
      <path
         inkscape:connector-curvature="0"
         id="path21162"
         d="m 362.201,463.17 85.325,0 0,-0.477 20.055,0 0,10.542 -95.197,0.118 -10.183,-10.183 z" />
    </clipPath>
    <clipPath
       id="clipPath21172"
       clipPathUnits="userSpaceOnUse">
      <path
         inkscape:connector-curvature="0"
         id="path21174"
         d="m 354.123,463.17 8.078,0 10.183,10.183 -18.261,0.023 0,-10.206 z" />
    </clipPath>
    <clipPath
       id="clipPath21184"
       clipPathUnits="userSpaceOnUse">
      <path
         inkscape:connector-curvature="0"
         id="path21186"
         d="m 54,296.64 436.738,0 0,374.025 -436.738,0 0,-374.025 z" />
    </clipPath>
    <clipPath
       id="clipPath21212"
       clipPathUnits="userSpaceOnUse">
      <path
         inkscape:connector-curvature="0"
         id="path21214"
         d="m 361.723,462.693 -7.6,-7.601 0,-91.534 -0.819,0 0,-66.558 94.222,0 0,165.693 -85.803,0 z m -6.331,-145.725 0,134.746 c 0,5.175 4.19,9.368 9.369,9.368 l 0,0 62.835,0 c 5.176,0 9.376,-4.193 9.376,-9.368 l 0,0 0,-134.746 c 0,-5.176 -4.2,-9.371 -9.376,-9.371 l 0,0 -62.835,0 c -5.179,0 -9.369,4.195 -9.369,9.371" />
    </clipPath>
    <clipPath
       id="clipPath21224"
       clipPathUnits="userSpaceOnUse">
      <path
         inkscape:connector-curvature="0"
         id="path21226"
         d="m 364.761,461.082 c -5.179,0 -9.369,-4.193 -9.369,-9.368 l 0,0 0,-134.746 c 0,-5.176 4.19,-9.371 9.369,-9.371 l 0,0 62.835,0 c 5.176,0 9.376,4.195 9.376,9.371 l 0,0 0,134.746 c 0,5.175 -4.2,9.368 -9.376,9.368 l 0,0 -62.835,0 z m 23.009,-7.181 16.821,0 c 3.614,0 3.614,-5.605 0,-5.605 l 0,0 -16.821,0 c -3.618,0 -3.618,5.605 0,5.605 m -24.395,-12.084 65.607,0 0,-107.103 -65.607,0 0,107.103 z M 389.448,322.41 c 0,3.715 3.017,6.728 6.732,6.728 l 0,0 c 3.712,0 6.723,-3.013 6.723,-6.728 l 0,0 c 0,-3.719 -3.011,-6.73 -6.723,-6.73 l 0,0 c -3.715,0 -6.732,3.011 -6.732,6.73" />
    </clipPath>
    <clipPath
       id="clipPath21236"
       clipPathUnits="userSpaceOnUse">
      <path
         inkscape:connector-curvature="0"
         id="path21238"
         d="m 363.375,334.715 65.607,0 0,107.103 -65.607,0 0,-107.103 z m 11.412,27.282 0,23.373 c 0,3.667 2.591,6.724 6.037,7.452 l 0,0 0,11.756 c 0,7.183 5.811,13.891 13.223,13.891 l 0,0 c 0.137,0 0.275,-0.002 0.411,-0.006 l 0,0 c 7.755,-0.262 13.64,-6.298 13.64,-14.071 l 0,0 0,-11.763 c 3.074,-0.979 5.298,-3.859 5.298,-7.259 l 0,0 0,-23.373 c 0,-4.207 -3.414,-7.615 -7.618,-7.615 l 0,0 -23.373,0 c -4.204,0 -7.618,3.408 -7.618,7.615 m 19.671,51.092 c -3.291,-0.114 -6.723,-2.068 -7.749,-5.382 l 0,0 c -0.557,-1.774 -0.515,-3.441 -0.515,-5.26 l 0,0 0,-9.457 16.558,0 c 0.237,7.112 1.743,20.106 -7.921,20.106 l 0,0 c -0.123,0 -0.247,-0.002 -0.373,-0.007" />
    </clipPath>
    <clipPath
       id="clipPath21248"
       clipPathUnits="userSpaceOnUse">
      <path
         inkscape:connector-curvature="0"
         id="path21250"
         d="m 389.448,322.41 c 0,-3.719 3.017,-6.73 6.732,-6.73 l 0,0 c 3.712,0 6.723,3.011 6.723,6.73 l 0,0 c 0,3.715 -3.011,6.728 -6.723,6.728 l 0,0 c -3.715,0 -6.732,-3.013 -6.732,-6.728" />
    </clipPath>
    <clipPath
       id="clipPath21260"
       clipPathUnits="userSpaceOnUse">
      <path
         inkscape:connector-curvature="0"
         id="path21262"
         d="m 387.77,453.901 c -3.618,0 -3.618,-5.605 0,-5.605 l 0,0 16.821,0 c 3.614,0 3.614,5.605 0,5.605 l 0,0 -16.821,0 z" />
    </clipPath>
    <clipPath
       id="clipPath21272"
       clipPathUnits="userSpaceOnUse">
      <path
         inkscape:connector-curvature="0"
         id="path21274"
         d="m 380.824,404.578 0,-11.756 c -3.446,-0.728 -6.037,-3.785 -6.037,-7.452 l 0,0 0,-23.373 c 0,-4.207 3.414,-7.615 7.618,-7.615 l 0,0 23.373,0 c 4.204,0 7.618,3.408 7.618,7.615 l 0,0 0,23.373 c 0,3.4 -2.224,6.28 -5.298,7.259 l 0,0 0,11.763 c 0,7.773 -5.885,13.809 -13.64,14.071 l 0,0 c -0.136,0.004 -0.274,0.006 -0.411,0.006 l 0,0 c -7.412,0 -13.223,-6.708 -13.223,-13.891 m 5.37,-2.131 c 0,1.819 -0.042,3.486 0.515,5.26 l 0,0 c 1.026,3.314 4.458,5.268 7.749,5.382 l 0,0 c 0.126,0.005 0.25,0.007 0.373,0.007 l 0,0 c 9.664,0 8.158,-12.994 7.921,-20.106 l 0,0 -16.558,0 0,9.457 z m 5.078,-28.503 c -1.25,0.885 -2.071,2.339 -2.071,3.986 l 0,0 c 0,2.699 2.192,4.89 4.89,4.89 l 0,0 c 2.702,0 4.891,-2.191 4.891,-4.89 l 0,0 c 0,-1.647 -0.818,-3.101 -2.065,-3.986 l 0,0 4.229,-9.392 -14.109,0 4.235,9.392 z" />
    </clipPath>
    <clipPath
       id="clipPath21284"
       clipPathUnits="userSpaceOnUse">
      <path
         inkscape:connector-curvature="0"
         id="path21286"
         d="m 389.201,377.93 c 0,-1.647 0.821,-3.101 2.071,-3.986 l 0,0 -4.235,-9.392 14.109,0 -4.229,9.392 c 1.247,0.885 2.065,2.339 2.065,3.986 l 0,0 c 0,2.699 -2.189,4.89 -4.891,4.89 l 0,0 c -2.698,0 -4.89,-2.191 -4.89,-4.89" />
    </clipPath>
    <clipPath
       id="clipPath21296"
       clipPathUnits="userSpaceOnUse">
      <path
         inkscape:connector-curvature="0"
         id="path21298"
         d="m 354.123,462.693 0,-7.601 7.6,7.601 -7.6,0 z" />
    </clipPath>
    <clipPath
       id="clipPath21308"
       clipPathUnits="userSpaceOnUse">
      <path
         inkscape:connector-curvature="0"
         id="path21310"
         d="m 362.201,463.17 -0.478,-0.477 85.803,0 0,0.477 -85.325,0 z" />
    </clipPath>
    <clipPath
       id="clipPath21320"
       clipPathUnits="userSpaceOnUse">
      <path
         inkscape:connector-curvature="0"
         id="path21322"
         d="m 354.123,463.17 0,-0.477 7.6,0 0.478,0.477 -8.078,0 z" />
    </clipPath>
    <clipPath
       id="clipPath21332"
       clipPathUnits="userSpaceOnUse">
      <path
         inkscape:connector-curvature="0"
         id="path21334"
         d="m 54,296.64 436.738,0 0,374.025 -436.738,0 0,-374.025 z" />
    </clipPath>
    <clipPath
       id="clipPath21366"
       clipPathUnits="userSpaceOnUse">
      <path
         inkscape:connector-curvature="0"
         id="path21368"
         d="m 350.632,451.601 0,-40.395 -6.967,0 0,-7.35 0,-0.573 0,-8.263 0,-0.574 0,-8.263 0,-0.574 0,-4.109 -4.019,0 0,-4.594 -1.722,0 0,-2.779 -91.138,0 0,37.079 -2.088,0 0,-47.648 108.606,0 0,90.715 -2.672,-2.672 z" />
    </clipPath>
    <clipPath
       id="clipPath21378"
       clipPathUnits="userSpaceOnUse">
      <path
         inkscape:connector-curvature="0"
         id="path21380"
         d="m 246.786,411.206 0,-37.079 91.138,0 0,2.779 -10.904,0 -77.364,0 0,34.3 -2.87,0 z" />
    </clipPath>
    <clipPath
       id="clipPath21390"
       clipPathUnits="userSpaceOnUse">
      <path
         inkscape:connector-curvature="0"
         id="path21392"
         d="m 249.656,411.206 0,-34.3 77.364,0 0,4.594 4.019,0 -4.019,-4.594 10.904,0 1.722,0 0,4.594 -85.971,0 0,29.706 -4.019,0 z" />
    </clipPath>
    <clipPath
       id="clipPath21402"
       clipPathUnits="userSpaceOnUse">
      <path
         inkscape:connector-curvature="0"
         id="path21404"
         d="m 253.675,411.206 0,-29.706 85.971,0 4.019,0 0,4.109 -89.99,0 0,0.574 89.99,0 0,8.263 -89.99,0 0,0.574 89.99,0 0,8.263 -89.99,0 0,0.573 89.99,0 0,7.35 -89.99,0 z" />
    </clipPath>
    <clipPath
       id="clipPath21414"
       clipPathUnits="userSpaceOnUse">
      <path
         inkscape:connector-curvature="0"
         id="path21416"
         d="m 253.675,403.283 89.99,0 0,0.573 -89.99,0 0,-0.573 z" />
    </clipPath>
    <clipPath
       id="clipPath21426"
       clipPathUnits="userSpaceOnUse">
      <path
         inkscape:connector-curvature="0"
         id="path21428"
         d="m 253.675,394.446 89.99,0 0,0.574 -89.99,0 0,-0.574 z" />
    </clipPath>
    <clipPath
       id="clipPath21438"
       clipPathUnits="userSpaceOnUse">
      <path
         inkscape:connector-curvature="0"
         id="path21440"
         d="m 253.675,385.609 89.99,0 0,0.574 -89.99,0 0,-0.574 z" />
    </clipPath>
    <clipPath
       id="clipPath21450"
       clipPathUnits="userSpaceOnUse">
      <path
         inkscape:connector-curvature="0"
         id="path21452"
         d="m 350.632,462.693 0,-11.092 2.672,2.672 0,8.42 -2.672,0 z" />
    </clipPath>
    <clipPath
       id="clipPath21462"
       clipPathUnits="userSpaceOnUse">
      <path
         inkscape:connector-curvature="0"
         id="path21464"
         d="m 325.381,547.582 0,-3.233 c 0.14,-0.109 0.277,-0.226 0.407,-0.349 l 0,0 c 0.332,0.308 0.692,0.578 1.078,0.8 l 0,0 0,2.782 -1.485,0 z m 0,-7.587 0,-1.503 1.056,0 c -0.053,0.96 -0.286,1.849 -0.649,2.611 l 0,0 c -0.164,-0.344 -0.301,-0.716 -0.407,-1.108" />
    </clipPath>
    <clipPath
       id="clipPath21474"
       clipPathUnits="userSpaceOnUse">
      <path
         inkscape:connector-curvature="0"
         id="path21476"
         d="m 325.381,538.492 0,-3.876 c 0.048,-0.018 0.096,-0.037 0.144,-0.056 l 0,0 c 0.57,0.958 0.924,2.181 0.923,3.519 l 0,0 c 0,0.139 -0.004,0.277 -0.011,0.413 l 0,0 -1.056,0 z m 1.435,-5.112 c 0.017,-0.031 0.034,-0.063 0.05,-0.096 l 0,0 0,0.173 c -0.017,-0.026 -0.033,-0.051 -0.05,-0.077 m -0.058,-2.664 c -0.114,-0.189 -0.251,-0.365 -0.412,-0.523 l 0,0 c -0.271,-0.268 -0.6,-0.479 -0.965,-0.612 l 0,0 0,-19.106 1.485,0 0,20.438 c -0.034,-0.068 -0.07,-0.134 -0.108,-0.197 m -1.377,-29.652 1.486,0 0,7.688 -1.486,0 0,-7.688 z m 0,-8.838 1.486,0 0,8.263 -1.486,0 0,-8.263 z m 0,-8.836 1.486,0 0,8.263 -1.486,0 0,-8.263 z m 0,-8.837 1.486,0 0,8.263 -1.486,0 0,-8.263 z m 0,-7.663 1.486,0 0,7.088 -1.486,0 0,-7.088 z" />
    </clipPath>
    <clipPath
       id="clipPath21486"
       clipPathUnits="userSpaceOnUse">
      <path
         inkscape:connector-curvature="0"
         id="path21488"
         d="m 325.525,534.56 c -0.048,0.019 -0.096,0.038 -0.144,0.056 l 0,0 c 0.048,-0.018 0.095,-0.037 0.144,-0.056 m 1.341,-1.277 0,10e-4 c -0.016,0.033 -0.033,0.065 -0.05,0.096 l 0,0 c 0.017,-0.032 0.034,-0.064 0.05,-0.097 m -1.485,-1.474 0,-2.228 c 0.365,0.133 0.694,0.344 0.965,0.612 l 0,0 c -0.092,-0.09 -0.191,-0.175 -0.299,-0.254 l 0,0 -0.012,0.02 c 0.629,0.803 0.773,1.9 0.35,2.836 l 0,0 c -0.301,-0.368 -0.638,-0.7 -1.004,-0.986 m 1.463,-0.94 c 0.007,0.014 0.015,0.028 0.022,0.044 l 0,0 0,10e-4 c -0.007,-0.016 -0.015,-0.031 -0.022,-0.045 m -0.086,-0.153 c 0.03,0.05 0.059,0.1 0.086,0.153 l 0,0 c -0.028,-0.053 -0.057,-0.104 -0.086,-0.153" />
    </clipPath>
    <clipPath
       id="clipPath21498"
       clipPathUnits="userSpaceOnUse">
      <path
         inkscape:connector-curvature="0"
         id="path21500"
         d="m 325.381,534.331 c 0.049,0.075 0.097,0.15 0.144,0.229 l 0,0 c -0.049,0.019 -0.096,0.038 -0.144,0.056 l 0,0 0,-0.285 z m 1.098,-1.419 c -0.03,-0.038 -0.062,-0.079 -0.094,-0.117 l 0,0 c 0.423,-0.936 0.279,-2.033 -0.35,-2.836 l 0,0 0.012,-0.02 c 0.108,0.079 0.207,0.164 0.299,0.254 l 0,0 c 0.161,0.158 0.298,0.334 0.412,0.523 l 0,0 c 0.039,0.064 0.075,0.13 0.108,0.198 l 0,0 0,2.369 c -0.016,0.033 -0.033,0.065 -0.05,0.097 l 0,0 c -0.107,-0.161 -0.22,-0.317 -0.337,-0.468" />
    </clipPath>
    <clipPath
       id="clipPath21510"
       clipPathUnits="userSpaceOnUse">
      <path
         inkscape:connector-curvature="0"
         id="path21512"
         d="m 325.381,543.584 c 0.13,0.145 0.266,0.284 0.407,0.416 l 0,0 c -0.13,0.123 -0.267,0.24 -0.407,0.349 l 0,0 0,-0.765 z m 1.072,-1.402 c -0.252,-0.319 -0.475,-0.682 -0.665,-1.079 l 0,0 c 0.363,-0.762 0.596,-1.651 0.649,-2.611 l 0,0 c 0.007,-0.136 0.011,-0.274 0.011,-0.413 l 0,0 c 0.001,-1.338 -0.353,-2.561 -0.923,-3.519 l 0,0 c -0.047,-0.079 -0.095,-0.154 -0.144,-0.229 l 0,0 0,-2.522 c 0.366,0.286 0.703,0.618 1.004,0.986 l 0,0 c 0.032,0.038 0.064,0.079 0.094,0.117 l 0,0 c 0.117,0.151 0.23,0.307 0.337,0.468 l 0,0 c 0.017,0.026 0.033,0.051 0.05,0.077 l 0,0 0,9.189 c -0.143,-0.142 -0.281,-0.297 -0.413,-0.464" />
    </clipPath>
    <clipPath
       id="clipPath21522"
       clipPathUnits="userSpaceOnUse">
      <path
         inkscape:connector-curvature="0"
         id="path21524"
         d="m 325.788,544 c -0.141,-0.132 -0.277,-0.271 -0.407,-0.416 l 0,0 0,-3.589 c 0.106,0.392 0.243,0.764 0.407,1.108 l 0,0 c 0.19,0.397 0.413,0.76 0.665,1.079 l 0,0 c 0.132,0.167 0.27,0.322 0.413,0.464 l 0,0 0,2.154 c -0.386,-0.222 -0.746,-0.492 -1.078,-0.8" />
    </clipPath>
    <clipPath
       id="clipPath21534"
       clipPathUnits="userSpaceOnUse">
      <path
         inkscape:connector-curvature="0"
         id="path21536"
         d="m 325.381,508.752 1.486,0 0,1.724 -1.486,0 0,-1.724 z" />
    </clipPath>
    <clipPath
       id="clipPath21546"
       clipPathUnits="userSpaceOnUse">
      <path
         inkscape:connector-curvature="0"
         id="path21548"
         d="m 325.381,500.489 1.486,0 0,0.575 -1.486,0 0,-0.575 z" />
    </clipPath>
    <clipPath
       id="clipPath21558"
       clipPathUnits="userSpaceOnUse">
      <path
         inkscape:connector-curvature="0"
         id="path21560"
         d="m 325.381,491.653 1.486,0 0,0.573 -1.486,0 0,-0.573 z" />
    </clipPath>
    <clipPath
       id="clipPath21570"
       clipPathUnits="userSpaceOnUse">
      <path
         inkscape:connector-curvature="0"
         id="path21572"
         d="m 325.381,482.816 1.486,0 0,0.574 -1.486,0 0,-0.574 z" />
    </clipPath>
    <clipPath
       id="clipPath21582"
       clipPathUnits="userSpaceOnUse">
      <path
         inkscape:connector-curvature="0"
         id="path21584"
         d="m 325.381,473.979 1.486,0 0,0.574 -1.486,0 0,-0.574 z" />
    </clipPath>
    <clipPath
       id="clipPath21594"
       clipPathUnits="userSpaceOnUse">
      <path
         inkscape:connector-curvature="0"
         id="path21596"
         d="m 306.51,547.582 -0.002,-2.188 c 0.321,0.066 0.654,0.101 0.993,0.101 l 0,0 0.001,0 0.003,0 c 1.473,0 2.804,-0.655 3.818,-1.684 l 0,0 c 1.015,1.03 2.345,1.684 3.818,1.684 l 0,0 0.003,0 c 1.327,0 2.54,-0.531 3.509,-1.389 l 0,0 c 0.969,0.858 2.182,1.389 3.508,1.389 l 0,0 0.003,0 c 1.197,0 2.3,-0.432 3.217,-1.146 l 0,0 0,3.233 -18.871,0 z m 13.271,-4.781 c 0.797,-1.194 1.287,-2.687 1.359,-4.309 l 0,0 2.277,0 c 0.069,1.563 0.525,3.004 1.272,4.176 l 0,0 c -0.73,0.714 -1.603,1.104 -2.525,1.105 l 0,0 c -0.864,-10e-4 -1.683,-0.342 -2.383,-0.972 m -7.401,-0.383 c 0.656,-1.124 1.056,-2.472 1.121,-3.926 l 0,0 2.665,0 c 0.072,1.622 0.562,3.115 1.359,4.309 l 0,0 c -0.7,0.63 -1.518,0.971 -2.381,0.972 l 0,0 c -1.026,-10e-4 -1.988,-0.482 -2.764,-1.355 m -5.876,1.197 -0.007,-5.123 2.648,0 c 0.065,1.454 0.465,2.802 1.121,3.926 l 0,0 c -0.776,0.873 -1.737,1.354 -2.764,1.355 l 0,0 c -0.34,0 -0.675,-0.054 -0.998,-0.158 m 11.386,-5.123 1.526,0 c -0.057,1.058 -0.335,2.031 -0.763,2.841 l 0,0 c -0.427,-0.81 -0.706,-1.783 -0.763,-2.841 m -7.021,0 0.908,0 c -0.042,0.774 -0.202,1.504 -0.454,2.158 l 0,0 c -0.251,-0.654 -0.412,-1.384 -0.454,-2.158 m 14.271,0 0.241,0 0,1.503 c -0.129,-0.473 -0.212,-0.978 -0.241,-1.503" />
    </clipPath>
    <clipPath
       id="clipPath21606"
       clipPathUnits="userSpaceOnUse">
      <path
         inkscape:connector-curvature="0"
         id="path21608"
         d="m 325.14,538.492 c -0.007,-0.136 -0.011,-0.274 -0.011,-0.413 l 0,0 -1.722,0 c 0,0.139 0.003,0.277 0.01,0.413 l 0,0 -2.277,0 c 0.007,-0.136 0.01,-0.274 0.01,-0.413 l 0,0 c -0.002,-1.855 -0.546,-3.559 -1.477,-4.878 l 0,0 c 0.152,-0.336 0.236,-0.71 0.236,-1.102 l 0,0 c 0,-0.491 -0.131,-0.95 -0.36,-1.345 l 0,0 c -0.002,-10e-4 -0.004,-0.004 -0.004,-0.006 l 0,0 c -0.14,-0.239 -0.318,-0.458 -0.533,-0.65 l 0,0 c -0.473,-0.422 -1.098,-0.678 -1.782,-0.678 l 0,0 c -1.479,0 -2.679,1.198 -2.679,2.679 l 0,0 c 0,0.885 0.43,1.671 1.093,2.159 l 0,0 0,10e-4 c 0.477,0.35 1.034,0.519 1.583,0.519 l 0,0 c 0.081,0 0.161,-0.003 0.242,-0.011 l 0,0 c 0.34,-0.03 0.661,-0.123 0.953,-0.268 l 0,0 c 0.012,-0.006 0.022,-0.012 0.034,-0.018 l 0,0 c 0.599,0.97 0.972,2.224 0.972,3.598 l 0,0 c 0,0.139 -0.005,0.277 -0.012,0.413 l 0,0 -1.526,0 c -0.007,-0.136 -0.012,-0.274 -0.011,-0.413 l 0,0 -1.723,0 c 0,0.139 0.004,0.277 0.01,0.413 l 0,0 -2.665,0 c 0.006,-0.136 0.009,-0.274 0.009,-0.413 l 0,0 c -10e-4,-1.701 -0.459,-3.275 -1.253,-4.541 l 0,0 c 0.353,-0.551 0.478,-1.189 0.396,-1.797 l 0,0 c -0.036,-0.264 -0.109,-0.516 -0.215,-0.749 l 0,0 c -0.182,-0.402 -0.466,-0.763 -0.844,-1.045 l 0,0 c -0.003,-0.002 -0.007,-0.004 -0.01,-0.007 l 0,0 c -10e-4,0 -10e-4,0 -10e-4,-0.001 l 0,0 c -0.444,-0.326 -0.993,-0.519 -1.586,-0.519 l 0,0 c -0.953,0 -1.79,0.498 -2.265,1.249 l 0,0 c -0.076,-0.004 -0.151,-0.006 -0.227,-0.006 l 0,0 -0.003,0 0,0.458 c -0.118,0.302 -0.183,0.632 -0.183,0.978 l 0,0 c 0,0.885 0.431,1.671 1.093,2.159 l 0,0 0,10e-4 c 0.478,0.35 1.033,0.519 1.583,0.519 l 0,0 c 0.089,0 0.178,-0.004 0.267,-0.013 l 0,0 c 0.222,-0.022 0.436,-0.071 0.638,-0.143 l 0,0 c 0.55,0.949 0.889,2.148 0.888,3.457 l 0,0 c 0,0.139 -0.004,0.277 -0.011,0.413 l 0,0 -0.908,0 c -0.007,-0.136 -0.011,-0.274 -0.011,-0.413 l 0,0 -1.721,0 c 0,0.139 0.002,0.277 0.008,0.413 l 0,0 -2.648,0 -0.042,-28.017 18.926,0 0,19.106 c -0.287,-0.104 -0.595,-0.161 -0.918,-0.161 l 0,0 c -0.951,0 -1.787,0.496 -2.262,1.243 l 0,0 -0.035,0 -0.002,0 0,0.061 c -0.241,0.401 -0.38,0.872 -0.38,1.375 l 0,0 c 0,0.885 0.43,1.671 1.094,2.159 l 0,0 0,10e-4 c 0.477,0.35 1.032,0.519 1.583,0.519 l 0,0 c 0.089,0 0.177,-0.004 0.265,-0.013 l 0,0 c 0.228,-0.022 0.447,-0.073 0.655,-0.149 l 0,0 0,3.876 -0.241,0 z m -18.687,-29.74 -0.012,-7.688 18.94,0 0,7.688 -18.928,0 z m -0.013,-8.263 -0.012,-8.076 c 0.121,-0.061 0.243,-0.122 0.361,-0.187 l 0,0 18.592,0 0,8.263 -18.941,0 z m 1.336,-8.836 c 1.043,-0.66 1.998,-1.435 2.85,-2.313 l 0,0 c 1.613,-1.661 2.852,-3.684 3.606,-5.95 l 0,0 11.149,0 0,8.263 -17.605,0 z m 6.636,-8.837 c 0.428,-1.466 0.656,-3.026 0.655,-4.649 l 0,0 0,-3.614 10.314,0 0,8.263 -10.969,0 z m 0.655,-15.926 10.314,0 0,7.088 -10.314,0 0,-7.088 z" />
    </clipPath>
    <clipPath
       id="clipPath21618"
       clipPathUnits="userSpaceOnUse">
      <path
         inkscape:connector-curvature="0"
         id="path21620"
         d="m 310.9,534.622 c -0.202,0.072 -0.416,0.121 -0.638,0.143 l 0,0 c 0.217,-0.022 0.432,-0.07 0.638,-0.143 m -2.468,-0.392 -0.02,0.028 c -0.662,-0.488 -1.093,-1.274 -1.093,-2.159 l 0,0 c 0,-0.346 0.065,-0.676 0.183,-0.978 l 0,0 0,1.265 c 1.116,10e-4 2.155,0.569 2.962,1.59 l 0,0 c 0.044,0.055 0.086,0.112 0.129,0.17 l 0,0 c -0.369,0.173 -0.773,0.262 -1.179,0.262 l 0,0 c -0.331,0 -0.664,-0.058 -0.982,-0.178 m 3.387,-1.318 c -1.008,-1.29 -2.453,-2.169 -4.087,-2.243 l 0,0 c 0.475,-0.751 1.312,-1.249 2.265,-1.249 l 0,0 c 0.593,0 1.142,0.193 1.586,0.519 l 0,0 -0.015,0.02 c 0.664,0.847 0.79,2.019 0.277,2.988 l 0,0 c -0.009,-0.012 -0.018,-0.023 -0.026,-0.035 m 0.818,-1.269 c 0.007,0.033 0.011,0.065 0.016,0.098 l 0,0 c -0.005,-0.033 -0.009,-0.065 -0.016,-0.098 m -0.015,-0.083 c 0.005,0.027 0.011,0.055 0.015,0.083 l 0,0 c -0.004,-0.028 -0.01,-0.056 -0.015,-0.083 m -0.184,-0.568 c 0.081,0.179 0.143,0.369 0.184,0.568 l 0,0 c -0.041,-0.195 -0.102,-0.386 -0.184,-0.568 m -0.854,-1.052 c 0.003,0.003 0.007,0.005 0.01,0.007 l 0,0 c -0.003,-0.002 -0.007,-0.004 -0.01,-0.007" />
    </clipPath>
    <clipPath
       id="clipPath21630"
       clipPathUnits="userSpaceOnUse">
      <path
         inkscape:connector-curvature="0"
         id="path21632"
         d="m 318.422,534.499 c -0.292,0.145 -0.613,0.238 -0.953,0.268 l 0,0 c 0.329,-0.029 0.652,-0.12 0.953,-0.268 m -2.757,-0.269 -0.021,0.028 c -0.663,-0.488 -1.093,-1.274 -1.093,-2.159 l 0,0 c 0,-1.481 1.2,-2.679 2.679,-2.679 l 0,0 c 0.684,0 1.309,0.256 1.782,0.678 l 0,0 c -0.063,-0.056 -0.128,-0.108 -0.197,-0.159 l 0,0 -0.013,0.02 c 0.591,0.756 0.755,1.77 0.42,2.667 l 0,0 c -1.041,-1.189 -2.475,-1.963 -4.076,-1.963 l 0,0 -0.002,0 0,1.723 c 1.113,10e-4 2.153,0.569 2.96,1.59 l 0,0 c 0.003,0.005 0.006,0.008 0.009,0.013 l 0,0 c -0.442,0.276 -0.951,0.419 -1.466,0.419 l 0,0 c -0.33,0 -0.663,-0.058 -0.982,-0.178 m 3.884,-3.476 c 0.229,0.395 0.36,0.854 0.36,1.345 l 0,0 c 0,0.392 -0.084,0.766 -0.236,1.102 l 0,0 c 0.359,-0.795 0.302,-1.71 -0.124,-2.447 m -0.004,-0.006 c 0,0.002 0.002,0.005 0.004,0.006 l 0,0 c -0.002,-10e-4 -0.004,-0.004 -0.004,-0.006" />
    </clipPath>
    <clipPath
       id="clipPath21642"
       clipPathUnits="userSpaceOnUse">
      <path
         inkscape:connector-curvature="0"
         id="path21644"
         d="m 325.381,534.616 c -0.208,0.076 -0.427,0.127 -0.655,0.149 l 0,0 c 0.223,-0.022 0.443,-0.072 0.655,-0.149 m -2.483,-0.386 -0.02,0.028 c -0.664,-0.488 -1.094,-1.274 -1.094,-2.159 l 0,0 c 0,-0.503 0.139,-0.974 0.38,-1.375 l 0,0 0,1.662 c 1.113,10e-4 2.153,0.569 2.96,1.59 l 0,0 c 0.026,0.033 0.051,0.065 0.076,0.098 l 0,0 c -0.406,0.221 -0.862,0.334 -1.321,0.334 l 0,0 c -0.33,0 -0.663,-0.058 -0.981,-0.178 m -0.697,-3.567 c 0.475,-0.747 1.311,-1.243 2.262,-1.243 l 0,0 c 0.323,0 0.631,0.057 0.918,0.161 l 0,0 0,2.228 c -0.908,-0.707 -1.998,-1.137 -3.18,-1.146" />
    </clipPath>
    <clipPath
       id="clipPath21654"
       clipPathUnits="userSpaceOnUse">
      <path
         inkscape:connector-curvature="0"
         id="path21656"
         d="m 308.412,534.259 0,-10e-4 0.02,-0.028 c 0.318,0.12 0.651,0.178 0.982,0.178 l 0,0 c 0.406,0 0.81,-0.089 1.179,-0.262 l 0,0 c 0.109,0.151 0.211,0.309 0.307,0.476 l 0,0 c -0.206,0.073 -0.421,0.121 -0.638,0.143 l 0,0 c -0.089,0.009 -0.178,0.013 -0.267,0.013 l 0,0 c -0.55,0 -1.105,-0.169 -1.583,-0.519 m 3.433,-1.312 c 0.513,-0.969 0.387,-2.141 -0.277,-2.988 l 0,0 0.015,-0.02 c 0,0.001 0,0.001 10e-4,0.001 l 0,0 c 0.003,0.003 0.007,0.005 0.01,0.007 l 0,0 c 0.378,0.282 0.662,0.643 0.844,1.045 l 0,0 c 0.107,0.238 0.18,0.49 0.215,0.749 l 0,0 c 0.082,0.608 -0.043,1.246 -0.396,1.797 l 0,0 c -0.128,-0.206 -0.266,-0.403 -0.412,-0.591" />
    </clipPath>
    <clipPath
       id="clipPath21666"
       clipPathUnits="userSpaceOnUse">
      <path
         inkscape:connector-curvature="0"
         id="path21668"
         d="m 315.644,534.259 0,-10e-4 0.021,-0.028 c 0.319,0.12 0.652,0.178 0.982,0.178 l 0,0 c 0.515,0 1.024,-0.143 1.466,-0.419 l 0,0 c 0.122,0.155 0.236,0.318 0.343,0.492 l 0,0 c -0.012,0.006 -0.022,0.012 -0.034,0.018 l 0,0 c -0.301,0.148 -0.624,0.239 -0.953,0.268 l 0,0 c -0.081,0.008 -0.161,0.011 -0.242,0.011 l 0,0 c -0.549,0 -1.106,-0.169 -1.583,-0.519 m 3.815,-1.347 c -0.077,-0.098 -0.156,-0.192 -0.237,-0.286 l 0,0 c 0.335,-0.897 0.171,-1.911 -0.42,-2.667 l 0,0 0.013,-0.02 c 0.069,0.051 0.134,0.103 0.197,0.159 l 0,0 c 0.215,0.192 0.393,0.411 0.533,0.65 l 0,0 c 0,0.002 0.002,0.005 0.004,0.006 l 0,0 c 0.426,0.737 0.483,1.652 0.124,2.447 l 0,0 c -0.07,-0.099 -0.141,-0.194 -0.214,-0.289" />
    </clipPath>
    <clipPath
       id="clipPath21678"
       clipPathUnits="userSpaceOnUse">
      <path
         inkscape:connector-curvature="0"
         id="path21680"
         d="m 322.878,534.259 0,-10e-4 0.02,-0.028 c 0.318,0.12 0.651,0.178 0.981,0.178 l 0,0 c 0.459,0 0.915,-0.113 1.321,-0.334 l 0,0 c 0.062,0.083 0.122,0.169 0.181,0.257 l 0,0 0,0.285 c -0.212,0.077 -0.432,0.127 -0.655,0.149 l 0,0 c -0.088,0.009 -0.176,0.013 -0.265,0.013 l 0,0 c -0.551,0 -1.106,-0.169 -1.583,-0.519" />
    </clipPath>
    <clipPath
       id="clipPath21690"
       clipPathUnits="userSpaceOnUse">
      <path
         inkscape:connector-curvature="0"
         id="path21692"
         d="m 307.502,545.495 -0.001,0 c -0.339,0 -0.672,-0.035 -0.993,-0.101 l 0,0 -0.004,-1.779 c 0.323,0.104 0.658,0.158 0.998,0.158 l 0,0 c 1.027,-10e-4 1.988,-0.482 2.764,-1.355 l 0,0 c 0.17,0.292 0.358,0.568 0.562,0.827 l 0,0 c 0.154,0.199 0.32,0.388 0.495,0.566 l 0,0 c -1.014,1.029 -2.345,1.684 -3.818,1.684 l 0,0 -0.003,0 z m 4.68,-3.313 c -0.344,-0.437 -0.637,-0.955 -0.859,-1.532 l 0,0 c 0.252,-0.654 0.412,-1.384 0.454,-2.158 l 0,0 c 0.007,-0.136 0.011,-0.274 0.011,-0.413 l 0,0 c 10e-4,-1.309 -0.338,-2.508 -0.888,-3.457 l 0,0 c -0.096,-0.167 -0.198,-0.325 -0.307,-0.476 l 0,0 c -0.043,-0.058 -0.085,-0.115 -0.129,-0.17 l 0,0 c -0.807,-1.021 -1.846,-1.589 -2.962,-1.59 l 0,0 0,-1.265 0,-0.458 0.003,0 c 0.076,0 0.151,0.002 0.227,0.006 l 0,0 c 1.634,0.074 3.079,0.953 4.087,2.243 l 0,0 c 0.008,0.012 0.017,0.023 0.026,0.035 l 0,0 c 0.146,0.188 0.284,0.385 0.412,0.591 l 0,0 c 0.794,1.266 1.252,2.84 1.253,4.541 l 0,0 c 0,0.139 -0.003,0.277 -0.009,0.413 l 0,0 c -0.065,1.454 -0.465,2.802 -1.121,3.926 l 0,0 c -0.067,-0.075 -0.134,-0.154 -0.198,-0.236" />
    </clipPath>
    <clipPath
       id="clipPath21702"
       clipPathUnits="userSpaceOnUse">
      <path
         inkscape:connector-curvature="0"
         id="path21704"
         d="m 315.144,545.495 -0.003,0 c -1.473,0 -2.803,-0.654 -3.818,-1.684 l 0,0 c -0.175,-0.178 -0.341,-0.367 -0.495,-0.566 l 0,0 c -0.204,-0.259 -0.392,-0.535 -0.562,-0.827 l 0,0 c -0.656,-1.124 -1.056,-2.472 -1.121,-3.926 l 0,0 c -0.006,-0.136 -0.008,-0.274 -0.008,-0.413 l 0,0 1.721,0 c 0,0.139 0.004,0.277 0.011,0.413 l 0,0 c 0.042,0.774 0.203,1.504 0.454,2.158 l 0,0 c 0.222,0.577 0.515,1.095 0.859,1.532 l 0,0 c 0.064,0.082 0.131,0.161 0.198,0.236 l 0,0 c 0.776,0.873 1.738,1.354 2.764,1.355 l 0,0 c 0.863,-10e-4 1.681,-0.342 2.381,-0.972 l 0,0 c 0.103,0.153 0.211,0.302 0.323,0.444 l 0,0 c 0.243,0.314 0.513,0.602 0.805,0.861 l 0,0 c -0.968,0.858 -2.181,1.389 -3.505,1.389 l 0,0 c -0.001,0 -0.003,0 -0.004,0 m 4.058,-3.313 c -0.202,-0.257 -0.387,-0.541 -0.549,-0.849 l 0,0 c 0.428,-0.81 0.706,-1.783 0.763,-2.841 l 0,0 c 0.007,-0.136 0.012,-0.274 0.012,-0.413 l 0,0 c 0,-1.374 -0.373,-2.628 -0.972,-3.598 l 0,0 c -0.107,-0.174 -0.221,-0.337 -0.343,-0.492 l 0,0 c -0.003,-0.005 -0.006,-0.008 -0.009,-0.013 l 0,0 c -0.807,-1.021 -1.847,-1.589 -2.96,-1.59 l 0,0 0,-1.723 0.002,0 c 1.601,0 3.035,0.774 4.076,1.963 l 0,0 c 0.081,0.094 0.16,0.188 0.237,0.286 l 0,0 c 0.073,0.095 0.144,0.19 0.214,0.289 l 0,0 c 0.931,1.319 1.475,3.023 1.477,4.878 l 0,0 c 0,0.139 -0.003,0.277 -0.01,0.413 l 0,0 c -0.072,1.622 -0.562,3.115 -1.359,4.309 l 0,0 c -0.204,-0.182 -0.398,-0.389 -0.579,-0.619" />
    </clipPath>
    <clipPath
       id="clipPath21714"
       clipPathUnits="userSpaceOnUse">
      <path
         inkscape:connector-curvature="0"
         id="path21716"
         d="m 322.164,545.495 -0.003,0 c -1.326,0 -2.539,-0.531 -3.508,-1.389 l 0,0 c -0.292,-0.259 -0.562,-0.547 -0.805,-0.861 l 0,0 c -0.112,-0.142 -0.22,-0.291 -0.323,-0.444 l 0,0 c -0.797,-1.194 -1.287,-2.687 -1.359,-4.309 l 0,0 c -0.006,-0.136 -0.01,-0.274 -0.01,-0.413 l 0,0 1.723,0 c -0.001,0.139 0.004,0.277 0.011,0.413 l 0,0 c 0.057,1.058 0.336,2.031 0.763,2.841 l 0,0 c 0.162,0.308 0.347,0.592 0.549,0.849 l 0,0 c 0.181,0.23 0.375,0.437 0.579,0.619 l 0,0 c 0.7,0.63 1.519,0.971 2.383,0.972 l 0,0 c 0.922,-10e-4 1.795,-0.391 2.525,-1.105 l 0,0 c 0.128,0.2 0.264,0.393 0.409,0.577 l 0,0 c 0.091,0.117 0.185,0.229 0.283,0.339 l 0,0 0,0.765 c -0.916,0.713 -2.017,1.146 -3.213,1.146 l 0,0 c -0.001,0 -0.003,0 -0.004,0 m 3.036,-11.421 c -0.025,-0.033 -0.05,-0.065 -0.076,-0.098 l 0,0 c -0.807,-1.021 -1.847,-1.589 -2.96,-1.59 l 0,0 0,-1.662 0,-0.061 0.002,0 0.035,0 c 1.182,0.009 2.272,0.439 3.18,1.146 l 0,0 0,2.522 c -0.059,-0.088 -0.119,-0.174 -0.181,-0.257" />
    </clipPath>
    <clipPath
       id="clipPath21726"
       clipPathUnits="userSpaceOnUse">
      <path
         inkscape:connector-curvature="0"
         id="path21728"
         d="m 325.098,543.245 c -0.145,-0.184 -0.281,-0.377 -0.409,-0.577 l 0,0 c -0.747,-1.172 -1.203,-2.613 -1.272,-4.176 l 0,0 c -0.007,-0.136 -0.01,-0.274 -0.01,-0.413 l 0,0 1.722,0 c 0,0.139 0.004,0.277 0.011,0.413 l 0,0 c 0.029,0.525 0.112,1.03 0.241,1.503 l 0,0 0,3.589 c -0.098,-0.11 -0.192,-0.222 -0.283,-0.339" />
    </clipPath>
    <clipPath
       id="clipPath21738"
       clipPathUnits="userSpaceOnUse">
      <path
         inkscape:connector-curvature="0"
         id="path21740"
         d="m 306.455,510.475 -0.002,-1.723 18.928,0 0,1.723 -18.926,0 z" />
    </clipPath>
    <clipPath
       id="clipPath21750"
       clipPathUnits="userSpaceOnUse">
      <path
         inkscape:connector-curvature="0"
         id="path21752"
         d="m 306.441,501.064 -10e-4,-0.575 18.941,0 0,0.575 -18.94,0 z" />
    </clipPath>
    <clipPath
       id="clipPath21762"
       clipPathUnits="userSpaceOnUse">
      <path
         inkscape:connector-curvature="0"
         id="path21764"
         d="m 306.789,492.226 c 0.337,-0.179 0.666,-0.371 0.987,-0.573 l 0,0 17.605,0 0,0.573 -18.592,0 z" />
    </clipPath>
    <clipPath
       id="clipPath21774"
       clipPathUnits="userSpaceOnUse">
      <path
         inkscape:connector-curvature="0"
         id="path21776"
         d="m 314.232,483.39 c 0.064,-0.19 0.124,-0.382 0.18,-0.574 l 0,0 10.969,0 0,0.574 -11.149,0 z" />
    </clipPath>
    <clipPath
       id="clipPath21786"
       clipPathUnits="userSpaceOnUse">
      <path
         inkscape:connector-curvature="0"
         id="path21788"
         d="m 315.067,473.979 10.314,0 0,0.574 -10.314,0 0,-0.574 z" />
    </clipPath>
    <clipPath
       id="clipPath21798"
       clipPathUnits="userSpaceOnUse">
      <path
         inkscape:connector-curvature="0"
         id="path21800"
         d="m 306.42,487.152 -0.002,-1.352 c 1.121,0.773 2.236,1.538 3.356,2.299 l 0,0 c -0.068,0.072 -0.136,0.144 -0.206,0.215 l 0,0 c -0.075,0.079 -0.153,0.156 -0.232,0.233 l 0,0 c -0.974,-0.473 -1.947,-0.937 -2.916,-1.395 m 2.627,-3.762 0.321,0 c 0.814,0.68 1.608,1.348 2.381,1.998 l 0,0 c -0.016,0.029 -0.032,0.058 -0.048,0.086 l 0,0 c -0.887,-0.691 -1.773,-1.388 -2.654,-2.084 m -0.149,1.647 c 0,0 -0.502,-0.37 -1.363,-1.007 l 0,0 c 0.053,-0.095 0.103,-0.19 0.153,-0.286 l 0,0 c 0.968,0.837 1.425,1.3 1.254,1.3 l 0,0 c -0.012,0 -0.027,-0.002 -0.044,-0.007 m -0.576,-2.221 c -0.053,-0.043 -0.106,-0.085 -0.16,-0.127 l 0,0 c 0.03,-0.077 0.06,-0.154 0.089,-0.231 l 0,0 c 0.144,0.118 0.287,0.239 0.43,0.358 l 0,0 -0.359,0 z m 2.531,-2.589 c -0.609,-0.492 -1.172,-0.946 -1.699,-1.371 l 0,0 c 0.126,-0.826 0.214,-1.67 0.271,-2.522 l 0,0 c 1.619,0.771 2.97,1.397 4.168,1.935 l 0,0 c -0.01,1.326 -0.182,2.598 -0.502,3.801 l 0,0 c -0.799,-0.684 -1.549,-1.286 -2.238,-1.843 m -0.161,-8.384 c -0.025,-0.02 -0.052,-0.04 -0.078,-0.059 l 0,0 2.979,1.63 0,0.078 c -0.956,-0.538 -1.923,-1.087 -2.901,-1.649 m -1.26,-2.544 c -0.003,-0.066 -0.007,-0.132 -0.009,-0.197 l 0,0 c 0.179,0.08 0.357,0.158 0.533,0.236 l 0,0 c 1.444,0.861 2.626,1.581 3.152,1.925 l 0,0 c -1.266,-0.673 -2.491,-1.328 -3.676,-1.964 m 2.719,1.01 c 0.493,0.217 0.974,0.431 1.442,0.638 l 0,0 0,0.171 c -0.484,-0.27 -0.965,-0.54 -1.442,-0.809 m -1.696,-0.959 c -0.094,-0.053 -0.189,-0.107 -0.284,-0.159 l 0,0 c 0.505,0.202 1.397,0.56 2.457,0.986 l 0,0 c 0.333,0.19 0.656,0.373 0.965,0.55 l 0,0 0,0.086 c -1.012,-0.472 -2.062,-0.962 -3.138,-1.463 m 1.505,0.299 c -0.385,-0.211 -0.767,-0.42 -1.144,-0.627 l 0,0 c 0.933,0.383 1.858,0.765 2.777,1.148 l 0,0 0,0.186 c -0.539,-0.232 -1.082,-0.468 -1.633,-0.707 m -2.563,-1.129 c 0,-0.025 -10e-4,-0.05 -0.003,-0.075 l 0,0 c 0.177,0.072 0.355,0.144 0.532,0.215 l 0,0 c 0.278,0.154 0.55,0.307 0.817,0.456 l 0,0 c -0.442,-0.194 -0.89,-0.392 -1.346,-0.596" />
    </clipPath>
    <clipPath
       id="clipPath21810"
       clipPathUnits="userSpaceOnUse">
      <path
         inkscape:connector-curvature="0"
         id="path21812"
         d="m 309.047,483.39 c -0.243,-0.192 -0.484,-0.383 -0.725,-0.574 l 0,0 0.359,0 c 0.231,0.192 0.459,0.383 0.687,0.574 l 0,0 -0.321,0 z" />
    </clipPath>
    <clipPath
       id="clipPath21822"
       clipPathUnits="userSpaceOnUse">
      <path
         inkscape:connector-curvature="0"
         id="path21824"
         d="m 306.425,490.073 c 0.148,0.129 0.303,0.261 0.462,0.398 l 0,0 c -0.152,0.094 -0.306,0.186 -0.461,0.275 l 0,0 -10e-4,-0.673 z m -0.002,-1.76 -0.003,-1.161 c 0.969,0.458 1.942,0.922 2.916,1.395 l 0,0 c -0.397,0.392 -0.82,0.759 -1.262,1.102 l 0,0 c -0.542,-0.439 -1.093,-0.884 -1.651,-1.336 m 3.002,-11.979 c 0.051,-0.731 0.079,-1.466 0.091,-2.201 l 0,0 c 0.043,0.027 0.084,0.054 0.126,0.08 l 0,0 c 0.699,0.532 1.439,1.095 2.206,1.678 l 0,0 c -0.112,-0.029 -0.282,-0.088 -0.509,-0.178 l 0,0 c 0.342,0.191 0.682,0.38 1.02,0.567 l 0,0 c 0.405,0.308 0.818,0.621 1.234,0.937 l 0,0 0,0.95 0,0.102 c -1.198,-0.538 -2.549,-1.164 -4.168,-1.935 m 1.189,-4.55 c -0.451,-0.341 -0.833,-0.63 -1.124,-0.85 l 0,0 c -0.016,-0.555 -0.037,-1.103 -0.058,-1.635 l 0,0 c 1.185,0.636 2.41,1.291 3.676,1.964 l 0,0 c -0.526,-0.344 -1.708,-1.064 -3.152,-1.925 l 0,0 c 0.753,0.333 1.485,0.657 2.195,0.971 l 0,0 c 0.477,0.269 0.958,0.539 1.442,0.809 l 0,0 0,2.296 -2.979,-1.63 z m -1.118,-0.63 c -10e-4,-0.067 -0.003,-0.133 -0.005,-0.198 l 0,0 c 0.212,0.183 0.35,0.329 0.437,0.446 l 0,0 c -0.144,-0.082 -0.287,-0.166 -0.432,-0.248 m 3.132,-0.977 c 0.309,0.125 0.633,0.255 0.965,0.389 l 0,0 0,0.161 c -0.309,-0.177 -0.632,-0.36 -0.965,-0.55 m -1.885,-1.061 c -0.267,-0.149 -0.539,-0.302 -0.817,-0.456 l 0,0 c 0.298,0.121 0.594,0.242 0.89,0.362 l 0,0 c 0.377,0.207 0.759,0.416 1.144,0.627 l 0,0 c -0.402,-0.175 -0.808,-0.352 -1.217,-0.533 m -1.011,-0.103 c 0,0 0.16,0.064 0.439,0.178 l 0,0 c 0.095,0.052 0.19,0.106 0.284,0.159 l 0,0 c -0.239,-0.112 -0.482,-0.224 -0.723,-0.337" />
    </clipPath>
    <clipPath
       id="clipPath21834"
       clipPathUnits="userSpaceOnUse">
      <path
         inkscape:connector-curvature="0"
         id="path21836"
         d="m 306.425,490.073 -0.002,-1.76 c 0.558,0.452 1.109,0.897 1.651,1.336 l 0,0 c -0.381,0.293 -0.777,0.567 -1.187,0.822 l 0,0 c -0.159,-0.137 -0.314,-0.269 -0.462,-0.398 m -0.007,-4.273 0,-0.162 c 0.428,-0.489 0.799,-1.029 1.117,-1.608 l 0,0 c 0.861,0.637 1.363,1.007 1.363,1.007 l 0,0 c 0.017,0.005 0.032,0.007 0.044,0.007 l 0,0 c 0.171,0 -0.286,-0.463 -1.254,-1.3 l 0,0 c 0.073,-0.144 0.143,-0.29 0.212,-0.438 l 0,0 c 0.093,-0.202 0.179,-0.408 0.262,-0.617 l 0,0 c 0.054,0.042 0.107,0.084 0.16,0.127 l 0,0 c 0.241,0.191 0.482,0.382 0.725,0.574 l 0,0 c 0.881,0.696 1.767,1.393 2.654,2.084 l 0,0 c -0.543,0.952 -1.189,1.831 -1.927,2.625 l 0,0 c -1.12,-0.761 -2.235,-1.526 -3.356,-2.299 m 2.95,-2.41 c -0.228,-0.191 -0.456,-0.382 -0.687,-0.574 l 0,0 c -0.143,-0.119 -0.286,-0.24 -0.43,-0.358 l 0,0 c 0.419,-1.124 0.707,-2.34 0.903,-3.602 l 0,0 c 0.527,0.425 1.09,0.879 1.699,1.371 l 0,0 c 0.689,0.557 1.439,1.159 2.238,1.843 l 0,0 c -0.313,1.179 -0.767,2.29 -1.342,3.318 l 0,0 c -0.773,-0.65 -1.567,-1.318 -2.381,-1.998 m 2.991,-7.11 c -0.338,-0.187 -0.678,-0.376 -1.02,-0.567 l 0,0 c 0.227,0.09 0.397,0.149 0.509,0.178 l 0,0 c -0.767,-0.583 -1.507,-1.146 -2.206,-1.678 l 0,0 c -0.042,-0.026 -0.083,-0.053 -0.126,-0.08 l 0,0 c 0.007,-0.326 0.009,-0.651 0.01,-0.976 l 0,0 c 0,-0.676 -0.012,-1.346 -0.03,-2.003 l 0,0 c 0.145,0.082 0.288,0.166 0.432,0.248 l 0,0 c -0.087,-0.117 -0.225,-0.263 -0.437,-0.446 l 0,0 c 0,-0.008 -10e-4,-0.015 -10e-4,-0.022 l 0,0 c 0.291,0.22 0.673,0.509 1.124,0.85 l 0,0 c 0.026,0.019 0.053,0.039 0.078,0.059 l 0,0 c 0.978,0.562 1.945,1.111 2.901,1.649 l 0,0 0,3.725 c -0.416,-0.316 -0.829,-0.629 -1.234,-0.937 m -0.208,-5.971 c -0.71,-0.314 -1.442,-0.638 -2.195,-0.971 l 0,0 c -0.176,-0.078 -0.354,-0.156 -0.533,-0.236 l 0,0 c -0.008,-0.196 -0.017,-0.39 -0.026,-0.582 l 0,0 c 0.456,0.204 0.904,0.402 1.346,0.596 l 0,0 c 0.409,0.181 0.815,0.358 1.217,0.533 l 0,0 c 0.551,0.239 1.094,0.475 1.633,0.707 l 0,0 0,0.21 c -0.332,-0.134 -0.656,-0.264 -0.965,-0.389 l 0,0 c -1.06,-0.426 -1.952,-0.784 -2.457,-0.986 l 0,0 c -0.279,-0.114 -0.439,-0.178 -0.439,-0.178 l 0,0 c 0.241,0.113 0.484,0.225 0.723,0.337 l 0,0 c 1.076,0.501 2.126,0.991 3.138,1.463 l 0,0 0,0.134 c -0.468,-0.207 -0.949,-0.421 -1.442,-0.638 m -1.335,-1.287 c -0.296,-0.12 -0.592,-0.241 -0.89,-0.362 l 0,0 c -0.177,-0.071 -0.355,-0.143 -0.532,-0.215 l 0,0 c -0.024,-0.536 -0.049,-1.056 -0.07,-1.555 l 0,0 4.269,0 0,3.28 c -0.919,-0.383 -1.844,-0.765 -2.777,-1.148" />
    </clipPath>
    <clipPath
       id="clipPath21846"
       clipPathUnits="userSpaceOnUse">
      <path
         inkscape:connector-curvature="0"
         id="path21848"
         d="m 306.414,482.816 -0.012,-8.263 1.633,0 c -0.04,1.481 -0.15,2.949 -0.376,4.321 l 0,0 c -0.241,1.455 -0.612,2.799 -1.156,3.942 l 0,0 -0.089,0 z m -0.013,-8.837 -0.002,-1.562 c -0.002,-2.038 -0.603,-3.936 -1.637,-5.527 l 0,0 3.087,0 c 0.081,1.899 0.204,4.069 0.204,6.267 l 0,0 c 0,0.274 -0.003,0.548 -0.006,0.822 l 0,0 -1.646,0 z" />
    </clipPath>
    <clipPath
       id="clipPath21858"
       clipPathUnits="userSpaceOnUse">
      <path
         inkscape:connector-curvature="0"
         id="path21860"
         d="m 306.414,482.816 0.089,0 c -0.029,0.06 -0.058,0.121 -0.088,0.182 l 0,0 -0.001,-0.182 z" />
    </clipPath>
    <clipPath
       id="clipPath21870"
       clipPathUnits="userSpaceOnUse">
      <path
         inkscape:connector-curvature="0"
         id="path21872"
         d="m 306.402,474.553 -10e-4,-0.574 1.646,0 c -0.003,0.191 -0.007,0.383 -0.012,0.574 l 0,0 -1.633,0 z" />
    </clipPath>
    <clipPath
       id="clipPath21882"
       clipPathUnits="userSpaceOnUse">
      <path
         inkscape:connector-curvature="0"
         id="path21884"
         d="m 306.426,490.746 c 0.155,-0.089 0.309,-0.181 0.461,-0.275 l 0,0 c 0.41,-0.255 0.806,-0.529 1.187,-0.822 l 0,0 c 0.442,-0.343 0.865,-0.71 1.262,-1.102 l 0,0 c 0.079,-0.077 0.157,-0.154 0.232,-0.233 l 0,0 c 0.07,-0.071 0.138,-0.143 0.206,-0.215 l 0,0 c 0.738,-0.794 1.384,-1.673 1.927,-2.625 l 0,0 c 0.016,-0.028 0.032,-0.057 0.048,-0.086 l 0,0 c 0.575,-1.028 1.029,-2.139 1.342,-3.318 l 0,0 c 0.32,-1.203 0.492,-2.475 0.502,-3.801 l 0,0 0,-0.102 0,-0.95 0,-3.725 0,-0.078 0,-2.296 0,-0.171 0,-0.134 0,-0.086 0,-0.161 0,-0.21 0,-0.186 0,-3.28 1.474,0 0,7.089 0,0.574 0,3.614 c 10e-4,1.623 -0.227,3.183 -0.655,4.649 l 0,0 c -0.056,0.192 -0.116,0.384 -0.18,0.574 l 0,0 c -0.754,2.266 -1.993,4.289 -3.606,5.95 l 0,0 c -0.852,0.878 -1.807,1.653 -2.85,2.313 l 0,0 c -0.321,0.202 -0.65,0.394 -0.987,0.573 l 0,0 c -0.118,0.065 -0.24,0.126 -0.361,0.187 l 0,0 -0.002,-1.667 z m -0.011,-7.748 c 0.03,-0.061 0.059,-0.122 0.088,-0.182 l 0,0 c 0.544,-1.143 0.915,-2.487 1.156,-3.942 l 0,0 c 0.226,-1.372 0.336,-2.84 0.376,-4.321 l 0,0 c 0.005,-0.191 0.009,-0.383 0.012,-0.574 l 0,0 c 0.003,-0.274 0.006,-0.548 0.006,-0.822 l 0,0 c 0,-2.198 -0.123,-4.368 -0.204,-6.267 l 0,0 1.475,0 c 0.021,0.499 0.046,1.019 0.07,1.555 l 0,0 c 0.002,0.025 0.003,0.05 0.003,0.075 l 0,0 c 0.009,0.192 0.018,0.386 0.026,0.582 l 0,0 c 0.002,0.065 0.006,0.131 0.009,0.197 l 0,0 c 0.021,0.532 0.042,1.08 0.058,1.635 l 0,0 c 0,0.007 10e-4,0.014 10e-4,0.022 l 0,0 c 0.002,0.065 0.004,0.131 0.005,0.198 l 0,0 c 0.018,0.657 0.03,1.327 0.03,2.003 l 0,0 c -0.001,0.325 -0.003,0.65 -0.01,0.976 l 0,0 c -0.012,0.735 -0.04,1.47 -0.091,2.201 l 0,0 c -0.057,0.852 -0.145,1.696 -0.271,2.522 l 0,0 c -0.196,1.262 -0.484,2.478 -0.903,3.602 l 0,0 c -0.029,0.077 -0.059,0.154 -0.089,0.231 l 0,0 c -0.083,0.209 -0.169,0.415 -0.262,0.617 l 0,0 c -0.069,0.148 -0.139,0.294 -0.212,0.438 l 0,0 c -0.05,0.096 -0.1,0.191 -0.153,0.286 l 0,0 c -0.318,0.579 -0.689,1.119 -1.117,1.608 l 0,0 -0.003,-2.64 z" />
    </clipPath>
    <clipPath
       id="clipPath21894"
       clipPathUnits="userSpaceOnUse">
      <path
         inkscape:connector-curvature="0"
         id="path21896"
         d="m 293.026,547.582 -0.108,-72.17 -48.22,0.059 0,-8.581 60.064,0 c 1.034,1.591 1.635,3.489 1.637,5.527 l 0,0 0.002,1.562 10e-4,0.574 0.012,8.263 0.001,0.182 0.003,2.64 0,0.162 0.002,1.352 0.003,1.161 0.002,1.76 10e-4,0.673 0.002,1.667 0.012,8.076 10e-4,0.575 0.012,7.688 0.002,1.723 0.042,28.017 0.007,5.123 0.004,1.779 0.002,2.188 -13.484,0 z" />
    </clipPath>
    <clipPath
       id="clipPath21906"
       clipPathUnits="userSpaceOnUse">
      <path
         inkscape:connector-curvature="0"
         id="path21908"
         d="m 244.698,547.582 0,-70.83 46.942,-0.059 0.105,70.889 -47.047,0 z" />
    </clipPath>
    <clipPath
       id="clipPath21918"
       clipPathUnits="userSpaceOnUse">
      <path
         inkscape:connector-curvature="0"
         id="path21920"
         d="m 291.745,547.582 -0.105,-70.889 -46.942,0.059 0,-1.281 48.22,-0.059 0.108,72.17 -1.281,0 z" />
    </clipPath>
    <clipPath
       id="clipPath21930"
       clipPathUnits="userSpaceOnUse">
      <path
         inkscape:connector-curvature="0"
         id="path21932"
         d="m 343.665,444.634 0,-5.43 0,-0.574 0,-8.263 0,-0.574 0,-8.264 0,-0.573 0,-8.262 0,-0.574 0,-0.914 6.967,0 0,40.395 -6.967,-6.967 z m -98.967,-33.428 2.088,0 0,18.662 -2.088,0 0,-18.662 z" />
    </clipPath>
    <clipPath
       id="clipPath21942"
       clipPathUnits="userSpaceOnUse">
      <path
         inkscape:connector-curvature="0"
         id="path21944"
         d="m 246.786,411.206 2.87,0 0,18.662 -2.87,0 0,-18.662 z" />
    </clipPath>
    <clipPath
       id="clipPath21954"
       clipPathUnits="userSpaceOnUse">
      <path
         inkscape:connector-curvature="0"
         id="path21956"
         d="m 249.656,411.206 4.018,0 0,18.662 -4.018,0 0,-18.662 z" />
    </clipPath>
    <clipPath
       id="clipPath21966"
       clipPathUnits="userSpaceOnUse">
      <path
         inkscape:connector-curvature="0"
         id="path21968"
         d="m 338.234,439.204 5.431,0 0,5.43 -5.431,-5.43 z m -0.574,-0.574 -0.101,-0.102 -9.928,-4.019 c -2.135,-2.195 -4.606,-3.487 -6.343,-4.142 l 0,0 22.377,0 0,8.263 -6.005,0 z m -83.985,-27.424 89.99,0 0,0.914 -89.99,0 0,0.574 89.99,0 0,8.262 -89.99,0 0,0.573 89.99,0 0,8.264 -23.218,0 c -1.084,-3.741 -4.537,-6.474 -8.627,-6.475 l 0,0 -25.289,0 c -4.089,0.001 -7.545,2.734 -8.628,6.475 l 0,0 -24.228,0 0,0.075 0,-18.662 z" />
    </clipPath>
    <clipPath
       id="clipPath21978"
       clipPathUnits="userSpaceOnUse">
      <path
         inkscape:connector-curvature="0"
         id="path21980"
         d="m 338.234,439.204 -0.574,-0.574 6.005,0 0,0.574 -5.431,0 z" />
    </clipPath>
    <clipPath
       id="clipPath21990"
       clipPathUnits="userSpaceOnUse">
      <path
         inkscape:connector-curvature="0"
         id="path21992"
         d="m 321.288,430.367 c -0.271,-0.102 -0.525,-0.19 -0.757,-0.262 l 0,0 c -0.026,-0.104 -0.054,-0.208 -0.084,-0.312 l 0,0 23.218,0 0,0.574 -22.377,0 z m -67.613,-0.499 0,-0.075 24.228,0 c -0.007,0.025 -0.015,0.05 -0.022,0.075 l 0,0 -24.206,0 z" />
    </clipPath>
    <clipPath
       id="clipPath22002"
       clipPathUnits="userSpaceOnUse">
      <path
         inkscape:connector-curvature="0"
         id="path22004"
         d="m 253.675,420.956 89.99,0 0,0.573 -89.99,0 0,-0.573 z" />
    </clipPath>
    <clipPath
       id="clipPath22014"
       clipPathUnits="userSpaceOnUse">
      <path
         inkscape:connector-curvature="0"
         id="path22016"
         d="m 253.675,412.12 89.99,0 0,0.574 -89.99,0 0,-0.574 z" />
    </clipPath>
    <clipPath
       id="clipPath22026"
       clipPathUnits="userSpaceOnUse">
      <path
         inkscape:connector-curvature="0"
         id="path22028"
         d="m 310.903,429.793 c -0.796,-0.38 -1.808,-0.864 -2.856,-1.365 l 0,0 -0.305,-0.244 c 1.085,0.541 2.161,1.077 3.229,1.609 l 0,0 -0.068,0 z m -1.153,0 -1.376,-1.103 c 0.696,0.35 1.431,0.719 2.195,1.103 l 0,0 -0.819,0 z m -0.629,0 c -1.022,-0.75 -2.229,-1.643 -3.17,-2.317 l 0,0 c 0.685,0.342 1.437,0.719 2.242,1.124 l 0,0 c 0.558,0.466 1.029,0.861 1.42,1.193 l 0,0 -0.492,0 z m -4.749,0 c -2.442,-1.756 -4.776,-3.404 -7.074,-5.002 l 0,0 2.917,0 c 2.009,1.619 4.093,3.295 6.223,5.002 l 0,0 -2.066,0 z m -4.954,0 c -3.294,-2.626 -5.469,-4.441 -5.94,-5.002 l 0,0 0.224,0 c 0.789,0.582 3.444,2.545 6.73,5.002 l 0,0 -1.014,0 z m -2.168,0 c -2.099,-1.724 -4.119,-3.41 -6.012,-5.002 l 0,0 0.207,0 c 1.416,1.11 2.829,2.227 4.218,3.338 l 0,0 c 0.7,0.557 1.394,1.112 2.079,1.664 l 0,0 -0.492,0 z m -11.959,0 c -1.32,-1.004 -2.637,-2.009 -3.894,-2.974 l 0,0 c 1.345,-1.259 3.147,-2.028 5.134,-2.028 l 0,0 0.32,0 c 1.397,1.416 2.199,2.305 2.028,2.305 l 0,0 c -0.06,0 -0.236,-0.107 -0.546,-0.336 l 0,0 c 1.152,1.039 2.22,1.891 3.172,2.662 l 0,0 c 0.156,0.126 0.309,0.25 0.459,0.371 l 0,0 -6.673,0 z m 32.157,-1.604 -1.194,-0.971 c 0,0 0.379,0.327 0.965,0.834 l 0,0 c -0.801,-0.478 -1.604,-0.952 -2.415,-1.421 l 0,0 c -0.629,-0.443 -1.214,-0.857 -1.68,-1.184 l 0,0 c 0.45,0.333 0.897,0.662 1.338,0.987 l 0,0 c -0.144,-0.083 -0.287,-0.167 -0.432,-0.249 l 0,0 c -0.797,-0.621 -1.277,-1.004 -1.277,-1.004 l 0,0 c 0.12,0.085 0.225,0.16 0.371,0.266 l 0,0 c -0.283,-0.212 -0.568,-0.426 -0.856,-0.643 l 0,0 c 1.895,0.111 3.598,0.924 4.86,2.184 l 0,0 c 0.223,0.223 0.432,0.46 0.626,0.71 l 0,0 c -0.626,-0.464 -1.139,-0.841 -1.481,-1.094 l 0,0 c 0.603,0.486 1.159,0.936 1.674,1.352 l 0,0 c 0.191,0.27 0.365,0.552 0.52,0.846 l 0,0 c -0.339,-0.205 -0.679,-0.409 -1.019,-0.613 m -10.054,-0.073 c -0.562,-0.271 -1.125,-0.54 -1.66,-0.794 l 0,0 c -0.263,-0.187 -0.5,-0.353 -0.701,-0.488 l 0,0 c 0.869,0.432 1.733,0.863 2.591,1.291 l 0,0 c 0.097,0.081 0.192,0.16 0.284,0.236 l 0,0 c -0.171,-0.082 -0.342,-0.163 -0.514,-0.245 m 5.842,-2.384 c -0.181,-0.176 -0.327,-0.325 -0.383,-0.406 l 0,0 c 0.223,0.182 0.507,0.41 0.81,0.649 l 0,0 c -0.141,-0.081 -0.285,-0.163 -0.427,-0.243 m -0.462,-0.262 c -0.326,-0.25 -0.621,-0.476 -0.888,-0.679 l 0,0 c 0.021,0 0.041,0 0.062,10e-4 l 0,0 c 0.296,0.237 0.595,0.477 0.897,0.718 l 0,0 c -0.024,-0.013 -0.047,-0.026 -0.071,-0.04 m -0.243,-0.406 c -0.158,-0.118 -0.274,-0.205 -0.353,-0.265 l 0,0 c 0.011,0 0.022,0.001 0.034,0.002 l 0,0 c 0.111,0.076 0.276,0.192 0.48,0.338 l 0,0 -0.012,-0.017 0.073,0.059 -0.061,-0.042 0.161,0.187 c -0.082,-0.069 -0.27,-0.22 -0.322,-0.262" />
    </clipPath>
    <clipPath
       id="clipPath22038"
       clipPathUnits="userSpaceOnUse">
      <path
         inkscape:connector-curvature="0"
         id="path22040"
         d="m 311.058,429.868 c -0.051,-0.024 -0.103,-0.05 -0.155,-0.075 l 0,0 0.068,0 c 0.048,0.025 0.099,0.05 0.148,0.075 l 0,0 -0.061,0 z m -1.215,0 -0.093,-0.075 0.819,0 c 0.05,0.025 0.099,0.05 0.149,0.075 l 0,0 -0.875,0 z m -0.621,0 c -0.033,-0.025 -0.068,-0.05 -0.101,-0.075 l 0,0 0.492,0 c 0.03,0.025 0.059,0.05 0.088,0.075 l 0,0 -0.479,0 z m -4.747,0 c -0.035,-0.025 -0.069,-0.05 -0.103,-0.075 l 0,0 2.066,0 c 0.03,0.025 0.062,0.05 0.092,0.075 l 0,0 -2.055,0 z m -4.963,0 c -0.032,-0.025 -0.062,-0.05 -0.094,-0.075 l 0,0 1.014,0 c 0.032,0.025 0.065,0.05 0.099,0.075 l 0,0 -1.019,0 z m -2.172,0 c -0.03,-0.025 -0.059,-0.05 -0.09,-0.075 l 0,0 0.492,0 c 0.031,0.025 0.062,0.05 0.093,0.075 l 0,0 -0.495,0 z m -11.952,0 c -0.032,-0.025 -0.065,-0.05 -0.097,-0.075 l 0,0 6.673,0 c 0.031,0.025 0.062,0.05 0.092,0.075 l 0,0 -6.668,0 z" />
    </clipPath>
    <clipPath
       id="clipPath22050"
       clipPathUnits="userSpaceOnUse">
      <path
         inkscape:connector-curvature="0"
         id="path22052"
         d="m 314.462,426.434 c -0.441,-0.325 -0.888,-0.654 -1.338,-0.987 l 0,0 c 0.466,0.327 1.051,0.741 1.68,1.184 l 0,0 c -0.115,-0.066 -0.228,-0.133 -0.342,-0.197" />
    </clipPath>
    <clipPath
       id="clipPath22062"
       clipPathUnits="userSpaceOnUse">
      <path
         inkscape:connector-curvature="0"
         id="path22064"
         d="m 316.273,426.604 c 0.342,0.253 0.855,0.63 1.481,1.094 l 0,0 c 0.066,0.085 0.13,0.171 0.193,0.258 l 0,0 c -0.515,-0.416 -1.071,-0.866 -1.674,-1.352" />
    </clipPath>
    <clipPath
       id="clipPath22074"
       clipPathUnits="userSpaceOnUse">
      <path
         inkscape:connector-curvature="0"
         id="path22076"
         d="m 313.663,425.975 c -0.303,-0.239 -0.587,-0.467 -0.81,-0.649 l 0,0 c 0.056,0.081 0.202,0.23 0.383,0.406 l 0,0 c -0.131,-0.074 -0.26,-0.148 -0.391,-0.222 l 0,0 c -0.302,-0.241 -0.601,-0.481 -0.897,-0.718 l 0,0 c 0.077,0.001 0.154,0.004 0.23,0.007 l 0,0 c 0.079,0.06 0.195,0.147 0.353,0.265 l 0,0 c 0.052,0.042 0.24,0.193 0.322,0.262 l 0,0 -0.161,-0.187 0.061,0.042 -0.073,-0.059 0.012,0.017 c -0.204,-0.146 -0.369,-0.262 -0.48,-0.338 l 0,0 c 0.019,0.001 0.038,0.002 0.056,0.003 l 0,0 c 0.288,0.217 0.573,0.431 0.856,0.643 l 0,0 c -0.146,-0.106 -0.251,-0.181 -0.371,-0.266 l 0,0 c 0,0 0.48,0.383 1.277,1.004 l 0,0 c -0.123,-0.07 -0.244,-0.14 -0.367,-0.21 m -1.831,-1.034 c -0.088,-0.049 -0.176,-0.101 -0.265,-0.15 l 0,0 0.253,0 0.066,0 c 0.267,0.203 0.562,0.429 0.888,0.679 l 0,0 c -0.313,-0.177 -0.627,-0.353 -0.942,-0.529" />
    </clipPath>
    <clipPath
       id="clipPath22086"
       clipPathUnits="userSpaceOnUse">
      <path
         inkscape:connector-curvature="0"
         id="path22088"
         d="m 317.219,428.052 c -0.586,-0.507 -0.965,-0.834 -0.965,-0.834 l 0,0 1.194,0.971 c -0.077,-0.046 -0.154,-0.092 -0.229,-0.137" />
    </clipPath>
    <clipPath
       id="clipPath22098"
       clipPathUnits="userSpaceOnUse">
      <path
         inkscape:connector-curvature="0"
         id="path22100"
         d="m 309.701,429.868 c -0.029,-0.025 -0.058,-0.05 -0.088,-0.075 l 0,0 c -0.391,-0.332 -0.862,-0.727 -1.42,-1.193 l 0,0 c 0.06,0.029 0.121,0.06 0.181,0.09 l 0,0 1.376,1.103 0.093,0.075 -0.142,0 z m -3.171,0 c -0.03,-0.025 -0.062,-0.05 -0.092,-0.075 l 0,0 c -2.13,-1.707 -4.214,-3.383 -6.223,-5.002 l 0,0 0.579,0 c 1.264,0.598 2.514,1.196 3.751,1.798 l 0,0 c 0.163,0.082 0.325,0.163 0.488,0.245 l 0,0 c 0.201,0.135 0.438,0.301 0.701,0.488 l 0,0 c -0.818,-0.389 -1.573,-0.743 -2.168,-1.02 l 0,0 c 0.652,0.314 1.457,0.711 2.385,1.174 l 0,0 c 0.941,0.674 2.148,1.567 3.17,2.317 l 0,0 c 0.033,0.025 0.068,0.05 0.101,0.075 l 0,0 -2.692,0 z m -2.964,-3.566 c -0.547,-0.264 -0.985,-0.469 -1.296,-0.603 l 0,0 c 0,10e-4 0.507,0.235 1.296,0.603 m -3.035,3.566 c -0.034,-0.025 -0.067,-0.05 -0.099,-0.075 l 0,0 c -3.286,-2.457 -5.941,-4.42 -6.73,-5.002 l 0,0 3.596,0 c 2.298,1.598 4.632,3.246 7.074,5.002 l 0,0 c 0.034,0.025 0.068,0.05 0.103,0.075 l 0,0 -3.944,0 z m -2.696,0 c -0.031,-0.025 -0.062,-0.05 -0.093,-0.075 l 0,0 c -0.685,-0.552 -1.379,-1.107 -2.079,-1.664 l 0,0 c -1.389,-1.111 -2.802,-2.228 -4.218,-3.338 l 0,0 2.033,0 c 0.471,0.561 2.646,2.376 5.94,5.002 l 0,0 c 0.032,0.025 0.062,0.05 0.094,0.075 l 0,0 -1.677,0 z m -5.779,0 c -0.03,-0.025 -0.061,-0.05 -0.092,-0.075 l 0,0 c -0.15,-0.121 -0.303,-0.245 -0.459,-0.371 l 0,0 c -0.952,-0.771 -2.02,-1.623 -3.172,-2.662 l 0,0 c 0.31,0.229 0.486,0.336 0.546,0.336 l 0,0 c 0.171,0 -0.631,-0.889 -2.028,-2.305 l 0,0 4.387,0 c 1.893,1.592 3.913,3.278 6.012,5.002 l 0,0 c 0.031,0.025 0.06,0.05 0.09,0.075 l 0,0 -5.284,0 z m -6.78,0 c -0.09,-0.038 -0.179,-0.076 -0.269,-0.113 l 0,0 c -1.437,-0.595 -2.824,-1.187 -4.513,-1.923 l 0,0 c 0.221,-0.3 0.465,-0.581 0.728,-0.844 l 0,0 c 0.058,-0.058 0.116,-0.114 0.175,-0.169 l 0,0 c 1.257,0.965 2.574,1.97 3.894,2.974 l 0,0 c 0.032,0.025 0.065,0.05 0.097,0.075 l 0,0 -0.112,0 z m 22.632,-1.507 c -0.092,-0.076 -0.187,-0.155 -0.284,-0.236 l 0,0 c 0.04,0.02 0.08,0.04 0.118,0.059 l 0,0 0.305,0.244 c -0.045,-0.023 -0.092,-0.044 -0.139,-0.067" />
    </clipPath>
    <clipPath
       id="clipPath22110"
       clipPathUnits="userSpaceOnUse">
      <path
         inkscape:connector-curvature="0"
         id="path22112"
         d="m 316.165,429.868 -1.727,-0.7 0.302,0.7 -3.621,0 c -0.049,-0.025 -0.1,-0.05 -0.148,-0.075 l 0,0 c -1.068,-0.532 -2.144,-1.068 -3.229,-1.609 l 0,0 c -0.038,-0.019 -0.078,-0.039 -0.118,-0.059 l 0,0 c -0.858,-0.428 -1.722,-0.859 -2.591,-1.291 l 0,0 c -0.163,-0.082 -0.325,-0.163 -0.488,-0.245 l 0,0 c -1.237,-0.602 -2.487,-1.2 -3.751,-1.798 l 0,0 10.773,0 c 0.089,0.049 0.177,0.101 0.265,0.15 l 0,0 c 0.315,0.176 0.629,0.352 0.942,0.529 l 0,0 c 0.024,0.014 0.047,0.027 0.071,0.04 l 0,0 c 0.131,0.074 0.26,0.148 0.391,0.222 l 0,0 c 0.142,0.08 0.286,0.162 0.427,0.243 l 0,0 c 0.123,0.07 0.244,0.14 0.367,0.21 l 0,0 c 0.145,0.082 0.288,0.166 0.432,0.249 l 0,0 c 0.114,0.064 0.227,0.131 0.342,0.197 l 0,0 c 0.811,0.469 1.614,0.943 2.415,1.421 l 0,0 c 0.075,0.045 0.152,0.091 0.229,0.137 l 0,0 c 0.34,0.204 0.68,0.408 1.019,0.613 l 0,0 c 0.179,0.341 0.333,0.697 0.459,1.066 l 0,0 -2.761,0 z m -5.447,0 c -0.05,-0.025 -0.099,-0.05 -0.149,-0.075 l 0,0 c -0.764,-0.384 -1.499,-0.753 -2.195,-1.103 l 0,0 c -0.06,-0.03 -0.121,-0.061 -0.181,-0.09 l 0,0 c -0.805,-0.405 -1.557,-0.782 -2.242,-1.124 l 0,0 c -0.928,-0.463 -1.733,-0.86 -2.385,-1.174 l 0,0 c 0.595,0.277 1.35,0.631 2.168,1.02 l 0,0 c 0.535,0.254 1.098,0.523 1.66,0.794 l 0,0 c 0.172,0.082 0.343,0.163 0.514,0.245 l 0,0 c 0.047,0.023 0.094,0.044 0.139,0.067 l 0,0 c 1.048,0.501 2.06,0.985 2.856,1.365 l 0,0 c 0.052,0.025 0.104,0.051 0.155,0.075 l 0,0 -0.34,0 z m -31.294,0 c 0.252,-0.737 0.615,-1.422 1.07,-2.036 l 0,0 c 1.689,0.736 3.076,1.328 4.513,1.923 l 0,0 c 0.09,0.037 0.179,0.075 0.269,0.113 l 0,0 -5.852,0 z m 22.846,-4.169 c 0.311,0.134 0.749,0.339 1.296,0.603 l 0,0 c -0.789,-0.368 -1.296,-0.602 -1.296,-0.603" />
    </clipPath>
    <clipPath
       id="clipPath22122"
       clipPathUnits="userSpaceOnUse">
      <path
         inkscape:connector-curvature="0"
         id="path22124"
         d="m 325.381,465.716 1.486,0 0,1.174 -1.486,0 0,-1.174 z m 0,-0.574 0,-8.263 3.854,0 5.816,5.814 -8.185,0 0,2.449 -1.485,0 z m 0,-8.838 0,-2.835 0.293,-0.153 2.988,2.988 -3.281,0 z" />
    </clipPath>
    <clipPath
       id="clipPath22134"
       clipPathUnits="userSpaceOnUse">
      <path
         inkscape:connector-curvature="0"
         id="path22136"
         d="m 325.381,465.142 1.486,0 0,0.574 -1.486,0 0,-0.574 z" />
    </clipPath>
    <clipPath
       id="clipPath22146"
       clipPathUnits="userSpaceOnUse">
      <path
         inkscape:connector-curvature="0"
         id="path22148"
         d="m 325.381,456.879 0,-0.575 3.281,0 0.573,0.575 -3.854,0 z" />
    </clipPath>
    <clipPath
       id="clipPath22158"
       clipPathUnits="userSpaceOnUse">
      <path
         inkscape:connector-curvature="0"
         id="path22160"
         d="m 319.608,429.868 -0.682,0 c -0.126,-0.369 -0.28,-0.725 -0.459,-1.066 l 0,0 c -0.155,-0.294 -0.329,-0.576 -0.52,-0.846 l 0,0 c -0.063,-0.087 -0.127,-0.173 -0.193,-0.258 l 0,0 c -0.194,-0.25 -0.403,-0.487 -0.626,-0.71 l 0,0 c -1.262,-1.26 -2.965,-2.073 -4.86,-2.184 l 0,0 c -0.018,-10e-4 -0.037,-0.002 -0.056,-0.003 l 0,0 c -0.012,-10e-4 -0.023,-0.002 -0.034,-0.002 l 0,0 c -0.076,-0.003 -0.153,-0.006 -0.23,-0.007 l 0,0 c -0.021,-10e-4 -0.041,-10e-4 -0.062,-10e-4 l 0,0 -0.066,0 -0.253,0 -10.773,0 -0.579,0 -2.917,0 -3.596,0 -0.224,0 -2.033,0 -0.207,0 -4.387,0 -0.32,0 c -1.987,0 -3.789,0.769 -5.134,2.028 l 0,0 c -0.059,0.055 -0.117,0.111 -0.175,0.169 l 0,0 c -0.263,0.263 -0.507,0.544 -0.728,0.844 l 0,0 c -0.455,0.614 -0.818,1.299 -1.07,2.036 l 0,0 -1.543,0 c 0.007,-0.025 0.015,-0.05 0.022,-0.075 l 0,0 c 1.083,-3.741 4.539,-6.474 8.628,-6.475 l 0,0 25.289,0 c 4.09,0.001 7.543,2.734 8.627,6.475 l 0,0 c 0.03,0.104 0.058,0.208 0.084,0.312 l 0,0 c -0.369,-0.114 -0.682,-0.192 -0.923,-0.237" />
    </clipPath>
    <clipPath
       id="clipPath22170"
       clipPathUnits="userSpaceOnUse">
      <path
         inkscape:connector-curvature="0"
         id="path22172"
         d="m 327.88,452.179 1.948,-1.005 -1.833,0 c 2.09,0 3.054,-0.812 3.501,-2.169 l 0,0 0.563,3.535 -4.179,-0.361 z m -2.499,-1.005 2.614,0 -2.614,0 z m 6.507,-5.875 c 0.005,-0.596 0.003,-1.225 0.012,-1.875 l 0,0 c -0.517,-3.937 -2.243,-6.833 -4.269,-8.915 l 0,0 9.928,4.019 1.047,7.468 -6.718,-0.697 z m -15.91,-15.431 -1.54,-0.7 1.727,0.7 -0.187,0 z m -1.238,0 -0.302,-0.7 0.33,0.7 -0.028,0 z" />
    </clipPath>
    <clipPath
       id="clipPath22182"
       clipPathUnits="userSpaceOnUse">
      <path
         inkscape:connector-curvature="0"
         id="path22184"
         d="m 335.051,462.693 -5.816,-5.814 -0.573,-0.575 -2.988,-2.988 2.206,-1.137 4.179,0.361 -0.563,-3.535 c 0.325,-0.984 0.377,-2.254 0.392,-3.706 l 0,0 6.718,0.697 -1.047,-7.468 0.101,0.102 0.574,0.574 5.431,5.43 6.967,6.967 0,11.092 -15.581,0 z" />
    </clipPath>
    <clipPath
       id="clipPath22194"
       clipPathUnits="userSpaceOnUse">
      <path
         inkscape:connector-curvature="0"
         id="path22196"
         d="m 314.768,429.868 -0.33,-0.7 1.54,0.7 -1.21,0 z" />
    </clipPath>
    <clipPath
       id="clipPath22206"
       clipPathUnits="userSpaceOnUse">
      <path
         inkscape:connector-curvature="0"
         id="path22208"
         d="m 315.067,466.89 0,-0.93 c 0.193,-0.075 0.383,-0.156 0.57,-0.244 l 0,0 9.744,0 0,1.174 -10.314,0 z m 1.608,-1.748 c 2.482,-1.598 4.124,-4.386 4.125,-7.558 l 0,0 0,-0.705 4.581,0 0,8.263 -8.706,0 z m 4.125,-8.838 0,-0.473 4.581,-2.362 0,2.835 -4.581,0 z" />
    </clipPath>
    <clipPath
       id="clipPath22218"
       clipPathUnits="userSpaceOnUse">
      <path
         inkscape:connector-curvature="0"
         id="path22220"
         d="m 315.637,465.716 c 0.359,-0.169 0.707,-0.361 1.038,-0.574 l 0,0 8.706,0 0,0.574 -9.744,0 z" />
    </clipPath>
    <clipPath
       id="clipPath22230"
       clipPathUnits="userSpaceOnUse">
      <path
         inkscape:connector-curvature="0"
         id="path22232"
         d="m 320.8,456.304 4.581,0 0,0.575 -4.581,0 0,-0.575 z" />
    </clipPath>
    <clipPath
       id="clipPath22242"
       clipPathUnits="userSpaceOnUse">
      <path
         inkscape:connector-curvature="0"
         id="path22244"
         d="m 309.087,461.822 c 0.048,-0.02 0.095,-0.04 0.143,-0.061 l 0,0 c 0.351,0.281 0.676,0.544 0.972,0.785 l 0,0 c -0.233,-0.144 -0.59,-0.375 -1.115,-0.724 m 7.231,-1.929 c -0.873,-0.568 -1.332,-0.834 -1.571,-0.941 l 0,0 0.629,-0.324 c 0.981,0.637 2.061,1.363 3.222,2.19 l 0,0 c -0.093,0.194 -0.193,0.382 -0.301,0.566 l 0,0 c -0.696,-0.534 -1.358,-1.03 -1.979,-1.491 m -0.521,-1.066 c 0.963,0.499 1.951,1.01 2.994,1.549 l 0,0 c -0.06,0.15 -0.124,0.296 -0.193,0.441 l 0,0 c -0.917,-0.665 -1.856,-1.333 -2.801,-1.99 m -1.307,0.259 c -0.008,0.01 -0.019,0.017 -0.039,0.019 l 0,0 0.039,-0.019 z m 2.824,-1.457 0.247,-0.128 c 0.574,0.352 1.143,0.702 1.704,1.05 l 0,0 c -0.002,0.015 -0.003,0.031 -0.005,0.047 l 0,0 c -0.651,-0.32 -1.304,-0.645 -1.946,-0.969" />
    </clipPath>
    <clipPath
       id="clipPath22254"
       clipPathUnits="userSpaceOnUse">
      <path
         inkscape:connector-curvature="0"
         id="path22256"
         d="m 310.906,464.127 c -0.966,-0.668 -1.895,-1.321 -2.776,-1.949 l 0,0 c 0.321,-0.106 0.64,-0.225 0.957,-0.356 l 0,0 c 0.525,0.349 0.882,0.58 1.115,0.724 l 0,0 c -0.296,-0.241 -0.621,-0.504 -0.972,-0.785 l 0,0 c 0.115,-0.049 0.229,-0.1 0.343,-0.152 l 0,0 c 0.347,0.218 0.689,0.433 1.021,0.645 l 0,0 c 1.045,0.705 2.165,1.456 3.384,2.267 l 0,0 c 0.087,0.064 0.167,0.124 0.241,0.18 l 0,0 c -0.038,0.011 -0.076,0.024 -0.113,0.036 l 0,0 0.069,0.213 -0.069,-0.213 -0.195,0.062 c -0.064,-0.037 -0.13,-0.075 -0.198,-0.115 l 0,0 c -0.567,-0.312 -1.283,-0.705 -1.999,-1.098 l 0,0 c 0.68,0.38 1.369,0.802 2.072,1.252 l 0,0 -0.193,0.062 0,0.539 0,0.58 c -0.918,-0.646 -1.816,-1.278 -2.687,-1.892 m -6.593,-1.12 c 0.309,-0.037 0.635,-0.082 0.971,-0.137 l 0,0 c 0.758,0.576 1.516,1.147 2.277,1.717 l 0,0 c -1.02,-0.491 -2.108,-1.019 -3.248,-1.58 m 13.248,-5.506 0.641,-0.33 c 0.357,0.181 0.733,0.372 1.123,0.57 l 0,0 c -0.005,0.273 -0.026,0.543 -0.06,0.81 l 0,0 c -0.561,-0.348 -1.13,-0.698 -1.704,-1.05 m 0.69,-0.355 1.075,-0.555 0,0.993 c 0,0.046 0,0.093 -0.001,0.139 l 0,0 c -0.283,-0.153 -0.648,-0.348 -1.074,-0.577" />
    </clipPath>
    <clipPath
       id="clipPath22266"
       clipPathUnits="userSpaceOnUse">
      <path
         inkscape:connector-curvature="0"
         id="path22268"
         d="m 309.324,466.89 c -0.017,-0.374 -0.03,-0.738 -0.042,-1.085 l 0,0 -0.023,-0.712 -5.982,0 c -0.828,-0.797 -1.79,-1.455 -2.849,-1.937 l 0,0 0.788,0 c 0,0 0.182,0.009 0.503,0.009 l 0,0 c 0.538,0 1.468,-0.025 2.594,-0.158 l 0,0 c 1.14,0.561 2.228,1.089 3.248,1.58 l 0,0 c -0.761,-0.57 -1.519,-1.141 -2.277,-1.717 l 0,0 c 0.899,-0.148 1.874,-0.367 2.846,-0.692 l 0,0 c 0.881,0.628 1.81,1.281 2.776,1.949 l 0,0 c 0.871,0.614 1.769,1.246 2.687,1.892 l 0,0 0,0.871 -4.269,0 z m 2.39,-3.304 c 0.716,0.393 1.432,0.786 1.999,1.098 l 0,0 c 0.068,0.04 0.134,0.078 0.198,0.115 l 0,0 -0.125,0.039 c -0.703,-0.45 -1.392,-0.872 -2.072,-1.252 m 2.264,0.935 c -1.219,-0.811 -2.339,-1.562 -3.384,-2.267 l 0,0 c -0.332,-0.212 -0.674,-0.427 -1.021,-0.645 l 0,0 c 0.157,-0.073 0.314,-0.149 0.469,-0.229 l 0,0 4.409,-2.275 c 0.02,-0.002 0.031,-0.009 0.039,-0.019 l 0,0 0.257,-0.134 c 0.239,0.107 0.698,0.373 1.571,0.941 l 0,0 c 0.621,0.461 1.283,0.957 1.979,1.491 l 0,0 c -0.908,1.545 -2.354,2.736 -4.078,3.317 l 0,0 c -0.074,-0.056 -0.154,-0.116 -0.241,-0.18 m 1.819,-5.694 c -0.114,-0.08 -0.228,-0.159 -0.343,-0.239 l 0,0 1.86,-0.959 c 0.642,0.324 1.295,0.649 1.946,0.969 l 0,0 c -0.084,0.62 -0.243,1.216 -0.469,1.778 l 0,0 c -1.043,-0.539 -2.031,-1.05 -2.994,-1.549 m 2.405,-1.656 0.049,-0.025 c 0.426,0.229 0.791,0.424 1.074,0.577 l 0,0 0,0.018 c -0.39,-0.198 -0.766,-0.389 -1.123,-0.57" />
    </clipPath>
    <clipPath
       id="clipPath22278"
       clipPathUnits="userSpaceOnUse">
      <path
         inkscape:connector-curvature="0"
         id="path22280"
         d="m 315.376,458.628 0.078,-0.04 c 0.115,0.08 0.229,0.159 0.343,0.239 l 0,0 c 0.945,0.657 1.884,1.325 2.801,1.99 l 0,0 0,10e-4 c -1.161,-0.827 -2.241,-1.553 -3.222,-2.19" />
    </clipPath>
    <clipPath
       id="clipPath22290"
       clipPathUnits="userSpaceOnUse">
      <path
         inkscape:connector-curvature="0"
         id="path22292"
         d="m 304.762,466.89 c -0.071,-0.11 -0.144,-0.218 -0.219,-0.324 l 0,0 3.293,0 c 0.004,0.106 0.009,0.215 0.013,0.324 l 0,0 -3.087,0 z" />
    </clipPath>
    <clipPath
       id="clipPath22302"
       clipPathUnits="userSpaceOnUse">
      <path
         inkscape:connector-curvature="0"
         id="path22304"
         d="m 313.593,466.89 0,-0.871 0,-0.58 0,-0.539 0.193,-0.062 0.125,-0.039 0.195,-0.062 c 0.037,-0.012 0.075,-0.025 0.113,-0.036 l 0,0 c 1.724,-0.581 3.17,-1.772 4.078,-3.317 l 0,0 c 0.108,-0.184 0.208,-0.372 0.301,-0.566 l 0,0 0,-10e-4 c 0.069,-0.145 0.133,-0.291 0.193,-0.441 l 0,0 c 0.226,-0.562 0.385,-1.158 0.469,-1.778 l 0,0 c 0.002,-0.016 0.003,-0.032 0.005,-0.047 l 0,0 c 0.034,-0.267 0.055,-0.537 0.06,-0.81 l 0,0 0,-0.018 c 0.001,-0.046 0.001,-0.093 0.001,-0.139 l 0,0 0,-0.993 1.474,-0.76 0,0.473 0,0.575 0,0.705 c -0.001,3.172 -1.643,5.96 -4.125,7.558 l 0,0 c -0.331,0.213 -0.679,0.405 -1.038,0.574 l 0,0 c -0.187,0.088 -0.377,0.169 -0.57,0.244 l 0,0 0,0.93 -1.474,0 z m -5.744,0 c -0.004,-0.109 -0.009,-0.218 -0.013,-0.324 l 0,0 -3.293,0 c -0.375,-0.532 -0.798,-1.024 -1.266,-1.473 l 0,0 5.982,0 0.023,0.712 c 0.012,0.347 0.025,0.711 0.042,1.085 l 0,0 -1.475,0 z" />
    </clipPath>
    <clipPath
       id="clipPath22314"
       clipPathUnits="userSpaceOnUse">
      <path
         inkscape:connector-curvature="0"
         id="path22316"
         d="m 244.698,466.89 0,-3.734 55.73,0 c 1.059,0.482 2.021,1.14 2.849,1.937 l 0,0 c 0.468,0.449 0.891,0.941 1.266,1.473 l 0,0 c 0.075,0.106 0.148,0.214 0.219,0.324 l 0,0 -60.064,0 z" />
    </clipPath>
    <clipPath
       id="clipPath22326"
       clipPathUnits="userSpaceOnUse">
      <path
         inkscape:connector-curvature="0"
         id="path22328"
         d="m 301.216,463.156 -0.788,0 -55.73,0 0,-11.982 80.683,0 4.447,0 -1.948,1.005 -2.206,1.137 -0.293,0.153 -4.581,2.362 -1.474,0.76 -1.075,0.555 -0.049,0.025 -0.641,0.33 -0.247,0.128 -1.86,0.959 -0.078,0.04 -0.629,0.324 -0.257,0.134 -0.039,0.019 -4.409,2.275 c -0.155,0.08 -0.312,0.156 -0.469,0.229 l 0,0 c -0.114,0.052 -0.228,0.103 -0.343,0.152 l 0,0 c -0.048,0.021 -0.095,0.041 -0.143,0.061 l 0,0 c -0.317,0.131 -0.636,0.25 -0.957,0.356 l 0,0 c -0.972,0.325 -1.947,0.544 -2.846,0.692 l 0,0 c -0.336,0.055 -0.662,0.1 -0.971,0.137 l 0,0 c -1.126,0.133 -2.056,0.158 -2.594,0.158 l 0,0 c -0.321,0 -0.503,-0.009 -0.503,-0.009" />
    </clipPath>
    <clipPath
       id="clipPath22338"
       clipPathUnits="userSpaceOnUse">
      <path
         inkscape:connector-curvature="0"
         id="path22340"
         d="m 325.381,451.174 -80.683,0 0,-21.306 2.088,0 2.87,0 4.019,0 24.206,0 1.543,0 5.852,0 0.112,0 6.668,0 5.284,0 0.495,0 1.677,0 1.019,0 3.944,0 2.055,0 2.692,0 0.479,0 0.142,0 0.875,0 0.34,0 0.061,0 3.621,0 0.028,0 1.21,0 0.187,0 2.761,0 0.682,0 c 0.241,0.045 0.554,0.123 0.923,0.237 l 0,0 c 0.232,0.072 0.486,0.16 0.757,0.262 l 0,0 c 1.737,0.655 4.208,1.947 6.343,4.142 l 0,0 c 2.026,2.082 3.752,4.978 4.269,8.915 l 0,0 c -0.009,0.65 -0.007,1.279 -0.012,1.875 l 0,0 c -0.015,1.452 -0.067,2.722 -0.392,3.706 l 0,0 c -0.447,1.357 -1.411,2.169 -3.501,2.169 l 0,0 -2.614,0 z m -16.89,-10.959 c 0,1.773 1.439,3.209 3.209,3.209 l 0,0 c 1.766,0 3.201,-1.436 3.201,-3.209 l 0,0 c 0,-1.767 -1.435,-3.204 -3.201,-3.204 l 0,0 c -1.77,0 -3.209,1.437 -3.209,3.204" />
    </clipPath>
    <clipPath
       id="clipPath22350"
       clipPathUnits="userSpaceOnUse">
      <path
         inkscape:connector-curvature="0"
         id="path22352"
         d="m 308.491,440.215 c 0,-1.767 1.439,-3.204 3.209,-3.204 l 0,0 c 1.766,0 3.201,1.437 3.201,3.204 l 0,0 c 0,1.773 -1.435,3.209 -3.201,3.209 l 0,0 c -1.77,0 -3.209,-1.436 -3.209,-3.209" />
    </clipPath>
    <clipPath
       id="clipPath22362"
       clipPathUnits="userSpaceOnUse">
      <path
         inkscape:connector-curvature="0"
         id="path22364"
         d="m 326.866,547.582 0,-2.782 c 0.658,0.38 1.39,0.621 2.167,0.681 l 0,0 0.002,2.101 -2.169,0 z m 0.022,-4.914 c 0.746,-1.172 1.203,-2.613 1.273,-4.176 l 0,0 0.864,0 0.006,5.257 c -0.781,-0.092 -1.515,-0.467 -2.143,-1.081 m 16.777,-71.361 2.079,2.08 -2.079,0.002 0,-2.082 z" />
    </clipPath>
    <clipPath
       id="clipPath22374"
       clipPathUnits="userSpaceOnUse">
      <path
         inkscape:connector-curvature="0"
         id="path22376"
         d="m 328.161,538.492 c 0.006,-0.136 0.009,-0.274 0.009,-0.413 l 0,0 c -0.001,-1.737 -0.479,-3.342 -1.304,-4.622 l 0,0 0,-0.173 c 0.111,-0.224 0.191,-0.467 0.236,-0.723 l 0,0 0,-0.003 c 0.001,-0.004 0.002,-0.007 0.003,-0.011 l 0,0 c 0.028,-0.168 0.041,-0.337 0.037,-0.506 l 0,0 c -0.009,-0.404 -0.107,-0.787 -0.276,-1.128 l 0,0 0,-20.438 2.124,0 0.035,28.017 -0.864,0 z m -1.295,-29.74 0,-7.688 2.112,0 0.01,7.688 -2.122,0 z m 0,-8.263 0,-8.263 2.101,0 0.01,8.263 -2.111,0 z m 0,-8.836 0,-8.263 2.09,0 0.01,8.263 -2.1,0 z m 0,-8.837 0,-8.263 6.387,0 c -2.573,1.492 -4.304,4.276 -4.299,7.464 l 0,0 10e-4,0.799 -2.089,0 z m 0,-8.837 0,-7.089 12.382,0 4.417,4.417 0,2.082 -6.111,0.007 c -1.095,10e-4 -2.144,0.208 -3.107,0.583 l 0,0 -7.581,0 z" />
    </clipPath>
    <clipPath
       id="clipPath22386"
       clipPathUnits="userSpaceOnUse">
      <path
         inkscape:connector-curvature="0"
         id="path22388"
         d="m 326.866,533.283 c 0.072,-0.144 0.129,-0.293 0.172,-0.444 l 0,0 c -0.044,0.154 -0.101,0.304 -0.172,0.445 l 0,0 0,-10e-4 z m 0.178,-0.462 c -0.002,0.006 -0.004,0.011 -0.006,0.018 l 0,0 c 0.002,-0.007 0.004,-0.012 0.006,-0.018 m 0.007,-0.026 c -0.003,0.009 -0.005,0.017 -0.007,0.026 l 0,0 c 0.002,-0.009 0.004,-0.017 0.007,-0.026 m 0.009,-0.037 c -0.003,0.012 -0.006,0.025 -0.009,0.037 l 0,0 c 0.003,-0.012 0.006,-0.025 0.009,-0.037 m 0.002,-0.008 c 0,0.002 -0.001,0.005 -0.002,0.008 l 0,0 c 10e-4,-0.003 0.002,-0.006 0.002,-0.008 m 0.04,-0.189 c -0.011,0.064 -0.024,0.127 -0.04,0.189 l 0,0 c 0.016,-0.063 0.029,-0.125 0.04,-0.189 m 0.003,-0.014 c -0.001,0.004 -0.002,0.007 -0.003,0.011 l 0,0 c 0.001,-0.004 0.002,-0.007 0.003,-0.011 m -0.239,-1.633 0,-10e-4 c 0.169,0.341 0.267,0.724 0.276,1.128 l 0,0 c -0.009,-0.389 -0.103,-0.775 -0.276,-1.127" />
    </clipPath>
    <clipPath
       id="clipPath22398"
       clipPathUnits="userSpaceOnUse">
      <path
         inkscape:connector-curvature="0"
         id="path22400"
         d="m 326.866,530.914 c 0.173,0.352 0.267,0.738 0.276,1.127 l 0,0 c 0.004,0.169 -0.009,0.338 -0.037,0.506 l 0,0 c -0.001,0.004 -0.002,0.007 -0.003,0.011 l 0,0 0,0.003 c -0.043,0.247 -0.121,0.491 -0.236,0.722 l 0,0 0,-2.369 z" />
    </clipPath>
    <clipPath
       id="clipPath22410"
       clipPathUnits="userSpaceOnUse">
      <path
         inkscape:connector-curvature="0"
         id="path22412"
         d="m 326.866,542.646 0,-9.189 c 0.825,1.28 1.303,2.885 1.304,4.622 l 0,0 c 0,0.139 -0.003,0.277 -0.009,0.413 l 0,0 c -0.07,1.563 -0.527,3.004 -1.273,4.176 l 0,0 c -0.007,-0.008 -0.014,-0.015 -0.022,-0.022" />
    </clipPath>
    <clipPath
       id="clipPath22422"
       clipPathUnits="userSpaceOnUse">
      <path
         inkscape:connector-curvature="0"
         id="path22424"
         d="m 326.866,544.8 0,-2.154 c 0.008,0.007 0.015,0.014 0.022,0.022 l 0,0 c 0.628,0.614 1.362,0.989 2.143,1.081 l 0,0 0.002,1.732 c -0.777,-0.06 -1.509,-0.301 -2.167,-0.681" />
    </clipPath>
    <clipPath
       id="clipPath22434"
       clipPathUnits="userSpaceOnUse">
      <path
         inkscape:connector-curvature="0"
         id="path22436"
         d="m 326.866,510.475 0,-1.723 2.122,0 0.002,1.723 -2.124,0 z" />
    </clipPath>
    <clipPath
       id="clipPath22446"
       clipPathUnits="userSpaceOnUse">
      <path
         inkscape:connector-curvature="0"
         id="path22448"
         d="m 326.866,501.064 0,-0.575 2.111,0 0.001,0.575 -2.112,0 z" />
    </clipPath>
    <clipPath
       id="clipPath22458"
       clipPathUnits="userSpaceOnUse">
      <path
         inkscape:connector-curvature="0"
         id="path22460"
         d="m 326.866,492.226 0,-0.573 2.1,0 10e-4,0.573 -2.101,0 z" />
    </clipPath>
    <clipPath
       id="clipPath22470"
       clipPathUnits="userSpaceOnUse">
      <path
         inkscape:connector-curvature="0"
         id="path22472"
         d="m 326.866,483.39 0,-0.574 2.089,0 0.001,0.574 -2.09,0 z" />
    </clipPath>
    <clipPath
       id="clipPath22482"
       clipPathUnits="userSpaceOnUse">
      <path
         inkscape:connector-curvature="0"
         id="path22484"
         d="m 326.866,474.553 0,-0.574 7.581,0 c -0.415,0.161 -0.814,0.353 -1.194,0.574 l 0,0 -6.387,0 z" />
    </clipPath>
    <clipPath
       id="clipPath22494"
       clipPathUnits="userSpaceOnUse">
      <path
         inkscape:connector-curvature="0"
         id="path22496"
         d="m 343.665,471.307 -4.417,-4.417 11.384,0 0,-4.197 2.672,0 0,0.477 0.819,0 0,10.206 -8.379,0.011 -2.079,-2.08 z" />
    </clipPath>
    <clipPath
       id="clipPath22506"
       clipPathUnits="userSpaceOnUse">
      <path
         inkscape:connector-curvature="0"
         id="path22508"
         d="m 326.866,466.89 0,-1.174 11.207,0 1.175,1.174 -12.382,0 z m 0,-1.748 0,-2.449 8.185,0 2.448,2.449 -10.633,0 z" />
    </clipPath>
    <clipPath
       id="clipPath22518"
       clipPathUnits="userSpaceOnUse">
      <path
         inkscape:connector-curvature="0"
         id="path22520"
         d="m 326.866,465.716 0,-0.574 10.633,0 0.574,0.574 -11.207,0 z" />
    </clipPath>
    <clipPath
       id="clipPath22530"
       clipPathUnits="userSpaceOnUse">
      <path
         inkscape:connector-curvature="0"
         id="path22532"
         d="m 339.248,466.89 -1.175,-1.174 -0.574,-0.574 -2.448,-2.449 15.581,0 0,4.197 -11.384,0 z" />
    </clipPath>
    <clipPath
       id="clipPath22542"
       clipPathUnits="userSpaceOnUse">
      <path
         inkscape:connector-curvature="0"
         id="path22544"
         d="m 329.035,547.582 -0.002,-2.101 -0.002,-1.732 -0.006,-5.257 -0.035,-28.017 -0.002,-1.723 -0.01,-7.688 -0.001,-0.575 -0.01,-8.263 -10e-4,-0.573 -0.01,-8.263 -0.001,-0.574 -10e-4,-0.799 c -0.005,-3.188 1.726,-5.972 4.299,-7.464 l 0,0 c 0.38,-0.221 0.779,-0.413 1.194,-0.574 l 0,0 c 0.963,-0.375 2.012,-0.582 3.107,-0.583 l 0,0 6.111,-0.007 2.079,-0.002 8.379,-0.011 0,27.076 -13.473,0.016 0.057,47.114 -11.672,0 z" />
    </clipPath>
    <clipPath
       id="clipPath22554"
       clipPathUnits="userSpaceOnUse">
      <path
         inkscape:connector-curvature="0"
         id="path22556"
         d="m 340.707,547.582 -0.057,-47.114 13.473,-0.016 0,47.13 -13.416,0 z" />
    </clipPath>
    <clipPath
       id="clipPath22566"
       clipPathUnits="userSpaceOnUse">
      <path
         inkscape:connector-curvature="0"
         id="path22568"
         d="m 353.304,454.273 0,-90.715 0.819,0 0,91.534 -0.819,-0.819 z" />
    </clipPath>
    <clipPath
       id="clipPath22578"
       clipPathUnits="userSpaceOnUse">
      <path
         inkscape:connector-curvature="0"
         id="path22580"
         d="m 353.304,462.693 0,-8.42 0.819,0.819 0,7.601 -0.819,0 z" />
    </clipPath>
    <clipPath
       id="clipPath22590"
       clipPathUnits="userSpaceOnUse">
      <path
         inkscape:connector-curvature="0"
         id="path22592"
         d="m 353.304,462.693 0.819,0 0,0.477 -0.819,0 0,-0.477 z" />
    </clipPath>
    <clipPath
       id="clipPath22602"
       clipPathUnits="userSpaceOnUse">
      <path
         inkscape:connector-curvature="0"
         id="path22604"
         d="m 327.02,381.5 0,-4.594 4.019,4.594 -4.019,0 z" />
    </clipPath>
    <clipPath
       id="clipPath22614"
       clipPathUnits="userSpaceOnUse">
      <path
         inkscape:connector-curvature="0"
         id="path22616"
         d="m 54,296.64 436.738,0 0,374.025 -436.738,0 0,-374.025 z" />
    </clipPath>
    <clipPath
       id="clipPath22836"
       clipPathUnits="userSpaceOnUse">
      <path
         inkscape:connector-curvature="0"
         id="path22838"
         d="m 284.82,478.366 0,-12.719 c -3.73,-0.787 -6.535,-4.096 -6.535,-8.063 l 0,0 0,-25.29 c 0,-4.553 3.695,-8.24 8.246,-8.24 l 0,0 25.289,0 c 4.551,0 8.243,3.687 8.243,8.24 l 0,0 0,25.29 c 0,3.679 -2.406,6.795 -5.734,7.855 l 0,0 0,12.728 c 0,8.411 -6.367,14.941 -14.757,15.225 l 0,0 c -0.149,0.005 -0.297,0.007 -0.444,0.007 l 0,0 c -8.021,0 -14.308,-7.259 -14.308,-15.033 m 5.811,-2.305 c 0,1.969 -0.047,3.774 0.557,5.692 l 0,0 c 1.11,3.586 4.823,5.701 8.384,5.825 l 0,0 c 10.9,0.365 9.234,-13.955 8.974,-21.749 l 0,0 -17.915,0 0,10.232 z m 5.493,-30.842 c -1.353,0.959 -2.24,2.533 -2.24,4.315 l 0,0 c 0,2.92 2.37,5.29 5.29,5.29 l 0,0 c 2.924,0 5.291,-2.37 5.291,-5.29 l 0,0 c 0,-1.782 -0.883,-3.356 -2.233,-4.315 l 0,0 4.576,-10.162 -15.267,0 4.583,10.162 z" />
    </clipPath>
    <clipPath
       id="clipPath23004"
       clipPathUnits="userSpaceOnUse">
      <path
         inkscape:connector-curvature="0"
         id="path23006"
         d="m 54,296.64 436.738,0 0,374.025 -436.738,0 0,-374.025 z" />
    </clipPath>
    <clipPath
       id="clipPath23044"
       clipPathUnits="userSpaceOnUse">
      <path
         inkscape:connector-curvature="0"
         id="path23046"
         d="m 130.343,337.891 113.492,0 0,73.314 -113.492,0 0,-73.314 z" />
    </clipPath>
    <clipPath
       id="clipPath23056"
       clipPathUnits="userSpaceOnUse">
      <path
         inkscape:connector-curvature="0"
         id="path23058"
         d="m 130.343,411.206 113.492,0 0,18.662 -113.492,0 0,-18.662 z" />
    </clipPath>
    <clipPath
       id="clipPath23068"
       clipPathUnits="userSpaceOnUse">
      <path
         inkscape:connector-curvature="0"
         id="path23070"
         d="m 130.343,463.156 113.492,0 0,3.605 -113.492,0 0,-3.605 z" />
    </clipPath>
    <clipPath
       id="clipPath23080"
       clipPathUnits="userSpaceOnUse">
      <path
         inkscape:connector-curvature="0"
         id="path23082"
         d="m 130.343,451.174 113.492,0 0,11.982 -113.492,0 0,-11.982 z" />
    </clipPath>
    <clipPath
       id="clipPath23092"
       clipPathUnits="userSpaceOnUse">
      <path
         inkscape:connector-curvature="0"
         id="path23094"
         d="m 130.343,451.174 0,-7.75 46.198,0 c 0.884,0 1.6,-0.718 1.6,-1.605 l 0,0 c 0,-0.885 -0.716,-1.604 -1.6,-1.604 l 0,0 -46.198,0 0,-10.347 113.492,0 0,21.306 -113.492,0 z" />
    </clipPath>
    <clipPath
       id="clipPath23104"
       clipPathUnits="userSpaceOnUse">
      <path
         inkscape:connector-curvature="0"
         id="path23106"
         d="m 130.343,443.424 0,-3.209 46.198,0 c 0.884,0 1.6,0.719 1.6,1.604 l 0,0 c 0,0.887 -0.716,1.605 -1.6,1.605 l 0,0 -46.198,0 z" />
    </clipPath>
    <clipPath
       id="clipPath23116"
       clipPathUnits="userSpaceOnUse">
      <path
         inkscape:connector-curvature="0"
         id="path23118"
         d="m 54,296.64 436.738,0 0,374.025 -436.738,0 0,-374.025 z" />
    </clipPath>
  </defs>
  <sodipodi:namedview
     id="base"
     pagecolor="#ffffff"
     bordercolor="#666666"
     borderopacity="1.0"
     inkscape:pageopacity="0.0"
     inkscape:pageshadow="2"
     inkscape:zoom="0.30636073"
     inkscape:cx="-467.45703"
     inkscape:cy="220.87613"
     inkscape:document-units="px"
     inkscape:current-layer="layer1"
     showgrid="false"
     inkscape:window-width="1871"
     inkscape:window-height="1056"
     inkscape:window-x="49"
     inkscape:window-y="24"
     inkscape:window-maximized="1" />
  <metadata
     id="metadata24520">
    <rdf:RDF>
      <cc:Work
         rdf:about="">
        <dc:format>image/svg+xml</dc:format>
        <dc:type
           rdf:resource="http://purl.org/dc/dcmitype/StillImage" />
        <dc:title />
      </cc:Work>
    </rdf:RDF>
  </metadata>
  <g
     inkscape:label="Layer 1"
     inkscape:groupmode="layer"
     id="layer1"
     transform="translate(0,-308.2677)">
    <path
       style="fill:none;stroke:#00467f;stroke-width:2.0917201;stroke-linecap:butt;stroke-linejoin:miter;stroke-miterlimit:4;stroke-opacity:1;stroke-dasharray:none"
       d="m 275.50823,384.529 c -5.3168,0 42.53464,0 42.53464,0"
       id="path30580"
       inkscape:connector-curvature="0" />
    <path
       style="fill:none;stroke:#00467f;stroke-width:2.0917201;stroke-linecap:butt;stroke-linejoin:miter;stroke-miterlimit:4;stroke-opacity:1;stroke-dasharray:none"
       d="m 275.50823,440.30821 c -5.3168,0 42.53464,0 42.53464,0"
       id="path30580-1-7-0-4"
       inkscape:connector-curvature="0" />
    <path
       style="fill:none;stroke:#00467f;stroke-width:2.0917201;stroke-linecap:butt;stroke-linejoin:miter;stroke-miterlimit:4;stroke-opacity:1;stroke-dasharray:none"
       d="m 275.50823,496.08741 c -5.3168,0 42.53464,0 42.53464,0"
       id="path30580-1-7-0-4-8-5-0-0"
       inkscape:connector-curvature="0" />
    <path
       style="fill:none;stroke:#00467f;stroke-width:2.0917201;stroke-linecap:butt;stroke-linejoin:miter;stroke-miterlimit:4;stroke-opacity:1;stroke-dasharray:none"
       d="m 275.50823,551.86662 c -5.3168,0 42.53464,0 42.53464,0"
       id="path30580-1-7-0-1"
       inkscape:connector-curvature="0" />
    <path
       style="fill:none;stroke:#00467f;stroke-width:2.0917201;stroke-linecap:butt;stroke-linejoin:miter;stroke-miterlimit:4;stroke-opacity:1;stroke-dasharray:none"
       d="m 275.50823,607.64582 c -5.3168,0 42.53464,0 42.53464,0"
       id="path30580-1-7-0-4-8-5-0-9"
       inkscape:connector-curvature="0" />
    <path
       style="fill:none;stroke:#00467f;stroke-width:2.0917201;stroke-linecap:butt;stroke-linejoin:miter;stroke-miterlimit:4;stroke-opacity:1;stroke-dasharray:none"
       d="m 275.50823,663.42503 c -5.3168,0 42.53464,0 42.53464,0"
       id="path30580-1-7-7"
       inkscape:connector-curvature="0" />
    <path
       style="fill:none;stroke:#00467f;stroke-width:2.0917201;stroke-linecap:butt;stroke-linejoin:miter;stroke-miterlimit:4;stroke-opacity:1;stroke-dasharray:none"
       d="m 275.50823,719.20423 c -5.3168,0 42.53464,0 42.53464,0"
       id="path30580-1-7-0-4-8-5-3"
       inkscape:connector-curvature="0" />
    <path
       style="fill:none;stroke:#00467f;stroke-width:2.0917201;stroke-linecap:butt;stroke-linejoin:miter;stroke-miterlimit:4;stroke-opacity:1;stroke-dasharray:none"
       d="m 275.50823,774.98343 c -5.3168,0 42.53464,0 42.53464,0"
       id="path30580-1-8-1"
       inkscape:connector-curvature="0" />
    <path
       style="fill:none;stroke:#00467f;stroke-width:2.0917201;stroke-linecap:butt;stroke-linejoin:miter;stroke-miterlimit:4;stroke-opacity:1;stroke-dasharray:none"
       d="m 275.50823,830.76263 c -5.3168,0 42.53464,0 42.53464,0"
       id="path30580-1-7-0-4-8-1-4"
       inkscape:connector-curvature="0" />
    <path
       style="fill:none;stroke:#00467f;stroke-width:2.0917201;stroke-linecap:butt;stroke-linejoin:miter;stroke-miterlimit:4;stroke-opacity:1;stroke-dasharray:none"
       d="m 784.8436,854.11868 c 0,-5.3168 0,42.53464 0,42.53464"
       id="path30580-1"
       inkscape:connector-curvature="0" />
    <path
       style="fill:none;stroke:#00467f;stroke-width:2.0917201;stroke-linecap:butt;stroke-linejoin:miter;stroke-miterlimit:4;stroke-opacity:1;stroke-dasharray:none"
       d="m 729.0644,854.11868 c 0,-5.3168 0,42.53464 0,42.53464"
       id="path30580-1-7-0-4-6"
       inkscape:connector-curvature="0" />
    <path
       style="fill:none;stroke:#00467f;stroke-width:2.0917201;stroke-linecap:butt;stroke-linejoin:miter;stroke-miterlimit:4;stroke-opacity:1;stroke-dasharray:none"
       d="m 673.28519,854.11868 c 0,-5.3168 0,42.53464 0,42.53464"
       id="path30580-1-7-0-4-8-5-0-0-48"
       inkscape:connector-curvature="0" />
    <path
       style="fill:none;stroke:#00467f;stroke-width:2.0917201;stroke-linecap:butt;stroke-linejoin:miter;stroke-miterlimit:4;stroke-opacity:1;stroke-dasharray:none"
       d="m 617.50598,854.11868 c 0,-5.3168 0,42.53464 0,42.53464"
       id="path30580-1-7-0-1-8"
       inkscape:connector-curvature="0" />
    <path
       style="fill:none;stroke:#00467f;stroke-width:2.0917201;stroke-linecap:butt;stroke-linejoin:miter;stroke-miterlimit:4;stroke-opacity:1;stroke-dasharray:none"
       d="m 561.72681,854.11868 c 0,-5.3168 0,42.53464 0,42.53464"
       id="path30580-1-7-0-4-8-5-0-9-3"
       inkscape:connector-curvature="0" />
    <path
       style="fill:none;stroke:#00467f;stroke-width:2.0917201;stroke-linecap:butt;stroke-linejoin:miter;stroke-miterlimit:4;stroke-opacity:1;stroke-dasharray:none"
       d="m 505.94754,854.11868 c 0,-5.3168 0,42.53464 0,42.53464"
       id="path30580-1-7-7-2"
       inkscape:connector-curvature="0" />
    <path
       style="fill:none;stroke:#00467f;stroke-width:2.0917201;stroke-linecap:butt;stroke-linejoin:miter;stroke-miterlimit:4;stroke-opacity:1;stroke-dasharray:none"
       d="m 450.1684,854.11868 c 0,-5.3168 0,42.53464 0,42.53464"
       id="path30580-1-7-0-4-8-5-3-2"
       inkscape:connector-curvature="0" />
    <path
       style="fill:none;stroke:#00467f;stroke-width:2.0917201;stroke-linecap:butt;stroke-linejoin:miter;stroke-miterlimit:4;stroke-opacity:1;stroke-dasharray:none"
       d="m 394.3892,854.11868 c 0,-5.3168 0,42.53464 0,42.53464"
       id="path30580-1-8-1-9"
       inkscape:connector-curvature="0" />
    <path
       style="fill:none;stroke:#00467f;stroke-width:2.0917201;stroke-linecap:butt;stroke-linejoin:miter;stroke-miterlimit:4;stroke-opacity:1;stroke-dasharray:none"
       d="m 338.60999,854.11868 c 0,-5.3168 0,42.53464 0,42.53464"
       id="path30580-1-7-0-4-8-1-4-7"
       inkscape:connector-curvature="0" />
    <path
       style="fill:none;stroke:#929496;stroke-width:3.48620033;stroke-linecap:butt;stroke-linejoin:miter;stroke-miterlimit:4;stroke-opacity:1;stroke-dasharray:none"
       d="m 816.90263,876.45317 -520.34605,0.0558 0,-520.07741"
       id="path25034-0"
       inkscape:connector-curvature="0"
       sodipodi:nodetypes="ccc" />
    <text
       id="text20432"
       x="1112.7634"
       y="853.74194"
       style="font-size:10.458601px">
      <tspan
         style="font-size:7.84395075px;font-variant:normal;font-weight:normal;font-stretch:normal;writing-mode:lr-tb;fill:#00467f;fill-opacity:1;fill-rule:nonzero;stroke:none;font-family:Interstate;-inkscape-font-specification:Interstate-Regular"
         x="1112.7634"
         y="853.74194"
         id="tspan20434">3</tspan>
    </text>
    <text
       id="text20436"
       x="42.389683"
       y="630.30756"
       style="font-size:29.69361115px">
      <tspan
         style="font-size:37.11701584px;font-variant:normal;font-weight:bold;font-stretch:condensed;writing-mode:lr-tb;fill:#00467f;fill-opacity:1;fill-rule:nonzero;stroke:none;font-family:Interstate;-inkscape-font-specification:Interstate-BlackCondensed"
         sodipodi:role="line"
         id="tspan20438"
         x="42.389683"
         y="630.30756">Risk Level</tspan>
    </text>
    <text
       id="text20436-8"
       x="460.00427"
       y="1005.0261"
       style="font-size:29.69361115px">
      <tspan
         style="font-size:37.11701584px;font-variant:normal;font-weight:bold;font-stretch:condensed;writing-mode:lr-tb;fill:#00467f;fill-opacity:1;fill-rule:nonzero;stroke:none;font-family:Interstate;-inkscape-font-specification:Interstate-BlackCondensed"
         sodipodi:role="line"
         id="tspan20438-1"
         x="460.00427"
         y="1005.0261">Likelihood</tspan>
    </text>
    <text
       id="text20436-80"
       x="190.92097"
       y="360.61655"
       style="font-size:17.44789886px;text-align:center;text-anchor:middle">
      <tspan
         style="font-size:21.80987358px;font-variant:normal;font-weight:bold;font-stretch:condensed;text-align:center;writing-mode:lr-tb;text-anchor:middle;fill:#00467f;fill-opacity:1;fill-rule:nonzero;stroke:none;font-family:Interstate;-inkscape-font-specification:Interstate-BlackCondensed"
         sodipodi:role="line"
         x="190.92097"
         y="360.61655"
         id="tspan33507">High</tspan>
    </text>
    <text
       id="text20436-80-9"
       x="179.89893"
       y="810.82837"
       style="font-size:17.44789886px;text-align:center;text-anchor:middle">
      <tspan
         style="font-size:21.80987358px;font-variant:normal;font-weight:bold;font-stretch:condensed;text-align:center;writing-mode:lr-tb;text-anchor:middle;fill:#00467f;fill-opacity:1;fill-rule:nonzero;stroke:none;font-family:Interstate;-inkscape-font-specification:Interstate-BlackCondensed"
         sodipodi:role="line"
         x="179.89893"
         y="810.82837"
         id="tspan33507-6">Low</tspan>
    </text>
    <text
       id="text20436-80-9-4"
       x="335.64377"
       y="927.64124"
       style="font-size:17.44789886px;text-align:center;text-anchor:middle">
      <tspan
         style="font-size:21.80987358px;font-variant:normal;font-weight:bold;font-stretch:condensed;text-align:center;writing-mode:lr-tb;text-anchor:middle;fill:#00467f;fill-opacity:1;fill-rule:nonzero;stroke:none;font-family:Interstate;-inkscape-font-specification:Interstate-BlackCondensed"
         sodipodi:role="line"
         x="335.64377"
         y="927.64124"
         id="tspan33507-6-3">unlikely</tspan>
    </text>
    <text
       id="text20436-80-9-4-4"
       x="784.84497"
       y="925.64667"
       style="font-size:17.44789886px;text-align:center;text-anchor:middle">
      <tspan
         style="font-size:21.80987358px;font-variant:normal;font-weight:bold;font-stretch:condensed;text-align:center;writing-mode:lr-tb;text-anchor:middle;fill:#00467f;fill-opacity:1;fill-rule:nonzero;stroke:none;font-family:Interstate;-inkscape-font-specification:Interstate-BlackCondensed"
         sodipodi:role="line"
         x="784.84497"
         y="925.64667"
         id="tspan33507-6-3-5">likely</tspan>
    </text>
    <text
       id="text20436-80-2"
       x="191.0609"
       y="381.35059"
       style="font-size:17.44789886px;text-align:center;text-anchor:middle">
      <tspan
         style="font-size:13.94480133px;font-variant:normal;font-weight:bold;font-stretch:condensed;text-align:center;writing-mode:lr-tb;text-anchor:middle;fill:#00467f;fill-opacity:1;fill-rule:nonzero;stroke:none;font-family:Interstate;-inkscape-font-specification:Interstate-BlackCondensed"
         sodipodi:role="line"
         x="191.0609"
         y="381.35059"
         id="tspan33507-9">(Risk to Life)</tspan>
    </text>
    <text
       id="text20436-80-9-0"
       x="180.45947"
       y="836.87671"
       style="font-size:17.44789886px;text-align:center;text-anchor:middle">
      <tspan
         style="font-size:13.94480133px;font-variant:normal;font-weight:bold;font-stretch:condensed;text-align:center;writing-mode:lr-tb;text-anchor:middle;fill:#00467f;fill-opacity:1;fill-rule:nonzero;stroke:none;font-family:Interstate;-inkscape-font-specification:Interstate-BlackCondensed"
         sodipodi:role="line"
         x="180.45947"
         y="836.87671"
         id="tspan33507-6-9">(Inconvienient)</tspan>
    </text>
    <text
       id="text20436-80-9-4-3"
       x="336.24695"
       y="949.41473"
       style="font-size:17.44789886px;text-align:center;text-anchor:middle">
      <tspan
         style="font-size:13.94480133px;font-variant:normal;font-weight:bold;font-stretch:condensed;text-align:center;writing-mode:lr-tb;text-anchor:middle;fill:#00467f;fill-opacity:1;fill-rule:nonzero;stroke:none;font-family:Interstate;-inkscape-font-specification:Interstate-BlackCondensed"
         sodipodi:role="line"
         x="336.24695"
         y="949.41473"
         id="tspan33507-6-3-2">(Will NOT happen in the next year)</tspan>
    </text>
    <text
       id="text20436-80-9-4-4-5"
       x="785.50671"
       y="925.64667"
       style="font-size:13.94480133px;text-align:center;text-anchor:middle">
      <tspan
         style="font-size:13.94480133px;font-variant:normal;font-weight:bold;font-stretch:condensed;text-align:center;writing-mode:lr-tb;text-anchor:middle;fill:#00467f;fill-opacity:1;fill-rule:nonzero;stroke:none;font-family:Interstate;-inkscape-font-specification:Interstate-BlackCondensed"
         sodipodi:role="line"
         x="785.50671"
         y="925.64667"
         id="tspan33503-1-2-3-2" />
      <tspan
         style="font-size:13.94480133px;font-variant:normal;font-weight:bold;font-stretch:condensed;text-align:center;writing-mode:lr-tb;text-anchor:middle;fill:#00467f;fill-opacity:1;fill-rule:nonzero;stroke:none;font-family:Interstate;-inkscape-font-specification:Interstate-BlackCondensed"
         sodipodi:role="line"
         x="785.50671"
         y="943.0777"
         id="tspan33507-6-3-5-6">(Will ABSOLUTELY happen in the next year)</tspan>
    </text>
  </g>
</svg>
