<?xml version="1.0" encoding="UTF-8" standalone="no"?>
<!-- Created with Inkscape (http://www.inkscape.org/) -->

<svg
   xmlns:dc="http://purl.org/dc/elements/1.1/"
   xmlns:cc="http://creativecommons.org/ns#"
   xmlns:rdf="http://www.w3.org/1999/02/22-rdf-syntax-ns#"
   xmlns:svg="http://www.w3.org/2000/svg"
   xmlns="http://www.w3.org/2000/svg"
   xmlns:sodipodi="http://sodipodi.sourceforge.net/DTD/sodipodi-0.dtd"
   xmlns:inkscape="http://www.inkscape.org/namespaces/inkscape"
   width="369.15625"
   height="229.1463"
   id="svg6241"
   version="1.1"
   inkscape:version="0.48.5 r10040"
   sodipodi:docname="user_device_assessment.svg">
  <defs
     id="defs6243" />
  <sodipodi:namedview
     id="base"
     pagecolor="#ffffff"
     bordercolor="#666666"
     borderopacity="1.0"
     inkscape:pageopacity="0.0"
     inkscape:pageshadow="2"
     inkscape:zoom="2.1598898"
     inkscape:cx="289.35419"
     inkscape:cy="97.357726"
     inkscape:document-units="px"
     inkscape:current-layer="layer1"
     showgrid="false"
     fit-margin-top="0"
     fit-margin-left="0"
     fit-margin-right="0"
     fit-margin-bottom="0"
     inkscape:window-width="1920"
     inkscape:window-height="1014"
     inkscape:window-x="0"
     inkscape:window-y="27"
     inkscape:window-maximized="1" />
  <metadata
     id="metadata6246">
    <rdf:RDF>
      <cc:Work
         rdf:about="">
        <dc:format>image/svg+xml</dc:format>
        <dc:type
           rdf:resource="http://purl.org/dc/dcmitype/StillImage" />
        <dc:title />
      </cc:Work>
    </rdf:RDF>
  </metadata>
  <g
     inkscape:label="Layer 1"
     inkscape:groupmode="layer"
     id="layer1"
     transform="translate(-186.84375,-457.7912)">
    <path
       inkscape:export-ydpi="300"
       inkscape:export-xdpi="300"
       inkscape:export-filename="/home/s2e/work/projects/OI3/SAFETAG/Art/SAFETAG_expertiese_map.png"
       sodipodi:nodetypes="cccc"
       inkscape:connector-curvature="0"
       id="path6927-3-9-6-2-6-2-0-2-6-8-1-8"
       d="m 279.45051,676.55631 45.07654,0 0,-70.63307 35.65939,0"
       style="fill:none;stroke:#79b84c;stroke-width:3;stroke-linecap:round;stroke-linejoin:miter;stroke-miterlimit:4;stroke-opacity:1;stroke-dasharray:none;stroke-dashoffset:0;display:inline" />
    <path
       style="fill:#ffffff;stroke:#0d5cab;stroke-width:3;stroke-miterlimit:4;stroke-opacity:1;stroke-dashoffset:0"
       d="m 290.14371,685.43313 -81.99054,0 0,-17.94818 81.99054,0 z"
       id="rect3001-01-0-3-7-0"
       inkscape:connector-curvature="0"
       sodipodi:nodetypes="ccccc" />
    <g
       id="text2993-6-16-1-3-61"
       style="font-size:10px;font-style:normal;font-weight:normal;text-align:center;line-height:125%;letter-spacing:0px;word-spacing:0px;text-anchor:middle;fill:#000000;fill-opacity:1;stroke:none;font-family:Sans"
       transform="translate(19.806715,0)">
      <path
         inkscape:connector-curvature="0"
         id="path4012"
         d="m 216.6879,673.7149 -1.33789,3.62793 2.68066,0 -1.34277,-3.62793 m -0.55664,-0.97167 1.11816,0 2.77832,7.29003 -1.02539,0 -0.66406,-1.87011 -3.28614,0 -0.66406,1.87011 -1.04004,0 2.78321,-7.29003" />
      <path
         inkscape:connector-curvature="0"
         id="path4014"
         d="m 224.53458,674.72565 0,0.84961 c -0.25391,-0.13021 -0.51759,-0.22786 -0.79102,-0.29297 -0.27344,-0.0651 -0.55664,-0.0977 -0.84961,-0.0977 -0.44596,1e-5 -0.78125,0.0684 -1.00586,0.20508 -0.22135,0.13672 -0.33203,0.3418 -0.33203,0.61523 0,0.20834 0.0797,0.37273 0.23926,0.49317 0.1595,0.11719 0.48014,0.22949 0.96191,0.33691 l 0.30762,0.0684 c 0.63802,0.13672 1.09049,0.33041 1.35742,0.58106 0.27018,0.24739 0.40527,0.59407 0.40528,1.04004 -1e-5,0.50781 -0.20183,0.90983 -0.60547,1.20605 -0.4004,0.29622 -0.95216,0.44434 -1.65528,0.44434 -0.29297,0 -0.59896,-0.0293 -0.91797,-0.0879 -0.31575,-0.0553 -0.64941,-0.13998 -1.00097,-0.25391 l 0,-0.92774 c 0.33203,0.17253 0.65918,0.30274 0.98144,0.39063 0.32227,0.0846 0.64128,0.12695 0.95703,0.12695 0.42318,0 0.7487,-0.0716 0.97657,-0.21484 0.22786,-0.14648 0.34179,-0.35156 0.34179,-0.61524 0,-0.24413 -0.083,-0.43131 -0.24902,-0.56152 -0.16276,-0.13021 -0.52246,-0.25553 -1.0791,-0.37598 l -0.3125,-0.0732 c -0.55664,-0.11718 -0.95866,-0.29622 -1.20606,-0.53711 -0.24739,-0.24413 -0.37109,-0.57779 -0.37109,-1.00097 0,-0.51432 0.18229,-0.91146 0.54688,-1.19141 0.36458,-0.27994 0.88215,-0.41992 1.55273,-0.41992 0.33203,0 0.64453,0.0244 0.9375,0.0732 0.29296,0.0488 0.56315,0.12208 0.81055,0.21973" />
      <path
         inkscape:connector-curvature="0"
         id="path4016"
         d="m 229.74942,674.72565 0,0.84961 c -0.25391,-0.13021 -0.51758,-0.22786 -0.79102,-0.29297 -0.27344,-0.0651 -0.55664,-0.0977 -0.8496,-0.0977 -0.44597,1e-5 -0.78126,0.0684 -1.00586,0.20508 -0.22136,0.13672 -0.33204,0.3418 -0.33204,0.61523 0,0.20834 0.0798,0.37273 0.23926,0.49317 0.15951,0.11719 0.48014,0.22949 0.96192,0.33691 l 0.30761,0.0684 c 0.63802,0.13672 1.09049,0.33041 1.35743,0.58106 0.27017,0.24739 0.40526,0.59407 0.40527,1.04004 -1e-5,0.50781 -0.20183,0.90983 -0.60547,1.20605 -0.40039,0.29622 -0.95215,0.44434 -1.65527,0.44434 -0.29297,0 -0.59896,-0.0293 -0.91797,-0.0879 -0.31576,-0.0553 -0.64942,-0.13998 -1.00098,-0.25391 l 0,-0.92774 c 0.33203,0.17253 0.65918,0.30274 0.98145,0.39063 0.32226,0.0846 0.64127,0.12695 0.95703,0.12695 0.42317,0 0.74869,-0.0716 0.97656,-0.21484 0.22786,-0.14648 0.34179,-0.35156 0.3418,-0.61524 -1e-5,-0.24413 -0.083,-0.43131 -0.24903,-0.56152 -0.16276,-0.13021 -0.52246,-0.25553 -1.0791,-0.37598 l -0.3125,-0.0732 c -0.55664,-0.11718 -0.95866,-0.29622 -1.20605,-0.53711 -0.2474,-0.24413 -0.3711,-0.57779 -0.3711,-1.00097 0,-0.51432 0.18229,-0.91146 0.54688,-1.19141 0.36458,-0.27994 0.88216,-0.41992 1.55273,-0.41992 0.33203,0 0.64453,0.0244 0.9375,0.0732 0.29297,0.0488 0.56315,0.12208 0.81055,0.21973" />
      <path
         inkscape:connector-curvature="0"
         id="path4018"
         d="m 236.15567,677.07428 0,0.43945 -4.13086,0 c 0.0391,0.61849 0.22461,1.0905 0.55664,1.41602 0.33529,0.32226 0.80078,0.4834 1.39649,0.4834 0.34504,0 0.6787,-0.0423 1.00097,-0.12696 0.32552,-0.0846 0.64778,-0.21158 0.9668,-0.38086 l 0,0.84961 c -0.32227,0.13672 -0.65267,0.24089 -0.99121,0.3125 -0.33855,0.0716 -0.68197,0.10743 -1.03028,0.10743 -0.87239,0 -1.56412,-0.25391 -2.07519,-0.76172 -0.50781,-0.50781 -0.76172,-1.19466 -0.76172,-2.06055 0,-0.89518 0.24089,-1.60481 0.72266,-2.12891 0.48502,-0.52733 1.13769,-0.79101 1.958,-0.79101 0.73568,0 1.31673,0.23763 1.74317,0.71289 0.42968,0.47201 0.64452,1.11491 0.64453,1.92871 m -0.89844,-0.26367 c -0.007,-0.49153 -0.14486,-0.88379 -0.41504,-1.17676 -0.26693,-0.29296 -0.62174,-0.43945 -1.06445,-0.43945 -0.5013,0 -0.90332,0.1416 -1.20605,0.4248 -0.29949,0.28321 -0.47201,0.68197 -0.51758,1.19629 l 3.20312,-0.005" />
      <path
         inkscape:connector-curvature="0"
         id="path4020"
         d="m 238.51895,673.01178 0,1.55273 1.85059,0 0,0.69825 -1.85059,0 0,2.96875 c 0,0.44596 0.0602,0.73242 0.18067,0.85937 0.12369,0.12696 0.37271,0.19043 0.74707,0.19043 l 0.92285,0 0,0.75195 -0.92285,0 c -0.69337,0 -1.17188,-0.12858 -1.43555,-0.38574 -0.26367,-0.26041 -0.39551,-0.73242 -0.39551,-1.41601 l 0,-2.96875 -0.65918,0 0,-0.69825 0.65918,0 0,-1.55273 0.90332,0" />
      <path
         inkscape:connector-curvature="0"
         id="path4022"
         d="m 245.04239,674.72565 0,0.84961 c -0.25391,-0.13021 -0.51758,-0.22786 -0.79102,-0.29297 -0.27344,-0.0651 -0.55664,-0.0977 -0.84961,-0.0977 -0.44596,1e-5 -0.78125,0.0684 -1.00586,0.20508 -0.22135,0.13672 -0.33203,0.3418 -0.33203,0.61523 0,0.20834 0.0797,0.37273 0.23926,0.49317 0.1595,0.11719 0.48014,0.22949 0.96192,0.33691 l 0.30761,0.0684 c 0.63802,0.13672 1.09049,0.33041 1.35742,0.58106 0.27018,0.24739 0.40527,0.59407 0.40528,1.04004 -1e-5,0.50781 -0.20183,0.90983 -0.60547,1.20605 -0.4004,0.29622 -0.95215,0.44434 -1.65527,0.44434 -0.29298,0 -0.59896,-0.0293 -0.91797,-0.0879 -0.31576,-0.0553 -0.64942,-0.13998 -1.00098,-0.25391 l 0,-0.92774 c 0.33203,0.17253 0.65918,0.30274 0.98145,0.39063 0.32226,0.0846 0.64127,0.12695 0.95703,0.12695 0.42317,0 0.74869,-0.0716 0.97656,-0.21484 0.22786,-0.14648 0.34179,-0.35156 0.3418,-0.61524 -1e-5,-0.24413 -0.083,-0.43131 -0.24903,-0.56152 -0.16276,-0.13021 -0.52246,-0.25553 -1.0791,-0.37598 l -0.3125,-0.0732 c -0.55664,-0.11718 -0.95866,-0.29622 -1.20605,-0.53711 -0.2474,-0.24413 -0.3711,-0.57779 -0.3711,-1.00097 0,-0.51432 0.18229,-0.91146 0.54688,-1.19141 0.36458,-0.27994 0.88216,-0.41992 1.55273,-0.41992 0.33203,0 0.64453,0.0244 0.9375,0.0732 0.29297,0.0488 0.56315,0.12208 0.81055,0.21973" />
    </g>
    <path
       inkscape:export-ydpi="300"
       inkscape:export-xdpi="300"
       inkscape:export-filename="/home/s2e/work/projects/OI3/SAFETAG/Art/SAFETAG_expertiese_map.png"
       sodipodi:nodetypes="cccc"
       inkscape:connector-curvature="0"
       id="path6927-3-9-6-2-6-2-0-2-6-8-6"
       d="m 279.45051,494.8 45.07654,0 0,70.63308 35.65939,0"
       style="fill:none;stroke:#79b84c;stroke-width:3;stroke-linecap:round;stroke-linejoin:miter;stroke-miterlimit:4;stroke-opacity:1;stroke-dasharray:none;stroke-dashoffset:0;display:inline" />
    <path
       style="fill:#ffffff;stroke:#0d5cab;stroke-width:3;stroke-miterlimit:4;stroke-opacity:1;stroke-dashoffset:0"
       d="m 290.14371,485.92319 -81.99054,0 0,17.94818 81.99054,0 z"
       id="rect3001-01-0-3-3"
       inkscape:connector-curvature="0"
       sodipodi:nodetypes="ccccc" />
    <g
       id="text2993-6-16-1-2"
       style="font-size:10px;font-style:normal;font-weight:normal;text-align:center;line-height:125%;letter-spacing:0px;word-spacing:0px;text-anchor:middle;fill:#000000;fill-opacity:1;stroke:none;font-family:Sans"
       transform="translate(19.806715,0)">
      <path
         inkscape:connector-curvature="0"
         id="path4025"
         d="m 217.19571,492.15314 -1.33789,3.62793 2.68066,0 -1.34277,-3.62793 m -0.55664,-0.97168 1.11816,0 2.77832,7.29004 -1.02539,0 -0.66406,-1.87012 -3.28613,0 -0.66407,1.87012 -1.04003,0 2.7832,-7.29004" />
      <path
         inkscape:connector-curvature="0"
         id="path4027"
         d="m 225.31583,493.21271 0,0.83984 c -0.25391,-0.13997 -0.50945,-0.24413 -0.76661,-0.3125 -0.25391,-0.0716 -0.51107,-0.10742 -0.77148,-0.10742 -0.58268,0 -1.03516,0.18555 -1.35742,0.55664 -0.32227,0.36784 -0.4834,0.88542 -0.4834,1.55273 0,0.66732 0.16113,1.18653 0.4834,1.55762 0.32226,0.36784 0.77474,0.55176 1.35742,0.55176 0.26041,0 0.51757,-0.0342 0.77148,-0.10254 0.25716,-0.0716 0.5127,-0.17741 0.76661,-0.31738 l 0,0.83008 c -0.25066,0.11718 -0.51108,0.20507 -0.78125,0.26367 -0.26693,0.0586 -0.55176,0.0879 -0.8545,0.0879 -0.82357,0 -1.47786,-0.25879 -1.96289,-0.77637 -0.48502,-0.51758 -0.72754,-1.21582 -0.72754,-2.09473 0,-0.89192 0.24414,-1.59342 0.73243,-2.10449 0.49153,-0.51106 1.16373,-0.76659 2.0166,-0.7666 0.27669,10e-6 0.54687,0.0293 0.81054,0.0879 0.26367,0.0553 0.51921,0.13998 0.76661,0.25391" />
      <path
         inkscape:connector-curvature="0"
         id="path4029"
         d="m 227.77676,491.45001 0,1.55274 1.85059,0 0,0.69824 -1.85059,0 0,2.96875 c 0,0.44596 0.0602,0.73242 0.18067,0.85937 0.12369,0.12696 0.37272,0.19043 0.74707,0.19043 l 0.92285,0 0,0.75196 -0.92285,0 c -0.69336,0 -1.17188,-0.12858 -1.43555,-0.38575 -0.26367,-0.26041 -0.39551,-0.73242 -0.39551,-1.41601 l 0,-2.96875 -0.65918,0 0,-0.69824 0.65918,0 0,-1.55274 0.90332,0" />
      <path
         inkscape:connector-curvature="0"
         id="path4031"
         d="m 232.93301,493.63263 c -0.48177,0 -0.86263,0.18881 -1.14257,0.56641 -0.27995,0.37435 -0.41993,0.88867 -0.41993,1.54296 0,0.6543 0.13835,1.17025 0.41504,1.54786 0.27995,0.37435 0.66244,0.56152 1.14746,0.56152 0.47852,0 0.85775,-0.1888 1.1377,-0.56641 0.27994,-0.3776 0.41992,-0.89192 0.41992,-1.54297 0,-0.64778 -0.13998,-1.16047 -0.41992,-1.53808 -0.27995,-0.38086 -0.65918,-0.57129 -1.1377,-0.57129 m 0,-0.76172 c 0.78125,1e-5 1.39486,0.25391 1.84082,0.76172 0.44596,0.50782 0.66894,1.21094 0.66895,2.10937 -1e-5,0.89519 -0.22299,1.59831 -0.66895,2.10938 -0.44596,0.50781 -1.05957,0.76172 -1.84082,0.76172 -0.7845,0 -1.39974,-0.25391 -1.8457,-0.76172 -0.44271,-0.51107 -0.66406,-1.21419 -0.66406,-2.10938 0,-0.89843 0.22135,-1.60155 0.66406,-2.10937 0.44596,-0.50781 1.0612,-0.76171 1.8457,-0.76172" />
      <path
         inkscape:connector-curvature="0"
         id="path4033"
         d="m 240.0961,493.84259 c -0.10092,-0.0586 -0.21159,-0.10091 -0.33203,-0.12695 -0.11719,-0.0293 -0.2474,-0.0439 -0.39063,-0.0439 -0.50781,10e-6 -0.89844,0.16602 -1.17187,0.49805 -0.27019,0.32878 -0.40528,0.80241 -0.40527,1.4209 l 0,2.88086 -0.90333,0 0,-5.46875 0.90333,0 0,0.84961 c 0.1888,-0.33203 0.43456,-0.5778 0.7373,-0.73731 0.30273,-0.16275 0.67057,-0.24413 1.10352,-0.24414 0.0618,10e-6 0.1302,0.005 0.20507,0.0147 0.0749,0.007 0.15788,0.0179 0.24903,0.0342 l 0.005,0.92285" />
      <path
         inkscape:connector-curvature="0"
         id="path4035"
         d="m 244.53458,493.16388 0,0.84961 c -0.25391,-0.1302 -0.51759,-0.22786 -0.79102,-0.29297 -0.27344,-0.0651 -0.55664,-0.0977 -0.84961,-0.0977 -0.44596,1e-5 -0.78125,0.0684 -1.00586,0.20508 -0.22135,0.13673 -0.33203,0.3418 -0.33203,0.61524 0,0.20833 0.0797,0.37272 0.23926,0.49316 0.1595,0.11719 0.48014,0.2295 0.96191,0.33691 l 0.30762,0.0684 c 0.63802,0.13673 1.09049,0.33041 1.35742,0.58106 0.27018,0.2474 0.40527,0.59408 0.40528,1.04004 -1e-5,0.50781 -0.20183,0.90983 -0.60547,1.20605 -0.4004,0.29623 -0.95216,0.44434 -1.65528,0.44434 -0.29297,0 -0.59896,-0.0293 -0.91797,-0.0879 -0.31575,-0.0553 -0.64941,-0.13998 -1.00097,-0.25391 l 0,-0.92773 c 0.33203,0.17252 0.65918,0.30273 0.98144,0.39062 0.32227,0.0846 0.64128,0.12696 0.95703,0.12696 0.42318,0 0.7487,-0.0716 0.97657,-0.21485 0.22786,-0.14648 0.34179,-0.35156 0.34179,-0.61523 0,-0.24414 -0.083,-0.43132 -0.24902,-0.56153 -0.16276,-0.1302 -0.52246,-0.25553 -1.0791,-0.37597 l -0.3125,-0.0732 c -0.55664,-0.11718 -0.95866,-0.29622 -1.20606,-0.5371 -0.24739,-0.24414 -0.37109,-0.5778 -0.37109,-1.00098 0,-0.51432 0.18229,-0.91145 0.54688,-1.19141 0.36458,-0.27994 0.88215,-0.41991 1.55273,-0.41992 0.33203,1e-5 0.64453,0.0244 0.9375,0.0732 0.29296,0.0488 0.56315,0.12208 0.81055,0.21973" />
    </g>
    <path
       inkscape:export-ydpi="300"
       inkscape:export-xdpi="300"
       inkscape:export-filename="/home/s2e/work/projects/OI3/SAFETAG/Art/SAFETAG_expertiese_map.png"
       sodipodi:nodetypes="cccc"
       inkscape:connector-curvature="0"
       id="path6927-3-9-6-2-6-2-0-2-9-7-46"
       d="m 279.45051,644.81224 34.06288,0 0,-47.78993 32.804,0"
       style="fill:none;stroke:#999999;stroke-width:3;stroke-linecap:round;stroke-linejoin:miter;stroke-miterlimit:4;stroke-opacity:1;stroke-dasharray:none;stroke-dashoffset:0;display:inline" />
    <path
       inkscape:export-ydpi="300"
       inkscape:export-xdpi="300"
       inkscape:export-filename="/home/s2e/work/projects/OI3/SAFETAG/Art/SAFETAG_expertiese_map.png"
       sodipodi:nodetypes="cccc"
       inkscape:connector-curvature="0"
       id="path6927-3-9-6-2-6-2-0-2-5-4-8-34"
       d="m 279.45051,615.01009 22.06288,0 0,-23.98776 44.804,0"
       style="fill:none;stroke:#79b84c;stroke-width:3;stroke-linecap:round;stroke-linejoin:miter;stroke-miterlimit:4;stroke-opacity:1;stroke-dasharray:none;stroke-dashoffset:0;display:inline" />
    <path
       inkscape:export-ydpi="300"
       inkscape:export-xdpi="300"
       inkscape:export-filename="/home/s2e/work/projects/OI3/SAFETAG/Art/SAFETAG_expertiese_map.png"
       sodipodi:nodetypes="cccc"
       inkscape:connector-curvature="0"
       id="path6927-3-9-6-2-6-2-0-2-6-2"
       d="m 279.45051,524.8 34.06288,0 0,47.78994 32.804,0"
       style="fill:none;stroke:#999999;stroke-width:3;stroke-linecap:round;stroke-linejoin:miter;stroke-miterlimit:4;stroke-opacity:1;stroke-dasharray:none;stroke-dashoffset:0;display:inline" />
    <path
       inkscape:export-ydpi="300"
       inkscape:export-xdpi="300"
       inkscape:export-filename="/home/s2e/work/projects/OI3/SAFETAG/Art/SAFETAG_expertiese_map.png"
       sodipodi:nodetypes="cc"
       inkscape:connector-curvature="0"
       id="path6927-3-9-6-2-6-2-0-2-7-4-9"
       d="m 279.45051,584.81224 66.86688,0"
       style="fill:none;stroke:#999999;stroke-width:3;stroke-linecap:round;stroke-linejoin:miter;stroke-miterlimit:4;stroke-opacity:1;stroke-dasharray:none;stroke-dashoffset:0;display:inline" />
    <path
       inkscape:export-ydpi="300"
       inkscape:export-xdpi="300"
       inkscape:export-filename="/home/s2e/work/projects/OI3/SAFETAG/Art/SAFETAG_expertiese_map.png"
       sodipodi:nodetypes="cccc"
       inkscape:connector-curvature="0"
       id="path6927-3-9-6-2-6-2-0-2-5-2-1"
       d="m 279.45051,554.60215 22.06288,0 0,23.98777 44.804,0"
       style="fill:none;stroke:#999999;stroke-width:3;stroke-linecap:round;stroke-linejoin:miter;stroke-miterlimit:4;stroke-opacity:1;stroke-dasharray:none;stroke-dashoffset:0;display:inline" />
    <path
       style="fill:#ffffff;stroke:#0d5cab;stroke-width:3;stroke-miterlimit:4;stroke-opacity:1;stroke-dashoffset:0"
       d="m 290.14371,605.9232 -81.99054,0 0,17.94817 81.99054,0 z"
       id="rect3001-38-48"
       inkscape:connector-curvature="0"
       sodipodi:nodetypes="ccccc" />
    <g
       id="text2993-1-14"
       style="font-size:10px;font-style:normal;font-weight:normal;text-align:center;line-height:125%;letter-spacing:0px;word-spacing:0px;text-anchor:middle;fill:#000000;fill-opacity:1;stroke:none;font-family:Sans"
       transform="translate(19.806715,0)">
      <path
         inkscape:connector-curvature="0"
         id="path4038"
         d="m 197.02975,617.65607 -2.7832,-7.29004 1.03027,0 2.30958,6.13769 2.31445,-6.13769 1.02539,0 -2.77832,7.29004 -1.11817,0" />
      <path
         inkscape:connector-curvature="0"
         id="path4040"
         d="m 201.17038,615.49786 0,-3.31054 0.89844,0 0,3.27636 c 0,0.51758 0.10091,0.90658 0.30273,1.167 0.20182,0.25716 0.50456,0.38574 0.9082,0.38574 0.48503,0 0.86751,-0.15462 1.14747,-0.46387 0.28319,-0.30924 0.4248,-0.73079 0.4248,-1.26465 l 0,-3.10058 0.89844,0 0,5.46875 -0.89844,0 0,-0.83985 c -0.2181,0.33203 -0.47201,0.57943 -0.76172,0.74219 -0.28646,0.15951 -0.62012,0.23926 -1.00098,0.23926 -0.62825,0 -1.10514,-0.19531 -1.43066,-0.58594 -0.32552,-0.39062 -0.48828,-0.96191 -0.48828,-1.71387 m 2.26074,-3.44238 0,0" />
      <path
         inkscape:connector-curvature="0"
         id="path4042"
         d="m 207.61081,610.05841 0.89844,0 0,7.59766 -0.89844,0 0,-7.59766" />
      <path
         inkscape:connector-curvature="0"
         id="path4044"
         d="m 214.93015,614.35529 0,3.30078 -0.89844,0 0,-3.27149 c -1e-5,-0.51757 -0.10092,-0.90494 -0.30274,-1.16211 -0.20182,-0.25715 -0.50456,-0.38573 -0.9082,-0.38574 -0.48503,10e-6 -0.86752,0.15463 -1.14746,0.46387 -0.27995,0.30925 -0.41992,0.7308 -0.41992,1.26465 l 0,3.09082 -0.90332,0 0,-5.46875 0.90332,0 0,0.84961 c 0.21484,-0.32877 0.46712,-0.57454 0.75683,-0.73731 0.29297,-0.16275 0.62988,-0.24413 1.01075,-0.24414 0.62825,10e-6 1.10351,0.19532 1.42578,0.58594 0.32226,0.38737 0.48339,0.95866 0.4834,1.71387" />
      <path
         inkscape:connector-curvature="0"
         id="path4046"
         d="m 221.40964,614.69708 0,0.43946 -4.13086,0 c 0.0391,0.61849 0.22461,1.09049 0.55664,1.41601 0.33528,0.32227 0.80078,0.4834 1.39648,0.4834 0.34505,0 0.67871,-0.0423 1.00098,-0.12695 0.32552,-0.0846 0.64778,-0.21159 0.9668,-0.38086 l 0,0.84961 c -0.32227,0.13672 -0.65268,0.24088 -0.99121,0.3125 -0.33855,0.0716 -0.68197,0.10742 -1.03028,0.10742 -0.8724,0 -1.56413,-0.25391 -2.07519,-0.76172 -0.50782,-0.50781 -0.76172,-1.19466 -0.76172,-2.06055 0,-0.89518 0.24088,-1.60481 0.72265,-2.1289 0.48503,-0.52734 1.1377,-0.79101 1.95801,-0.79102 0.73568,10e-6 1.31673,0.23764 1.74317,0.71289 0.42968,0.47201 0.64452,1.11491 0.64453,1.92871 m -0.89844,-0.26367 c -0.007,-0.49153 -0.14486,-0.88378 -0.41504,-1.17676 -0.26693,-0.29296 -0.62175,-0.43945 -1.06445,-0.43945 -0.50131,0 -0.90332,0.14161 -1.20606,0.4248 -0.29948,0.28321 -0.472,0.68197 -0.51758,1.19629 l 3.20313,-0.005" />
      <path
         inkscape:connector-curvature="0"
         id="path4048"
         d="m 226.05319,613.02716 c -0.10091,-0.0586 -0.21159,-0.10091 -0.33203,-0.12695 -0.11719,-0.0293 -0.2474,-0.0439 -0.39062,-0.0439 -0.50782,10e-6 -0.89844,0.16602 -1.17188,0.49805 -0.27018,0.32878 -0.40527,0.80241 -0.40527,1.4209 l 0,2.88086 -0.90332,0 0,-5.46875 0.90332,0 0,0.84961 c 0.1888,-0.33203 0.43457,-0.5778 0.7373,-0.73731 0.30273,-0.16275 0.67057,-0.24413 1.10352,-0.24414 0.0618,10e-6 0.1302,0.005 0.20508,0.0146 0.0749,0.007 0.15787,0.0179 0.24902,0.0342 l 0.005,0.92285" />
      <path
         inkscape:connector-curvature="0"
         id="path4050"
         d="m 229.49069,614.90704 c -0.72591,10e-6 -1.22884,0.083 -1.50879,0.24903 -0.27995,0.16601 -0.41992,0.44922 -0.41992,0.84961 0,0.31901 0.10417,0.57291 0.3125,0.76172 0.21159,0.18554 0.49805,0.27832 0.85938,0.27832 0.49804,0 0.8968,-0.17579 1.19629,-0.52735 0.30273,-0.35481 0.45409,-0.82519 0.4541,-1.41113 l 0,-0.2002 -0.89356,0 m 1.79199,-0.37109 0,3.12012 -0.89843,0 0,-0.83008 c -0.20509,0.33203 -0.46062,0.5778 -0.7666,0.7373 -0.306,0.15625 -0.68035,0.23438 -1.12305,0.23438 -0.5599,0 -1.00586,-0.15625 -1.33789,-0.46875 -0.32878,-0.31576 -0.49317,-0.73731 -0.49317,-1.26465 0,-0.61523 0.20508,-1.0791 0.61524,-1.3916 0.41341,-0.3125 1.02864,-0.46875 1.8457,-0.46875 l 1.25977,0 0,-0.0879 c -1e-5,-0.41341 -0.13673,-0.73242 -0.41016,-0.95703 -0.27019,-0.22786 -0.65104,-0.3418 -1.14258,-0.3418 -0.3125,0 -0.61686,0.0374 -0.91308,0.1123 -0.29623,0.0749 -0.58106,0.18718 -0.8545,0.33692 l 0,-0.83008 c 0.32878,-0.12695 0.64779,-0.22135 0.95704,-0.2832 0.30924,-0.0651 0.61034,-0.0977 0.90332,-0.0977 0.79101,10e-6 1.38183,0.20508 1.77246,0.61524 0.39062,0.41016 0.58593,1.0319 0.58593,1.86523" />
      <path
         inkscape:connector-curvature="0"
         id="path4052"
         d="m 237.06393,614.92657 c 0,-0.6608 -0.13672,-1.17838 -0.41015,-1.55273 -0.27019,-0.3776 -0.64291,-0.5664 -1.11817,-0.56641 -0.47526,1e-5 -0.84961,0.18881 -1.12304,0.56641 -0.27019,0.37435 -0.40528,0.89193 -0.40528,1.55273 0,0.66081 0.13509,1.18002 0.40528,1.55762 0.27343,0.37435 0.64778,0.56153 1.12304,0.56153 0.47526,0 0.84798,-0.18718 1.11817,-0.56153 0.27343,-0.3776 0.41015,-0.89681 0.41015,-1.55762 m -3.05664,-1.90917 c 0.1888,-0.32552 0.42643,-0.56641 0.71289,-0.72266 0.28972,-0.1595 0.63477,-0.23925 1.03516,-0.23926 0.66406,10e-6 1.2028,0.26368 1.61621,0.79102 0.41666,0.52734 0.625,1.2207 0.625,2.08007 0,0.85938 -0.20834,1.55274 -0.625,2.08008 -0.41341,0.52735 -0.95215,0.79102 -1.61621,0.79102 -0.40039,0 -0.74544,-0.0781 -1.03516,-0.23438 -0.28646,-0.1595 -0.52409,-0.40201 -0.71289,-0.72754 l 0,0.82032 -0.90332,0 0,-7.59766 0.90332,0 0,2.95899" />
      <path
         inkscape:connector-curvature="0"
         id="path4054"
         d="m 239.48581,612.18732 0.89844,0 0,5.46875 -0.89844,0 0,-5.46875 m 0,-2.12891 0.89844,0 0,1.1377 -0.89844,0 0,-1.1377" />
      <path
         inkscape:connector-curvature="0"
         id="path4056"
         d="m 242.25925,610.05841 0.89843,0 0,7.59766 -0.89843,0 0,-7.59766" />
      <path
         inkscape:connector-curvature="0"
         id="path4058"
         d="m 245.03268,612.18732 0.89844,0 0,5.46875 -0.89844,0 0,-5.46875 m 0,-2.12891 0.89844,0 0,1.1377 -0.89844,0 0,-1.1377" />
      <path
         inkscape:connector-curvature="0"
         id="path4060"
         d="m 248.69479,610.63458 0,1.55274 1.85059,0 0,0.69824 -1.85059,0 0,2.96875 c 0,0.44596 0.0602,0.73242 0.18067,0.85937 0.12369,0.12696 0.37272,0.19043 0.74707,0.19043 l 0.92285,0 0,0.75196 -0.92285,0 c -0.69336,0 -1.17188,-0.12858 -1.43555,-0.38575 -0.26367,-0.26041 -0.39551,-0.73242 -0.39551,-1.41601 l 0,-2.96875 -0.65918,0 0,-0.69824 0.65918,0 0,-1.55274 0.90332,0" />
      <path
         inkscape:connector-curvature="0"
         id="path4062"
         d="m 251.7319,612.18732 0.89844,0 0,5.46875 -0.89844,0 0,-5.46875 m 0,-2.12891 0.89844,0 0,1.1377 -0.89844,0 0,-1.1377" />
      <path
         inkscape:connector-curvature="0"
         id="path4064"
         d="m 259.18307,614.69708 0,0.43946 -4.13085,0 c 0.0391,0.61849 0.2246,1.09049 0.55664,1.41601 0.33528,0.32227 0.80077,0.4834 1.39648,0.4834 0.34505,0 0.67871,-0.0423 1.00098,-0.12695 0.32551,-0.0846 0.64778,-0.21159 0.96679,-0.38086 l 0,0.84961 c -0.32227,0.13672 -0.65267,0.24088 -0.99121,0.3125 -0.33854,0.0716 -0.68197,0.10742 -1.03027,0.10742 -0.8724,0 -1.56413,-0.25391 -2.0752,-0.76172 -0.50781,-0.50781 -0.76171,-1.19466 -0.76171,-2.06055 0,-0.89518 0.24088,-1.60481 0.72265,-2.1289 0.48503,-0.52734 1.13769,-0.79101 1.95801,-0.79102 0.73567,10e-6 1.31673,0.23764 1.74316,0.71289 0.42969,0.47201 0.64453,1.11491 0.64453,1.92871 m -0.89843,-0.26367 c -0.007,-0.49153 -0.14486,-0.88378 -0.41504,-1.17676 -0.26693,-0.29296 -0.62175,-0.43945 -1.06445,-0.43945 -0.50131,0 -0.90333,0.14161 -1.20606,0.4248 -0.29948,0.28321 -0.47201,0.68197 -0.51758,1.19629 l 3.20313,-0.005" />
      <path
         inkscape:connector-curvature="0"
         id="path4066"
         d="m 264.14401,612.34845 0,0.84961 c -0.25391,-0.1302 -0.51758,-0.22786 -0.79101,-0.29297 -0.27344,-0.0651 -0.55665,-0.0976 -0.84961,-0.0977 -0.44597,10e-6 -0.78125,0.0684 -1.00586,0.20508 -0.22136,0.13673 -0.33203,0.3418 -0.33203,0.61524 0,0.20833 0.0797,0.37272 0.23925,0.49316 0.15951,0.11719 0.48015,0.2295 0.96192,0.33691 l 0.30762,0.0684 c 0.63801,0.13673 1.09049,0.33041 1.35742,0.58106 0.27018,0.2474 0.40527,0.59408 0.40527,1.04004 0,0.50781 -0.20183,0.90983 -0.60547,1.20605 -0.40039,0.29623 -0.95215,0.44434 -1.65527,0.44434 -0.29297,0 -0.59896,-0.0293 -0.91797,-0.0879 -0.31576,-0.0553 -0.64941,-0.13998 -1.00098,-0.25391 l 0,-0.92773 c 0.33203,0.17252 0.65918,0.30273 0.98145,0.39062 0.32226,0.0846 0.64127,0.12696 0.95703,0.12696 0.42317,0 0.74869,-0.0716 0.97656,-0.21485 0.22786,-0.14648 0.3418,-0.35156 0.3418,-0.61523 0,-0.24414 -0.083,-0.43132 -0.24902,-0.56153 -0.16277,-0.1302 -0.52247,-0.25553 -1.07911,-0.37597 l -0.3125,-0.0732 c -0.55664,-0.11719 -0.95866,-0.29623 -1.20605,-0.53711 -0.2474,-0.24414 -0.37109,-0.5778 -0.37109,-1.00098 0,-0.51432 0.18229,-0.91145 0.54687,-1.19141 0.36458,-0.27994 0.88216,-0.41991 1.55274,-0.41992 0.33202,10e-6 0.64452,0.0244 0.9375,0.0732 0.29296,0.0488 0.56314,0.12208 0.81054,0.21973" />
    </g>
    <path
       style="fill:#ffffff;stroke:#999999;stroke-width:3;stroke-miterlimit:4;stroke-opacity:1;stroke-dashoffset:0"
       d="m 290.14371,575.9232 -81.99054,0 0,17.94818 81.99054,0 z"
       id="rect3001-0-8-9"
       inkscape:connector-curvature="0"
       sodipodi:nodetypes="ccccc" />
    <g
       id="text2993-3-6-7"
       style="font-size:10px;font-style:normal;font-weight:normal;text-align:center;line-height:125%;letter-spacing:0px;word-spacing:0px;text-anchor:middle;fill:#999999;fill-opacity:1;stroke:none;font-family:Sans"
       transform="translate(19.806715,0)">
      <path
         inkscape:connector-curvature="0"
         id="path4069"
         d="m 209.70309,581.33771 -1.33789,3.62793 2.68067,0 -1.34278,-3.62793 m -0.55664,-0.97168 1.11817,0 2.77832,7.29004 -1.02539,0 -0.66406,-1.87012 -3.28614,0 -0.66406,1.87012 -1.04004,0 2.7832,-7.29004" />
      <path
         inkscape:connector-curvature="0"
         id="path4071"
         d="m 217.82321,582.39728 0,0.83984 c -0.25391,-0.13997 -0.50944,-0.24413 -0.7666,-0.3125 -0.25391,-0.0716 -0.51107,-0.10742 -0.77148,-0.10742 -0.58269,0 -1.03516,0.18555 -1.35743,0.55664 -0.32226,0.36784 -0.4834,0.88542 -0.48339,1.55273 -1e-5,0.66732 0.16113,1.18653 0.48339,1.55762 0.32227,0.36784 0.77474,0.55176 1.35743,0.55176 0.26041,0 0.51757,-0.0342 0.77148,-0.10254 0.25716,-0.0716 0.51269,-0.17741 0.7666,-0.31738 l 0,0.83008 c -0.25065,0.11718 -0.51107,0.20507 -0.78125,0.26367 -0.26693,0.0586 -0.55176,0.0879 -0.85449,0.0879 -0.82357,0 -1.47787,-0.25879 -1.96289,-0.77637 -0.48503,-0.51758 -0.72754,-1.21582 -0.72754,-2.09473 0,-0.89192 0.24414,-1.59342 0.73242,-2.10449 0.49154,-0.51106 1.16374,-0.76659 2.0166,-0.7666 0.27669,1e-5 0.54687,0.0293 0.81055,0.0879 0.26367,0.0553 0.5192,0.13998 0.7666,0.25391" />
      <path
         inkscape:connector-curvature="0"
         id="path4073"
         d="m 220.28415,580.63458 0,1.55274 1.85059,0 0,0.69824 -1.85059,0 0,2.96875 c 0,0.44596 0.0602,0.73242 0.18066,0.85937 0.1237,0.12696 0.37272,0.19043 0.74707,0.19043 l 0.92286,0 0,0.75196 -0.92286,0 c -0.69336,0 -1.17187,-0.12858 -1.43554,-0.38575 -0.26368,-0.26041 -0.39551,-0.73242 -0.39551,-1.41601 l 0,-2.96875 -0.65918,0 0,-0.69824 0.65918,0 0,-1.55274 0.90332,0" />
      <path
         inkscape:connector-curvature="0"
         id="path4075"
         d="m 223.32126,582.18732 0.89844,0 0,5.46875 -0.89844,0 0,-5.46875 m 0,-2.12891 0.89844,0 0,1.1377 -0.89844,0 0,-1.1377" />
      <path
         inkscape:connector-curvature="0"
         id="path4077"
         d="m 225.45016,582.18732 0.95215,0 1.70899,4.58984 1.70898,-4.58984 0.95215,0 -2.05078,5.46875 -1.2207,0 -2.05079,-5.46875" />
      <path
         inkscape:connector-curvature="0"
         id="path4079"
         d="m 232.01266,582.18732 0.89844,0 0,5.46875 -0.89844,0 0,-5.46875 m 0,-2.12891 0.89844,0 0,1.1377 -0.89844,0 0,-1.1377" />
      <path
         inkscape:connector-curvature="0"
         id="path4081"
         d="m 235.67477,580.63458 0,1.55274 1.85059,0 0,0.69824 -1.85059,0 0,2.96875 c 0,0.44596 0.0602,0.73242 0.18067,0.85937 0.12369,0.12696 0.37272,0.19043 0.74707,0.19043 l 0.92285,0 0,0.75196 -0.92285,0 c -0.69336,0 -1.17188,-0.12858 -1.43555,-0.38575 -0.26367,-0.26041 -0.39551,-0.73242 -0.39551,-1.41601 l 0,-2.96875 -0.65918,0 0,-0.69824 0.65918,0 0,-1.55274 0.90332,0" />
      <path
         inkscape:connector-curvature="0"
         id="path4083"
         d="m 238.71188,582.18732 0.89844,0 0,5.46875 -0.89844,0 0,-5.46875 m 0,-2.12891 0.89844,0 0,1.1377 -0.89844,0 0,-1.1377" />
      <path
         inkscape:connector-curvature="0"
         id="path4085"
         d="m 246.16306,584.69708 0,0.43946 -4.13086,0 c 0.0391,0.61849 0.2246,1.09049 0.55664,1.41601 0.33528,0.32227 0.80078,0.4834 1.39648,0.4834 0.34505,0 0.67871,-0.0423 1.00098,-0.12695 0.32551,-0.0846 0.64778,-0.21159 0.96679,-0.38086 l 0,0.84961 c -0.32227,0.13672 -0.65267,0.24088 -0.99121,0.3125 -0.33854,0.0716 -0.68197,0.10742 -1.03027,0.10742 -0.8724,0 -1.56413,-0.25391 -2.0752,-0.76172 -0.50781,-0.50781 -0.76171,-1.19466 -0.76171,-2.06055 0,-0.89518 0.24088,-1.60481 0.72265,-2.1289 0.48503,-0.52734 1.1377,-0.79101 1.95801,-0.79102 0.73567,10e-6 1.31673,0.23764 1.74316,0.71289 0.42969,0.47201 0.64453,1.11491 0.64454,1.92871 m -0.89844,-0.26367 c -0.007,-0.49153 -0.14486,-0.88378 -0.41504,-1.17676 -0.26693,-0.29296 -0.62175,-0.43945 -1.06445,-0.43945 -0.50131,0 -0.90333,0.14161 -1.20606,0.4248 -0.29948,0.28321 -0.47201,0.68197 -0.51758,1.19629 l 3.20313,-0.005" />
      <path
         inkscape:connector-curvature="0"
         id="path4087"
         d="m 251.12399,582.34845 0,0.84961 c -0.25391,-0.1302 -0.51758,-0.22786 -0.79101,-0.29297 -0.27344,-0.0651 -0.55665,-0.0976 -0.84961,-0.0977 -0.44597,10e-6 -0.78125,0.0684 -1.00586,0.20508 -0.22136,0.13673 -0.33203,0.3418 -0.33203,0.61524 0,0.20833 0.0798,0.37272 0.23926,0.49316 0.1595,0.11719 0.48014,0.2295 0.96191,0.33691 l 0.30762,0.0684 c 0.63801,0.13673 1.09049,0.33041 1.35742,0.58106 0.27018,0.2474 0.40527,0.59408 0.40527,1.04004 0,0.50781 -0.20183,0.90983 -0.60547,1.20605 -0.40039,0.29623 -0.95215,0.44434 -1.65527,0.44434 -0.29297,0 -0.59896,-0.0293 -0.91797,-0.0879 -0.31576,-0.0553 -0.64941,-0.13998 -1.00098,-0.25391 l 0,-0.92773 c 0.33203,0.17252 0.65918,0.30273 0.98145,0.39062 0.32226,0.0846 0.64127,0.12696 0.95703,0.12696 0.42317,0 0.7487,-0.0716 0.97656,-0.21485 0.22786,-0.14648 0.3418,-0.35156 0.3418,-0.61523 0,-0.24414 -0.083,-0.43132 -0.24902,-0.56153 -0.16277,-0.1302 -0.52247,-0.25553 -1.0791,-0.37597 l -0.3125,-0.0732 c -0.55665,-0.11719 -0.95866,-0.29623 -1.20606,-0.53711 -0.2474,-0.24414 -0.37109,-0.5778 -0.37109,-1.00098 0,-0.51432 0.18229,-0.91145 0.54687,-1.19141 0.36458,-0.27994 0.88216,-0.41991 1.55274,-0.41992 0.33202,10e-6 0.64452,0.0244 0.9375,0.0732 0.29296,0.0488 0.56314,0.12208 0.81054,0.21973" />
    </g>
    <path
       style="fill:#ffffff;stroke:#999999;stroke-width:3;stroke-miterlimit:4;stroke-opacity:1;stroke-dashoffset:0"
       d="m 290.14371,635.9232 -81.99054,0 0,17.94817 81.99054,0 z"
       id="rect3001-05-1-2"
       inkscape:connector-curvature="0"
       sodipodi:nodetypes="ccccc" />
    <g
       id="text2993-8-6-48"
       style="font-size:10px;font-style:normal;font-weight:normal;text-align:center;line-height:125%;letter-spacing:0px;word-spacing:0px;text-anchor:middle;fill:#999999;fill-opacity:1;stroke:none;font-family:Sans"
       transform="translate(19.806715,0)">
      <path
         inkscape:connector-curvature="0"
         id="path4090"
         d="m 211.4072,644.17462 0,2.6709 1.58203,0 c 0.53059,0 0.92284,-0.10905 1.17676,-0.32715 0.25715,-0.22135 0.38573,-0.55826 0.38574,-1.01074 -1e-5,-0.45573 -0.12859,-0.79101 -0.38574,-1.00586 -0.25392,-0.2181 -0.64617,-0.32714 -1.17676,-0.32715 l -1.58203,0 m 0,-2.99805 0,2.19727 1.45996,0 c 0.48176,0 0.83984,-0.0895 1.07422,-0.26855 0.23762,-0.18229 0.35644,-0.45898 0.35644,-0.83008 0,-0.36784 -0.11882,-0.6429 -0.35644,-0.8252 -0.23438,-0.18228 -0.59246,-0.27343 -1.07422,-0.27344 l -1.45996,0 m -0.98633,-0.81054 2.51953,0 c 0.75195,10e-6 1.33137,0.15625 1.73828,0.46875 0.4069,0.3125 0.61035,0.75684 0.61035,1.33301 0,0.44596 -0.10417,0.80078 -0.3125,1.06445 -0.20834,0.26367 -0.51433,0.42806 -0.91797,0.49316 0.48502,0.10417 0.861,0.32227 1.12793,0.6543 0.27018,0.32878 0.40527,0.74056 0.40528,1.23535 -1e-5,0.65104 -0.22136,1.15397 -0.66407,1.50879 -0.44271,0.35482 -1.07259,0.53223 -1.88964,0.53223 l -2.61719,0 0,-7.29004" />
      <path
         inkscape:connector-curvature="0"
         id="path4092"
         d="m 219.72263,644.90704 c -0.72592,10e-6 -1.22885,0.083 -1.50879,0.24903 -0.27995,0.16601 -0.41993,0.44922 -0.41993,0.84961 0,0.31901 0.10417,0.57291 0.3125,0.76172 0.21159,0.18554 0.49805,0.27832 0.85938,0.27832 0.49804,0 0.89681,-0.17579 1.19629,-0.52735 0.30273,-0.35481 0.4541,-0.82519 0.4541,-1.41113 l 0,-0.2002 -0.89355,0 m 1.79199,-0.37109 0,3.12012 -0.89844,0 0,-0.83008 c -0.20508,0.33203 -0.46062,0.5778 -0.7666,0.7373 -0.30599,0.15625 -0.68034,0.23438 -1.12305,0.23438 -0.5599,0 -1.00586,-0.15625 -1.33789,-0.46875 -0.32878,-0.31576 -0.49316,-0.73731 -0.49316,-1.26465 0,-0.61523 0.20507,-1.0791 0.61523,-1.3916 0.41341,-0.3125 1.02865,-0.46875 1.8457,-0.46875 l 1.25977,0 0,-0.0879 c 0,-0.41341 -0.13672,-0.73242 -0.41016,-0.95703 -0.27018,-0.22786 -0.65104,-0.3418 -1.14257,-0.3418 -0.31251,0 -0.61687,0.0374 -0.91309,0.1123 -0.29623,0.0749 -0.58106,0.18718 -0.85449,0.33692 l 0,-0.83008 c 0.32877,-0.12695 0.64778,-0.22135 0.95703,-0.2832 0.30924,-0.0651 0.61035,-0.0977 0.90332,-0.0977 0.79101,10e-6 1.38183,0.20508 1.77246,0.61524 0.39062,0.41016 0.58593,1.0319 0.58594,1.86523" />
      <path
         inkscape:connector-curvature="0"
         id="path4094"
         d="m 226.53903,643.02716 c -0.10091,-0.0586 -0.21159,-0.10091 -0.33203,-0.12695 -0.11719,-0.0293 -0.2474,-0.0439 -0.39062,-0.0439 -0.50782,10e-6 -0.89844,0.16602 -1.17188,0.49805 -0.27018,0.32878 -0.40527,0.80241 -0.40527,1.4209 l 0,2.88086 -0.90332,0 0,-5.46875 0.90332,0 0,0.84961 c 0.1888,-0.33203 0.43457,-0.5778 0.7373,-0.73731 0.30273,-0.16275 0.67057,-0.24413 1.10352,-0.24414 0.0618,10e-6 0.1302,0.005 0.20508,0.0146 0.0749,0.007 0.15787,0.0179 0.24902,0.0342 l 0.005,0.92285" />
      <path
         inkscape:connector-curvature="0"
         id="path4096"
         d="m 230.48434,643.02716 c -0.10091,-0.0586 -0.21159,-0.10091 -0.33203,-0.12695 -0.11719,-0.0293 -0.2474,-0.0439 -0.39062,-0.0439 -0.50782,10e-6 -0.89844,0.16602 -1.17188,0.49805 -0.27018,0.32878 -0.40527,0.80241 -0.40527,1.4209 l 0,2.88086 -0.90332,0 0,-5.46875 0.90332,0 0,0.84961 c 0.1888,-0.33203 0.43457,-0.5778 0.7373,-0.73731 0.30274,-0.16275 0.67057,-0.24413 1.10352,-0.24414 0.0618,10e-6 0.1302,0.005 0.20508,0.0146 0.0749,0.007 0.15787,0.0179 0.24902,0.0342 l 0.005,0.92285" />
      <path
         inkscape:connector-curvature="0"
         id="path4098"
         d="m 231.43649,642.18732 0.89844,0 0,5.46875 -0.89844,0 0,-5.46875 m 0,-2.12891 0.89844,0 0,1.1377 -0.89844,0 0,-1.1377" />
      <path
         inkscape:connector-curvature="0"
         id="path4100"
         d="m 238.88766,644.69708 0,0.43946 -4.13085,0 c 0.0391,0.61849 0.2246,1.09049 0.55664,1.41601 0.33528,0.32227 0.80077,0.4834 1.39648,0.4834 0.34505,0 0.67871,-0.0423 1.00098,-0.12695 0.32551,-0.0846 0.64778,-0.21159 0.96679,-0.38086 l 0,0.84961 c -0.32227,0.13672 -0.65267,0.24088 -0.99121,0.3125 -0.33854,0.0716 -0.68197,0.10742 -1.03027,0.10742 -0.8724,0 -1.56413,-0.25391 -2.0752,-0.76172 -0.50781,-0.50781 -0.76172,-1.19466 -0.76171,-2.06055 -1e-5,-0.89518 0.24088,-1.60481 0.72265,-2.1289 0.48503,-0.52734 1.13769,-0.79101 1.95801,-0.79102 0.73567,10e-6 1.31673,0.23764 1.74316,0.71289 0.42969,0.47201 0.64453,1.11491 0.64453,1.92871 m -0.89843,-0.26367 c -0.007,-0.49153 -0.14486,-0.88378 -0.41504,-1.17676 -0.26693,-0.29296 -0.62175,-0.43945 -1.06445,-0.43945 -0.50131,0 -0.90333,0.14161 -1.20606,0.4248 -0.29948,0.28321 -0.47201,0.68197 -0.51758,1.19629 l 3.20313,-0.005" />
      <path
         inkscape:connector-curvature="0"
         id="path4102"
         d="m 243.53122,643.02716 c -0.10092,-0.0586 -0.21159,-0.10091 -0.33203,-0.12695 -0.11719,-0.0293 -0.2474,-0.0439 -0.39063,-0.0439 -0.50781,10e-6 -0.89844,0.16602 -1.17187,0.49805 -0.27019,0.32878 -0.40528,0.80241 -0.40528,1.4209 l 0,2.88086 -0.90332,0 0,-5.46875 0.90332,0 0,0.84961 c 0.1888,-0.33203 0.43457,-0.5778 0.73731,-0.73731 0.30273,-0.16275 0.67057,-0.24413 1.10352,-0.24414 0.0618,10e-6 0.1302,0.005 0.20507,0.0146 0.0749,0.007 0.15788,0.0179 0.24903,0.0342 l 0.005,0.92285" />
      <path
         inkscape:connector-curvature="0"
         id="path4104"
         d="m 247.9697,642.34845 0,0.84961 c -0.25391,-0.1302 -0.51759,-0.22786 -0.79102,-0.29297 -0.27344,-0.0651 -0.55664,-0.0976 -0.84961,-0.0977 -0.44596,10e-6 -0.78125,0.0684 -1.00586,0.20508 -0.22135,0.13673 -0.33203,0.3418 -0.33203,0.61524 0,0.20833 0.0797,0.37272 0.23926,0.49316 0.1595,0.11719 0.48014,0.2295 0.96191,0.33691 l 0.30762,0.0684 c 0.63802,0.13673 1.09049,0.33041 1.35742,0.58106 0.27018,0.2474 0.40527,0.59408 0.40527,1.04004 0,0.50781 -0.20182,0.90983 -0.60546,1.20605 -0.4004,0.29623 -0.95216,0.44434 -1.65528,0.44434 -0.29297,0 -0.59896,-0.0293 -0.91797,-0.0879 -0.31575,-0.0553 -0.64941,-0.13998 -1.00097,-0.25391 l 0,-0.92773 c 0.33203,0.17252 0.65918,0.30273 0.98144,0.39062 0.32227,0.0846 0.64128,0.12696 0.95703,0.12696 0.42318,0 0.7487,-0.0716 0.97657,-0.21485 0.22786,-0.14648 0.34179,-0.35156 0.34179,-0.61523 0,-0.24414 -0.083,-0.43132 -0.24902,-0.56153 -0.16276,-0.1302 -0.52246,-0.25553 -1.0791,-0.37597 l -0.3125,-0.0732 c -0.55664,-0.11719 -0.95866,-0.29623 -1.20606,-0.53711 -0.24739,-0.24414 -0.37109,-0.5778 -0.37109,-1.00098 0,-0.51432 0.18229,-0.91145 0.54687,-1.19141 0.36459,-0.27994 0.88216,-0.41991 1.55274,-0.41992 0.33203,10e-6 0.64453,0.0244 0.9375,0.0732 0.29296,0.0488 0.56315,0.12208 0.81055,0.21973" />
    </g>
    <path
       style="fill:#ffffff;stroke:#999999;stroke-width:3;stroke-miterlimit:4;stroke-opacity:1;stroke-dashoffset:0"
       d="m 290.14371,545.92318 -81.99054,0 0,17.94819 81.99054,0 z"
       id="rect3001-3-8-9"
       inkscape:connector-curvature="0"
       sodipodi:nodetypes="ccccc" />
    <g
       id="text2993-32-2-4"
       style="font-size:10px;font-style:normal;font-weight:normal;text-align:center;line-height:125%;letter-spacing:0px;word-spacing:0px;text-anchor:middle;fill:#999999;fill-opacity:1;stroke:none;font-family:Sans"
       transform="translate(19.806715,0)">
      <path
         inkscape:connector-curvature="0"
         id="path4107"
         d="m 213.78513,550.92755 0,1.04004 c -0.33204,-0.30924 -0.68686,-0.54036 -1.06446,-0.69336 -0.37435,-0.15299 -0.77311,-0.22948 -1.19629,-0.22949 -0.83333,10e-6 -1.47135,0.25554 -1.91406,0.7666 -0.44271,0.50782 -0.66406,1.24349 -0.66406,2.20703 0,0.96029 0.22135,1.69597 0.66406,2.20703 0.44271,0.50782 1.08073,0.76172 1.91406,0.76172 0.42318,0 0.82194,-0.0765 1.19629,-0.22949 0.3776,-0.15299 0.73242,-0.38411 1.06446,-0.69336 l 0,1.03027 c -0.34506,0.23438 -0.71127,0.41016 -1.09864,0.52735 -0.38412,0.11718 -0.79102,0.17578 -1.2207,0.17578 -1.10352,0 -1.97266,-0.33692 -2.60742,-1.01074 -0.63477,-0.67709 -0.95215,-1.59994 -0.95215,-2.76856 0,-1.17187 0.31738,-2.09472 0.95215,-2.76855 0.63476,-0.67708 1.5039,-1.01562 2.60742,-1.01563 0.43619,10e-6 0.84635,0.0586 1.23047,0.17578 0.38736,0.11394 0.75032,0.28647 1.08887,0.51758" />
      <path
         inkscape:connector-curvature="0"
         id="path4109"
         d="m 217.76462,554.90704 c -0.72592,10e-6 -1.22885,0.083 -1.50879,0.24903 -0.27995,0.16601 -0.41992,0.44922 -0.41992,0.84961 0,0.31901 0.10416,0.57291 0.3125,0.76172 0.21158,0.18554 0.49804,0.27832 0.85937,0.27832 0.49805,0 0.89681,-0.17579 1.19629,-0.52735 0.30273,-0.35481 0.4541,-0.82519 0.4541,-1.41113 l 0,-0.2002 -0.89355,0 m 1.79199,-0.37109 0,3.12012 -0.89844,0 0,-0.83008 c -0.20508,0.33203 -0.46061,0.5778 -0.7666,0.7373 -0.30599,0.15625 -0.68034,0.23438 -1.12305,0.23438 -0.55989,0 -1.00586,-0.15625 -1.33789,-0.46875 -0.32877,-0.31576 -0.49316,-0.73731 -0.49316,-1.26465 0,-0.61523 0.20508,-1.0791 0.61523,-1.3916 0.41341,-0.3125 1.02865,-0.46875 1.84571,-0.46875 l 1.25976,0 0,-0.0879 c 0,-0.41341 -0.13672,-0.73242 -0.41015,-0.95703 -0.27019,-0.22786 -0.65105,-0.3418 -1.14258,-0.3418 -0.3125,0 -0.61687,0.0374 -0.91309,0.1123 -0.29622,0.0749 -0.58105,0.18718 -0.85449,0.33692 l 0,-0.83008 c 0.32877,-0.12695 0.64778,-0.22135 0.95703,-0.2832 0.30924,-0.0651 0.61035,-0.0977 0.90332,-0.0977 0.79101,10e-6 1.38183,0.20508 1.77246,0.61524 0.39062,0.41016 0.58593,1.0319 0.58594,1.86523" />
      <path
         inkscape:connector-curvature="0"
         id="path4111"
         d="m 222.28122,556.83575 0,2.9004 -0.90332,0 0,-7.54883 0.90332,0 0,0.83008 c 0.1888,-0.32552 0.42643,-0.56641 0.71289,-0.72266 0.28971,-0.1595 0.63476,-0.23925 1.03516,-0.23926 0.66405,10e-6 1.20279,0.26368 1.61621,0.79102 0.41666,0.52734 0.62499,1.2207 0.625,2.08007 -1e-5,0.85938 -0.20834,1.55274 -0.625,2.08008 -0.41342,0.52735 -0.95216,0.79102 -1.61621,0.79102 -0.4004,0 -0.74545,-0.0781 -1.03516,-0.23438 -0.28646,-0.1595 -0.52409,-0.40201 -0.71289,-0.72754 m 3.05664,-1.90918 c 0,-0.6608 -0.13672,-1.17838 -0.41016,-1.55273 -0.27018,-0.3776 -0.6429,-0.5664 -1.11816,-0.56641 -0.47526,1e-5 -0.84961,0.18881 -1.12305,0.56641 -0.27018,0.37435 -0.40527,0.89193 -0.40527,1.55273 0,0.66081 0.13509,1.18002 0.40527,1.55762 0.27344,0.37435 0.64779,0.56153 1.12305,0.56153 0.47526,0 0.84798,-0.18718 1.11816,-0.56153 0.27344,-0.3776 0.41016,-0.89681 0.41016,-1.55762" />
      <path
         inkscape:connector-curvature="0"
         id="path4113"
         d="m 230.24509,554.90704 c -0.72592,10e-6 -1.22885,0.083 -1.50879,0.24903 -0.27995,0.16601 -0.41993,0.44922 -0.41992,0.84961 -1e-5,0.31901 0.10416,0.57291 0.3125,0.76172 0.21158,0.18554 0.49804,0.27832 0.85937,0.27832 0.49804,0 0.89681,-0.17579 1.19629,-0.52735 0.30273,-0.35481 0.4541,-0.82519 0.4541,-1.41113 l 0,-0.2002 -0.89355,0 m 1.79199,-0.37109 0,3.12012 -0.89844,0 0,-0.83008 c -0.20508,0.33203 -0.46061,0.5778 -0.7666,0.7373 -0.30599,0.15625 -0.68034,0.23438 -1.12305,0.23438 -0.55989,0 -1.00586,-0.15625 -1.33789,-0.46875 -0.32877,-0.31576 -0.49316,-0.73731 -0.49316,-1.26465 0,-0.61523 0.20508,-1.0791 0.61523,-1.3916 0.41341,-0.3125 1.02865,-0.46875 1.84571,-0.46875 l 1.25976,0 0,-0.0879 c 0,-0.41341 -0.13672,-0.73242 -0.41015,-0.95703 -0.27019,-0.22786 -0.65105,-0.3418 -1.14258,-0.3418 -0.31251,0 -0.61687,0.0374 -0.91309,0.1123 -0.29622,0.0749 -0.58105,0.18718 -0.85449,0.33692 l 0,-0.83008 c 0.32877,-0.12695 0.64778,-0.22135 0.95703,-0.2832 0.30924,-0.0651 0.61035,-0.0977 0.90332,-0.0977 0.79101,10e-6 1.38183,0.20508 1.77246,0.61524 0.39062,0.41016 0.58593,1.0319 0.58594,1.86523" />
      <path
         inkscape:connector-curvature="0"
         id="path4115"
         d="m 237.82809,552.39728 0,0.83984 c -0.25391,-0.13997 -0.50944,-0.24413 -0.7666,-0.3125 -0.25391,-0.0716 -0.51107,-0.10742 -0.77148,-0.10742 -0.58269,0 -1.03516,0.18555 -1.35742,0.55664 -0.32227,0.36784 -0.4834,0.88542 -0.4834,1.55273 0,0.66732 0.16113,1.18653 0.4834,1.55762 0.32226,0.36784 0.77473,0.55176 1.35742,0.55176 0.26041,0 0.51757,-0.0342 0.77148,-0.10254 0.25716,-0.0716 0.51269,-0.17741 0.7666,-0.31738 l 0,0.83008 c -0.25065,0.11718 -0.51107,0.20507 -0.78125,0.26367 -0.26693,0.0586 -0.55176,0.0879 -0.85449,0.0879 -0.82357,0 -1.47786,-0.25879 -1.96289,-0.77637 -0.48503,-0.51758 -0.72754,-1.21582 -0.72754,-2.09473 0,-0.89192 0.24414,-1.59342 0.73242,-2.10449 0.49154,-0.51106 1.16374,-0.76659 2.01661,-0.7666 0.27669,1e-5 0.54687,0.0293 0.81054,0.0879 0.26367,0.0553 0.5192,0.13998 0.7666,0.25391" />
      <path
         inkscape:connector-curvature="0"
         id="path4117"
         d="m 239.40036,552.18732 0.89844,0 0,5.46875 -0.89844,0 0,-5.46875 m 0,-2.12891 0.89844,0 0,1.1377 -0.89844,0 0,-1.1377" />
      <path
         inkscape:connector-curvature="0"
         id="path4119"
         d="m 243.06247,550.63458 0,1.55274 1.85059,0 0,0.69824 -1.85059,0 0,2.96875 c 0,0.44596 0.0602,0.73242 0.18066,0.85937 0.1237,0.12696 0.37272,0.19043 0.74707,0.19043 l 0.92286,0 0,0.75196 -0.92286,0 c -0.69336,0 -1.17187,-0.12858 -1.43554,-0.38575 -0.26368,-0.26041 -0.39551,-0.73242 -0.39551,-1.41601 l 0,-2.96875 -0.65918,0 0,-0.69824 0.65918,0 0,-1.55274 0.90332,0" />
      <path
         inkscape:connector-curvature="0"
         id="path4121"
         d="m 248.37497,558.16388 c -0.25391,0.65104 -0.50131,1.07584 -0.74219,1.27441 -0.24089,0.19857 -0.56315,0.29785 -0.96679,0.29786 l -0.71778,0 0,-0.75196 0.52735,0 c 0.24739,0 0.43945,-0.0586 0.57617,-0.17578 0.13671,-0.11719 0.28808,-0.39388 0.4541,-0.83008 l 0.16113,-0.41015 -2.21191,-5.38086 0.95215,0 1.70898,4.27734 1.70898,-4.27734 0.95215,0 -2.40234,5.97656" />
    </g>
    <path
       style="fill:#ffffff;stroke:#999999;stroke-width:3;stroke-miterlimit:4;stroke-opacity:1;stroke-dashoffset:0"
       d="m 290.14371,515.92319 -81.99054,0 0,17.94818 81.99054,0 z"
       id="rect3001-01-0-86"
       inkscape:connector-curvature="0"
       sodipodi:nodetypes="ccccc" />
    <g
       id="text2993-6-16-2"
       style="font-size:10px;font-style:normal;font-weight:normal;text-align:center;line-height:125%;letter-spacing:0px;word-spacing:0px;text-anchor:middle;fill:#999999;fill-opacity:1;stroke:none;font-family:Sans"
       transform="translate(19.806715,0)">
      <path
         inkscape:connector-curvature="0"
         id="path4124"
         d="m 210.67728,520.36603 6.16699,0 0,0.83008 -2.58789,0 0,6.45996 -0.99121,0 0,-6.45996 -2.58789,0 0,-0.83008" />
      <path
         inkscape:connector-curvature="0"
         id="path4126"
         d="m 222.30814,524.35529 0,3.30078 -0.89844,0 0,-3.27149 c -10e-6,-0.51757 -0.10092,-0.90494 -0.30274,-1.16211 -0.20182,-0.25715 -0.50456,-0.38573 -0.9082,-0.38574 -0.48503,10e-6 -0.86751,0.15463 -1.14746,0.46387 -0.27995,0.30925 -0.41992,0.7308 -0.41992,1.26465 l 0,3.09082 -0.90332,0 0,-7.59766 0.90332,0 0,2.97852 c 0.21484,-0.32877 0.46712,-0.57454 0.75683,-0.73731 0.29297,-0.16275 0.62988,-0.24413 1.01075,-0.24414 0.62825,10e-6 1.10351,0.19532 1.42578,0.58594 0.32226,0.38737 0.48339,0.95866 0.4834,1.71387" />
      <path
         inkscape:connector-curvature="0"
         id="path4128"
         d="m 227.27884,523.02716 c -0.10092,-0.0586 -0.21159,-0.10091 -0.33203,-0.12695 -0.11719,-0.0293 -0.2474,-0.0439 -0.39063,-0.0439 -0.50781,10e-6 -0.89844,0.16602 -1.17187,0.49805 -0.27019,0.32878 -0.40528,0.80241 -0.40528,1.4209 l 0,2.88086 -0.90332,0 0,-5.46875 0.90332,0 0,0.84961 c 0.1888,-0.33203 0.43457,-0.5778 0.73731,-0.73731 0.30273,-0.16275 0.67057,-0.24413 1.10351,-0.24414 0.0618,10e-6 0.13021,0.005 0.20508,0.0146 0.0749,0.007 0.15788,0.0179 0.24903,0.0342 l 0.005,0.92285" />
      <path
         inkscape:connector-curvature="0"
         id="path4130"
         d="m 232.69388,524.69708 0,0.43946 -4.13086,0 c 0.0391,0.61849 0.22461,1.09049 0.55664,1.41601 0.33528,0.32227 0.80078,0.4834 1.39648,0.4834 0.34505,0 0.67871,-0.0423 1.00098,-0.12695 0.32552,-0.0846 0.64778,-0.21159 0.9668,-0.38086 l 0,0.84961 c -0.32227,0.13672 -0.65268,0.24088 -0.99121,0.3125 -0.33855,0.0716 -0.68197,0.10742 -1.03028,0.10742 -0.8724,0 -1.56413,-0.25391 -2.07519,-0.76172 -0.50782,-0.50781 -0.76172,-1.19466 -0.76172,-2.06055 0,-0.89518 0.24088,-1.60481 0.72266,-2.1289 0.48502,-0.52734 1.13769,-0.79101 1.958,-0.79102 0.73568,10e-6 1.31673,0.23764 1.74317,0.71289 0.42968,0.47201 0.64452,1.11491 0.64453,1.92871 m -0.89844,-0.26367 c -0.007,-0.49153 -0.14486,-0.88378 -0.41504,-1.17676 -0.26693,-0.29296 -0.62175,-0.43945 -1.06445,-0.43945 -0.50131,0 -0.90332,0.14161 -1.20606,0.4248 -0.29948,0.28321 -0.472,0.68197 -0.51757,1.19629 l 3.20312,-0.005" />
      <path
         inkscape:connector-curvature="0"
         id="path4132"
         d="m 236.65384,524.90704 c -0.72592,10e-6 -1.22884,0.083 -1.50879,0.24903 -0.27995,0.16601 -0.41992,0.44922 -0.41992,0.84961 0,0.31901 0.10416,0.57291 0.3125,0.76172 0.21158,0.18554 0.49804,0.27832 0.85937,0.27832 0.49805,0 0.89681,-0.17579 1.19629,-0.52735 0.30273,-0.35481 0.4541,-0.82519 0.4541,-1.41113 l 0,-0.2002 -0.89355,0 m 1.79199,-0.37109 0,3.12012 -0.89844,0 0,-0.83008 c -0.20508,0.33203 -0.46061,0.5778 -0.7666,0.7373 -0.30599,0.15625 -0.68034,0.23438 -1.12304,0.23438 -0.5599,0 -1.00587,-0.15625 -1.3379,-0.46875 -0.32877,-0.31576 -0.49316,-0.73731 -0.49316,-1.26465 0,-0.61523 0.20508,-1.0791 0.61524,-1.3916 0.4134,-0.3125 1.02864,-0.46875 1.8457,-0.46875 l 1.25976,0 0,-0.0879 c 0,-0.41341 -0.13672,-0.73242 -0.41015,-0.95703 -0.27019,-0.22786 -0.65105,-0.3418 -1.14258,-0.3418 -0.3125,0 -0.61686,0.0374 -0.91309,0.1123 -0.29622,0.0749 -0.58105,0.18718 -0.85449,0.33692 l 0,-0.83008 c 0.32878,-0.12695 0.64779,-0.22135 0.95703,-0.2832 0.30925,-0.0651 0.61035,-0.0977 0.90332,-0.0977 0.79101,10e-6 1.38183,0.20508 1.77246,0.61524 0.39062,0.41016 0.58594,1.0319 0.58594,1.86523" />
      <path
         inkscape:connector-curvature="0"
         id="path4134"
         d="m 241.18997,520.63458 0,1.55274 1.85059,0 0,0.69824 -1.85059,0 0,2.96875 c 0,0.44596 0.0602,0.73242 0.18067,0.85937 0.12369,0.12696 0.37271,0.19043 0.74707,0.19043 l 0.92285,0 0,0.75196 -0.92285,0 c -0.69337,0 -1.17188,-0.12858 -1.43555,-0.38575 -0.26367,-0.26041 -0.39551,-0.73242 -0.39551,-1.41601 l 0,-2.96875 -0.65918,0 0,-0.69824 0.65918,0 0,-1.55274 0.90332,0" />
      <path
         inkscape:connector-curvature="0"
         id="path4136"
         d="m 247.71341,522.34845 0,0.84961 c -0.25391,-0.1302 -0.51758,-0.22786 -0.79102,-0.29297 -0.27344,-0.0651 -0.55664,-0.0976 -0.84961,-0.0977 -0.44596,10e-6 -0.78125,0.0684 -1.00585,0.20508 -0.22136,0.13673 -0.33204,0.3418 -0.33204,0.61524 0,0.20833 0.0797,0.37272 0.23926,0.49316 0.1595,0.11719 0.48014,0.2295 0.96192,0.33691 l 0.30761,0.0684 c 0.63802,0.13673 1.09049,0.33041 1.35742,0.58106 0.27018,0.2474 0.40527,0.59408 0.40528,1.04004 -1e-5,0.50781 -0.20183,0.90983 -0.60547,1.20605 -0.40039,0.29623 -0.95215,0.44434 -1.65527,0.44434 -0.29297,0 -0.59896,-0.0293 -0.91797,-0.0879 -0.31576,-0.0553 -0.64942,-0.13998 -1.00098,-0.25391 l 0,-0.92773 c 0.33203,0.17252 0.65918,0.30273 0.98145,0.39062 0.32226,0.0846 0.64127,0.12696 0.95703,0.12696 0.42317,0 0.74869,-0.0716 0.97656,-0.21485 0.22786,-0.14648 0.34179,-0.35156 0.3418,-0.61523 -1e-5,-0.24414 -0.083,-0.43132 -0.24903,-0.56153 -0.16276,-0.1302 -0.52246,-0.25553 -1.0791,-0.37597 l -0.3125,-0.0732 c -0.55664,-0.11719 -0.95866,-0.29623 -1.20605,-0.53711 -0.2474,-0.24414 -0.3711,-0.5778 -0.3711,-1.00098 0,-0.51432 0.18229,-0.91145 0.54688,-1.19141 0.36458,-0.27994 0.88216,-0.41991 1.55273,-0.41992 0.33203,10e-6 0.64453,0.0244 0.9375,0.0732 0.29297,0.0488 0.56315,0.12208 0.81055,0.21973" />
    </g>
    <path
       inkscape:export-ydpi="300"
       inkscape:export-xdpi="300"
       inkscape:export-filename="/home/s2e/work/projects/OI3/SAFETAG/Art/SAFETAG_expertiese_map.png"
       sodipodi:nodetypes="cccc"
       inkscape:connector-curvature="0"
       id="path6927-3-9-6-2-6-2-0-2-6-8-1-5-61"
       d="m 467.62068,676.55636 -45.07654,0 0,-70.63307 -35.65939,0"
       style="fill:none;stroke:#79b84c;stroke-width:3;stroke-linecap:round;stroke-linejoin:miter;stroke-miterlimit:4;stroke-opacity:1;stroke-dasharray:none;stroke-dashoffset:0;display:inline" />
    <path
       style="fill:#ffffff;stroke:#0d5cab;stroke-width:3;stroke-miterlimit:4;stroke-opacity:1;stroke-dashoffset:0"
       d="m 456.92748,685.43318 81.99054,0 0,-17.94818 -81.99054,0 z"
       id="rect3001-01-0-3-7-8-7"
       inkscape:connector-curvature="0"
       sodipodi:nodetypes="ccccc" />
    <text
       xml:space="preserve"
       style="font-size:10px;font-style:normal;font-weight:normal;text-align:center;line-height:125%;letter-spacing:0px;word-spacing:0px;text-anchor:middle;fill:#000000;fill-opacity:1;stroke:none;font-family:Sans"
       x="498.13022"
       y="680.03333"
       id="text2993-6-16-1-3-6-3"
       sodipodi:linespacing="125%"><tspan
         sodipodi:role="line"
         id="tspan2995-6-41-3-7-2-63"
         x="498.13022"
         y="680.03333">Assets</tspan></text>
    <path
       inkscape:export-ydpi="300"
       inkscape:export-xdpi="300"
       inkscape:export-filename="/home/s2e/work/projects/OI3/SAFETAG/Art/SAFETAG_expertiese_map.png"
       sodipodi:nodetypes="cccc"
       inkscape:connector-curvature="0"
       id="path6927-3-9-6-2-6-2-0-2-6-8-12-3"
       d="m 467.62068,494.80005 -45.07654,0 0,70.63308 -35.65939,0"
       style="fill:none;stroke:#999999;stroke-width:3;stroke-linecap:round;stroke-linejoin:miter;stroke-miterlimit:4;stroke-opacity:1;stroke-dasharray:none;stroke-dashoffset:0;display:inline" />
    <path
       style="fill:#ffffff;stroke:#999999;stroke-width:3;stroke-miterlimit:4;stroke-opacity:1;stroke-dashoffset:0"
       d="m 456.99299,485.92324 81.99054,0 0,17.94818 -81.99054,0 z"
       id="rect3001-01-0-3-5-3"
       inkscape:connector-curvature="0"
       sodipodi:nodetypes="ccccc" />
    <text
       xml:space="preserve"
       style="font-size:10px;font-style:normal;font-weight:normal;text-align:center;line-height:125%;letter-spacing:0px;word-spacing:0px;text-anchor:middle;fill:#999999;fill-opacity:1;stroke:none;font-family:Sans"
       x="498.13022"
       y="498.47156"
       id="text2993-6-16-1-1-5"
       sodipodi:linespacing="125%"><tspan
         sodipodi:role="line"
         id="tspan2995-6-41-3-0-8"
         x="498.13022"
         y="498.47156">Actors</tspan></text>
    <path
       inkscape:export-ydpi="300"
       inkscape:export-xdpi="300"
       inkscape:export-filename="/home/s2e/work/projects/OI3/SAFETAG/Art/SAFETAG_expertiese_map.png"
       sodipodi:nodetypes="cccc"
       inkscape:connector-curvature="0"
       id="path6927-3-9-6-2-6-2-0-2-9-28"
       d="m 467.75163,644.81224 -34.06288,0 0,-47.78993 -32.804,0"
       style="fill:none;stroke:#79b84c;stroke-width:3;stroke-linecap:round;stroke-linejoin:miter;stroke-miterlimit:4;stroke-opacity:1;stroke-dasharray:none;stroke-dashoffset:0;display:inline" />
    <path
       inkscape:export-ydpi="300"
       inkscape:export-xdpi="300"
       inkscape:export-filename="/home/s2e/work/projects/OI3/SAFETAG/Art/SAFETAG_expertiese_map.png"
       sodipodi:nodetypes="cccc"
       inkscape:connector-curvature="0"
       id="path6927-3-9-6-2-6-2-0-2-5-4-2"
       d="m 467.75163,615.01009 -22.06288,0 0,-23.98776 -44.804,0"
       style="fill:none;stroke:#79b84c;stroke-width:3;stroke-linecap:round;stroke-linejoin:miter;stroke-miterlimit:4;stroke-opacity:1;stroke-dasharray:none;stroke-dashoffset:0;display:inline" />
    <path
       inkscape:export-ydpi="300"
       inkscape:export-xdpi="300"
       inkscape:export-filename="/home/s2e/work/projects/OI3/SAFETAG/Art/SAFETAG_expertiese_map.png"
       sodipodi:nodetypes="cccc"
       inkscape:connector-curvature="0"
       id="path6927-3-9-6-2-6-2-0-2-59"
       d="m 467.75163,524.8 -34.06288,0 0,47.78994 -32.804,0"
       style="fill:none;stroke:#999999;stroke-width:3;stroke-linecap:round;stroke-linejoin:miter;stroke-miterlimit:4;stroke-opacity:1;stroke-dasharray:none;stroke-dashoffset:0;display:inline" />
    <path
       inkscape:export-ydpi="300"
       inkscape:export-xdpi="300"
       inkscape:export-filename="/home/s2e/work/projects/OI3/SAFETAG/Art/SAFETAG_expertiese_map.png"
       sodipodi:nodetypes="cc"
       inkscape:connector-curvature="0"
       id="path6927-3-9-6-2-6-2-0-2-7-81"
       d="m 467.75163,584.81224 -66.86688,0"
       style="fill:none;stroke:#79b84c;stroke-width:3;stroke-linecap:round;stroke-linejoin:miter;stroke-miterlimit:4;stroke-opacity:1;stroke-dasharray:none;stroke-dashoffset:0;display:inline" />
    <path
       inkscape:export-ydpi="300"
       inkscape:export-xdpi="300"
       inkscape:export-filename="/home/s2e/work/projects/OI3/SAFETAG/Art/SAFETAG_expertiese_map.png"
       sodipodi:nodetypes="cccc"
       inkscape:connector-curvature="0"
       id="path6927-3-9-6-2-6-2-0-2-5-24"
       d="m 467.75163,554.60215 -22.06288,0 0,23.98777 -44.804,0"
       style="fill:none;stroke:#79b84c;stroke-width:3;stroke-linecap:round;stroke-linejoin:miter;stroke-miterlimit:4;stroke-opacity:1;stroke-dasharray:none;stroke-dashoffset:0;display:inline" />
    <path
       style="fill:#ffffff;stroke:#0d5cab;stroke-width:3;stroke-miterlimit:4;stroke-opacity:1;stroke-dashoffset:0"
       d="m 457.05843,605.9232 81.99054,0 0,17.94817 -81.99054,0 z"
       id="rect3001-6"
       inkscape:connector-curvature="0"
       sodipodi:nodetypes="ccccc" />
    <text
       xml:space="preserve"
       style="font-size:10px;font-style:normal;font-weight:normal;text-align:center;line-height:125%;letter-spacing:0px;word-spacing:0px;text-anchor:middle;fill:#000000;fill-opacity:1;stroke:none;font-family:Sans"
       x="498.2612"
       y="617.65607"
       id="text2993-36"
       sodipodi:linespacing="125%"><tspan
         sodipodi:role="line"
         id="tspan2995-01"
         x="498.2612"
         y="617.65607">Vulnerabilities</tspan></text>
    <path
       style="fill:#ffffff;stroke:#0d5cab;stroke-width:3;stroke-miterlimit:4;stroke-opacity:1;stroke-dashoffset:0"
       d="m 457.05843,575.9232 81.99054,0 0,17.94818 -81.99054,0 z"
       id="rect3001-0-9"
       inkscape:connector-curvature="0"
       sodipodi:nodetypes="ccccc" />
    <text
       xml:space="preserve"
       style="font-size:10px;font-style:normal;font-weight:normal;text-align:center;line-height:125%;letter-spacing:0px;word-spacing:0px;text-anchor:middle;fill:#000000;fill-opacity:1;stroke:none;font-family:Sans"
       x="497.80954"
       y="587.65607"
       id="text2993-3-60"
       sodipodi:linespacing="125%"><tspan
         sodipodi:role="line"
         id="tspan2995-3-9"
         x="497.80954"
         y="587.65607">Activities</tspan></text>
    <path
       style="fill:#ffffff;stroke:#0d5cab;stroke-width:3;stroke-miterlimit:4;stroke-opacity:1;stroke-dashoffset:0"
       d="m 457.05843,635.9232 81.99054,0 0,17.94817 -81.99054,0 z"
       id="rect3001-05-3"
       inkscape:connector-curvature="0"
       sodipodi:nodetypes="ccccc" />
    <text
       xml:space="preserve"
       style="font-size:10px;font-style:normal;font-weight:normal;text-align:center;line-height:125%;letter-spacing:0px;word-spacing:0px;text-anchor:middle;fill:#000000;fill-opacity:1;stroke:none;font-family:Sans"
       x="497.80954"
       y="647.65607"
       id="text2993-8-7"
       sodipodi:linespacing="125%"><tspan
         sodipodi:role="line"
         id="tspan2995-4-19"
         x="497.80954"
         y="647.65607">Barriers</tspan></text>
    <path
       style="fill:#ffffff;stroke:#0d5cab;stroke-width:3;stroke-miterlimit:4;stroke-opacity:1;stroke-dashoffset:0"
       d="m 457.05843,545.92319 81.99054,0 0,17.94818 -81.99054,0 z"
       id="rect3001-3-6"
       inkscape:connector-curvature="0"
       sodipodi:nodetypes="ccccc" />
    <text
       xml:space="preserve"
       style="font-size:10px;font-style:normal;font-weight:normal;text-align:center;line-height:125%;letter-spacing:0px;word-spacing:0px;text-anchor:middle;fill:#000000;fill-opacity:1;stroke:none;font-family:Sans"
       x="497.92184"
       y="557.65607"
       id="text2993-32-9"
       sodipodi:linespacing="125%"><tspan
         sodipodi:role="line"
         id="tspan2995-0-9"
         x="497.92184"
         y="557.65607">Capacity</tspan></text>
    <path
       style="fill:#ffffff;stroke:#999999;stroke-width:3;stroke-miterlimit:4;stroke-opacity:1;stroke-dashoffset:0"
       d="m 457.05843,515.92319 81.99054,0 0,17.94818 -81.99054,0 z"
       id="rect3001-01-2"
       inkscape:connector-curvature="0"
       sodipodi:nodetypes="ccccc" />
    <text
       xml:space="preserve"
       style="font-size:10px;font-style:normal;font-weight:normal;text-align:center;line-height:125%;letter-spacing:0px;word-spacing:0px;text-anchor:middle;fill:#999999;fill-opacity:1;stroke:none;font-family:Sans"
       x="498.31491"
       y="527.65607"
       id="text2993-6-7"
       sodipodi:linespacing="125%"><tspan
         sodipodi:role="line"
         id="tspan2995-6-7"
         x="498.31491"
         y="527.65607">Threats</tspan></text>
    <rect
       style="fill:#ffffff;fill-opacity:1;stroke:#0d5cab;stroke-width:2.43083715;stroke-miterlimit:4;stroke-opacity:1;stroke-dasharray:none;stroke-dashoffset:0"
       id="rect5221-8"
       width="66.419563"
       height="52.261951"
       x="340.21271"
       y="559.58209" />
    <text
       xml:space="preserve"
       style="font-size:15px;font-style:normal;font-weight:bold;text-align:center;line-height:125%;letter-spacing:0px;word-spacing:0px;text-anchor:middle;fill:#000000;fill-opacity:1;stroke:none;font-family:Sans;-inkscape-font-specification:Sans Bold"
       x="248.81886"
       y="476.52563"
       id="text2993-6-16-1-6"
       sodipodi:linespacing="125%"><tspan
         sodipodi:role="line"
         id="tspan2995-6-41-3-6"
         x="248.81886"
         y="476.52563">Information</tspan></text>
    <text
       xml:space="preserve"
       style="font-size:15px;font-style:normal;font-weight:bold;text-align:center;line-height:125%;letter-spacing:0px;word-spacing:0px;text-anchor:middle;fill:#000000;fill-opacity:1;stroke:none;font-family:Sans;-inkscape-font-specification:Sans Bold"
       x="497.65866"
       y="477.69958"
       id="text2993-6-16-1-6-3-1"
       sodipodi:linespacing="125%"><tspan
         sodipodi:role="line"
         id="tspan2995-6-41-3-6-7-9"
         x="497.65866"
         y="477.69958">Results</tspan></text>
    <text
       xml:space="preserve"
       style="font-size:15px;font-style:normal;font-weight:bold;text-align:center;line-height:125%;letter-spacing:0px;word-spacing:0px;text-anchor:middle;fill:#000000;fill-opacity:1;stroke:none;font-family:Sans;-inkscape-font-specification:Sans Bold"
       x="374.31769"
       y="552.26367"
       id="text2993-6-16-1-6-0"
       sodipodi:linespacing="125%"><tspan
         sodipodi:role="line"
         id="tspan2995-6-41-3-6-0"
         x="374.31769"
         y="552.26367">Activity</tspan></text>
    <g
       id="g5019"
       transform="translate(54.37303,116.20963)">
      <path
         style="fill:none;stroke:#79b84c;stroke-width:5.67499971;stroke-linecap:butt;stroke-linejoin:miter;stroke-miterlimit:4;stroke-opacity:1;stroke-dasharray:none;stroke-dashoffset:0;display:inline"
         d="m 302.4904,468.93114 26.38462,0"
         id="path6927-3-9-6-2-6-2-0-2-6-8-6-2"
         inkscape:connector-curvature="0"
         sodipodi:nodetypes="cc"
         inkscape:export-filename="/home/s2e/work/projects/OI3/SAFETAG/Art/SAFETAG_expertiese_map.png"
         inkscape:export-xdpi="300"
         inkscape:export-ydpi="300" />
      <path
         inkscape:transform-center-x="-2.2677596"
         transform="matrix(0.83924871,0,0,0.83924871,378.50039,439.65285)"
         d="m -49.756945,35.336777 -8.106398,4.680231 -8.106398,4.680231 0,-9.360463 0,-9.360462 8.106398,4.680232 z"
         inkscape:randomized="0"
         inkscape:rounded="0"
         inkscape:flatsided="false"
         sodipodi:arg2="1.0471976"
         sodipodi:arg1="0"
         sodipodi:r2="5.4042654"
         sodipodi:r1="10.808531"
         sodipodi:cy="35.336777"
         sodipodi:cx="-60.565475"
         sodipodi:sides="3"
         id="path4237"
         style="color:#000000;fill:#79b84c;fill-opacity:1;fill-rule:nonzero;stroke:none;stroke-width:0.375;marker:none;visibility:visible;display:inline;overflow:visible;enable-background:accumulate"
         sodipodi:type="star" />
    </g>
  </g>
</svg>
