<?xml version="1.0" encoding="UTF-8" standalone="no"?>
<!-- Created with Inkscape (http://www.inkscape.org/) -->

<svg
   xmlns:dc="http://purl.org/dc/elements/1.1/"
   xmlns:cc="http://creativecommons.org/ns#"
   xmlns:rdf="http://www.w3.org/1999/02/22-rdf-syntax-ns#"
   xmlns:svg="http://www.w3.org/2000/svg"
   xmlns="http://www.w3.org/2000/svg"
   xmlns:sodipodi="http://sodipodi.sourceforge.net/DTD/sodipodi-0.dtd"
   xmlns:inkscape="http://www.inkscape.org/namespaces/inkscape"
   width="1052.3622"
   height="744.09448"
   id="svg3082"
   version="1.1"
   inkscape:version="0.48.4 r9939"
   sodipodi:docname="safetag-title.svg">
  <defs
     id="defs3084" />
  <sodipodi:namedview
     id="base"
     pagecolor="#000000"
     bordercolor="#666666"
     borderopacity="1.0"
     inkscape:pageopacity="0.50588235"
     inkscape:pageshadow="2"
     inkscape:zoom="0.70710678"
     inkscape:cx="867.34806"
     inkscape:cy="535.19569"
     inkscape:document-units="px"
     inkscape:current-layer="layer1"
     showgrid="false"
     inkscape:window-width="1832"
     inkscape:window-height="1028"
     inkscape:window-x="49"
     inkscape:window-y="24"
     inkscape:window-maximized="0"
     showguides="true"
     inkscape:guide-bbox="true">
    <inkscape:grid
       type="xygrid"
       id="grid4847"
       empspacing="5"
       visible="true"
       enabled="true"
       snapvisiblegridlinesonly="true" />
    <sodipodi:guide
       orientation="0,1"
       position="890.97656,454.71484"
       id="guide4849" />
    <sodipodi:guide
       orientation="0,1"
       position="886.87109,446.50781"
       id="guide4851" />
  </sodipodi:namedview>
  <metadata
     id="metadata3087">
    <rdf:RDF>
      <cc:Work
         rdf:about="">
        <dc:format>image/svg+xml</dc:format>
        <dc:type
           rdf:resource="http://purl.org/dc/dcmitype/StillImage" />
        <dc:title></dc:title>
      </cc:Work>
    </rdf:RDF>
  </metadata>
  <g
     inkscape:label="Layer 1"
     inkscape:groupmode="layer"
     id="layer1"
     transform="translate(0,-308.2677)">
    <path
       inkscape:connector-curvature="0"
       id="path13621-5-7-1"
       style="font-size:93.86315155000001198px;font-style:normal;font-weight:bold;line-height:125%;letter-spacing:0px;word-spacing:0px;fill:#ffffff;fill-opacity:1;stroke:none;font-family:Sans;-inkscape-font-specification:Sans Bold"
       d="m 167.48657,565.13841 0,30.2121 c -7.83994,-3.50551 -15.48858,-6.15067 -22.94588,-7.93545 -7.45751,-1.78457 -14.50062,-2.6769 -21.12935,-2.67703 -8.79599,1.3e-4 -15.29733,1.21115 -19.50402,3.6331 -4.206804,2.42218 -6.310167,6.18275 -6.310125,11.28173 -4.2e-5,3.82441 1.402214,6.82013 4.206745,8.98714 2.8682,2.10347 8.03101,3.92002 15.4885,5.44967 l 15.67969,3.15505 c 15.87081,3.18702 27.15254,8.03114 33.84519,14.53241 6.69244,6.5014 10.03871,15.74348 10.03883,27.72628 -1.2e-4,15.74348 -4.68489,27.47136 -14.05434,35.18372 -9.30596,7.64864 -23.55152,11.47294 -42.73676,11.47294 -9.05093,0 -18.13367,-0.86046 -27.248249,-2.5814 -9.114661,-1.72095 -18.229259,-4.27048 -27.343857,-7.64864 l 0,-31.07258 c 9.114598,4.84419 17.910508,8.50914 26.387791,10.99492 8.540905,2.42209 16.763195,3.63312 24.666825,3.6331 8.03099,2e-5 14.18177,-1.33849 18.45232,-4.01554 4.27041,-2.67699 6.40565,-6.5013 6.40573,-11.47294 -8e-5,-4.46166 -1.46606,-7.90353 -4.39795,-10.32565 -2.86832,-2.42203 -8.63666,-4.58914 -17.30502,-6.50133 l -14.24558,-3.15508 c -14.277494,-3.05938 -24.730619,-7.93538 -31.359416,-14.62801 -6.565088,-6.69247 -9.847622,-15.71146 -9.847601,-27.05703 -2.1e-5,-14.21359 4.589164,-25.14476 13.767533,-32.79352 9.178328,-7.64849 22.372214,-11.4728 39.581674,-11.47294 7.83978,1.4e-4 15.90271,0.60565 24.1888,1.81655 8.28593,1.14744 16.85876,2.90024 25.71852,5.25843" />
    <path
       inkscape:connector-curvature="0"
       id="path13623-4-3-8"
       style="font-size:93.86315155000001198px;font-style:normal;font-weight:bold;line-height:125%;letter-spacing:0px;word-spacing:0px;fill:#ffffff;fill-opacity:1;stroke:none;font-family:Sans;-inkscape-font-specification:Sans Bold"
       d="m 295.88802,677.3821 -57.55598,0 -9.08274,26.00536 -37.00025,0 52.87117,-142.74263 43.88402,0 52.87119,142.74263 -37.00027,0 -8.98714,-26.00536 m -48.37761,-26.48339 39.10364,0 -19.50402,-56.7911 -19.59962,56.7911" />
    <path
       inkscape:connector-curvature="0"
       id="path13625-4-5-8"
       style="font-size:93.86315155000001198px;font-style:normal;font-weight:bold;line-height:125%;letter-spacing:0px;word-spacing:0px;fill:#ffffff;fill-opacity:1;stroke:none;font-family:Sans;-inkscape-font-specification:Sans Bold"
       d="m 360.71017,560.64483 99.33662,0 0,27.8219 -62.52758,0 0,26.579 58.79886,0 0,27.82191 -58.79886,0 0,60.51982 -36.80904,0 0,-142.74263" />
    <path
       inkscape:connector-curvature="0"
       id="path13627-6-0-6"
       style="font-size:93.86315155000001198px;font-style:normal;font-weight:bold;line-height:125%;letter-spacing:0px;word-spacing:0px;fill:#ffffff;fill-opacity:1;stroke:none;font-family:Sans;-inkscape-font-specification:Sans Bold"
       d="m 494.56124,560.64483 99.33662,0 0,27.8219 -62.52758,0 0,26.579 58.79885,0 0,27.82191 -58.79885,0 0,32.69792 64.63094,0 0,27.8219 -101.43998,0 0,-142.74263" />
    <path
       inkscape:connector-curvature="0"
       id="path13629-5-3-4"
       style="font-size:93.86315155000001198px;font-style:normal;font-weight:bold;line-height:125%;letter-spacing:0px;word-spacing:0px;fill:#ffffff;fill-opacity:1;stroke:none;font-family:Sans;-inkscape-font-specification:Sans Bold"
       d="m 611.39409,560.64483 131.55648,0 0,27.8219 -47.32592,0 0,114.92073 -36.80904,0 0,-114.92073 -47.42152,0 0,-27.8219" />
    <path
       inkscape:connector-curvature="0"
       id="path13633-8-8-4"
       style="font-size:93.86315155000001198px;font-style:normal;font-weight:bold;line-height:125%;letter-spacing:0px;word-spacing:0px;fill:#ffffff;fill-opacity:1;stroke:none;font-family:Sans;-inkscape-font-specification:Sans Bold"
       d="m 977.19854,692.77498 c -9.17849,4.4617 -18.70741,7.80797 -28.58676,10.03883 -9.87958,2.23084 -20.07774,3.34626 -30.59454,3.34626 -23.77455,0 -42.60929,-6.62879 -56.50426,-19.88643 -13.89503,-13.32134 -20.84254,-31.35935 -20.84252,-54.11409 -2e-5,-23.00955 7.07497,-41.11128 21.22494,-54.30529 14.14993,-13.19374 33.52644,-19.79069 58.12962,-19.79083 9.49696,1.4e-4 18.5797,0.89248 27.24826,2.67701 8.73205,1.78484 16.95433,4.42997 24.66684,7.93547 l 0,29.54284 c -7.96747,-4.52533 -15.90291,-7.90347 -23.80638,-10.13443 -7.83995,-2.23074 -15.71167,-3.34616 -23.61516,-3.34629 -14.65995,1.3e-4 -25.97354,4.11125 -33.9408,12.33343 -7.90363,8.15863 -11.85542,19.85466 -11.85538,35.08809 -4e-5,15.1061 3.82427,26.77027 11.47294,34.99249 7.64858,8.22233 18.51599,12.33345 32.6023,12.33343 3.82422,2e-5 7.36171,-0.22307 10.61248,-0.66926 3.3143,-0.50987 6.27815,-1.27473 8.89153,-2.29459 l 0,-27.72629 -22.46786,0 0,-24.66683 57.36475,0 0,68.64648" />
    <g
       id="g14199-31-0"
       transform="matrix(2.0860689,0,0,2.0860689,-249.43254,-451.00793)"
       style="fill:#ffffff;fill-opacity:1">
      <path
         sodipodi:nodetypes="cccccc"
         inkscape:connector-curvature="0"
         id="rect13678-3-1"
         d="m 534.90702,509.55785 -16.23161,-29.51683 -33.49252,3.60007 -30.78586,59.06603 49.72412,25.91677 z"
         style="fill:#ffffff;fill-opacity:1;stroke:#000000;stroke-width:3;stroke-miterlimit:4;stroke-dasharray:none" />
      <path
         transform="matrix(-0.40060763,-0.20880114,-0.20880114,0.40060763,896.61388,502.35482)"
         d="m 776.54795,385.9834 c 0,7.06437 -5.72681,12.79117 -12.79118,12.79117 -7.06436,0 -12.79117,-5.7268 -12.79117,-12.79117 0,-7.06437 5.72681,-12.79117 12.79117,-12.79117 7.06437,0 12.79118,5.7268 12.79118,12.79117 z"
         sodipodi:ry="12.791172"
         sodipodi:rx="12.791172"
         sodipodi:cy="385.9834"
         sodipodi:cx="763.75677"
         id="path13681-7-2"
         style="fill:#ffffff;fill-opacity:1;stroke:none"
         sodipodi:type="arc" />
      <path
         style="font-size:medium;font-style:normal;font-variant:normal;font-weight:normal;font-stretch:normal;text-indent:0;text-align:start;text-decoration:none;line-height:normal;letter-spacing:normal;word-spacing:normal;text-transform:none;direction:ltr;block-progression:tb;writing-mode:lr-tb;text-anchor:start;baseline-shift:baseline;color:#000000;fill:#ffffff;fill-opacity:1;fill-rule:nonzero;stroke:none;stroke-width:4.40000009999999975;marker:none;visibility:visible;display:inline;overflow:visible;enable-background:accumulate;font-family:Sans;-inkscape-font-specification:Sans"
         d="m 511.40625,496.0625 -0.8125,4.34375 25.53774,4.97209 0.84375,-4.3125 z"
         id="path14255-79-2"
         inkscape:connector-curvature="0"
         sodipodi:nodetypes="ccccc" />
      <path
         style="font-size:medium;font-style:normal;font-variant:normal;font-weight:normal;font-stretch:normal;text-indent:0;text-align:start;text-decoration:none;line-height:normal;letter-spacing:normal;word-spacing:normal;text-transform:none;direction:ltr;block-progression:tb;writing-mode:lr-tb;text-anchor:start;baseline-shift:baseline;color:#000000;fill:#ffffff;fill-opacity:1;fill-rule:nonzero;stroke:none;stroke-width:4.40000009999999975;marker:none;visibility:visible;display:inline;overflow:visible;enable-background:accumulate;font-family:Sans;-inkscape-font-specification:Sans"
         d="m 527.375,499.15625 2.77928,4.94634 13.30851,2.52608 2.78274,-3.93421 z"
         id="path14255-7-01-2"
         inkscape:connector-curvature="0"
         sodipodi:nodetypes="ccccc" />
    </g>
    <path
       style="fill:#000000;fill-opacity:1;stroke:#ffffff;stroke-width:6.25820683999999972;stroke-miterlimit:4;stroke-dasharray:none;stroke-opacity:1"
       d="m 866.42036,611.96485 -33.86026,-61.57414 -69.8677,7.51 -64.22143,123.2158 103.72794,54.06417 z"
       id="rect13678-1-7-4"
       inkscape:connector-curvature="0"
       sodipodi:nodetypes="cccccc" />
    <path
       sodipodi:type="arc"
       style="fill:#ffffff;fill-opacity:1;stroke:none"
       id="path13681-6-1-0"
       sodipodi:cx="763.75677"
       sodipodi:cy="385.9834"
       sodipodi:rx="12.791172"
       sodipodi:ry="12.791172"
       d="m 776.54795,385.9834 a 12.791172,12.791172 0 1 1 -25.58235,0 12.791172,12.791172 0 1 1 25.58235,0 z"
       transform="matrix(-0.83569512,-0.43557356,-0.43557356,0.83569512,1620.9658,596.93884)" />
    <path
       sodipodi:nodetypes="ccccc"
       inkscape:connector-curvature="0"
       id="path14255-9-3-1"
       d="m 817.39613,583.81262 -1.69493,9.06137 53.27349,10.37212 1.76012,-8.99617 z"
       style="font-size:medium;font-style:normal;font-variant:normal;font-weight:normal;font-stretch:normal;text-indent:0;text-align:start;text-decoration:none;line-height:normal;letter-spacing:normal;word-spacing:normal;text-transform:none;direction:ltr;block-progression:tb;writing-mode:lr-tb;text-anchor:start;baseline-shift:baseline;color:#000000;fill:#ffffff;fill-opacity:1;fill-rule:nonzero;stroke:none;stroke-width:4.40000009999999975;marker:none;visibility:visible;display:inline;overflow:visible;enable-background:accumulate;font-family:Sans;-inkscape-font-specification:Sans" />
    <path
       sodipodi:nodetypes="ccccc"
       inkscape:connector-curvature="0"
       id="path14255-7-0-0-3"
       d="m 850.70805,590.2664 5.79777,10.31841 27.75141,5.26956 5.77184,-8.20703 z"
       style="font-size:medium;font-style:normal;font-variant:normal;font-weight:normal;font-stretch:normal;text-indent:0;text-align:start;text-decoration:none;line-height:normal;letter-spacing:normal;word-spacing:normal;text-transform:none;direction:ltr;block-progression:tb;writing-mode:lr-tb;text-anchor:start;baseline-shift:baseline;color:#000000;fill:#000000;fill-opacity:1;fill-rule:nonzero;stroke:none;stroke-width:4.40000009999999975;marker:none;visibility:visible;display:inline;overflow:visible;enable-background:accumulate;font-family:Sans;-inkscape-font-specification:Sans" />
  </g>
</svg>
