<?xml version="1.0" encoding="UTF-8" standalone="no"?>
<!-- Created with Inkscape (http://www.inkscape.org/) -->

<svg
   xmlns:dc="http://purl.org/dc/elements/1.1/"
   xmlns:cc="http://creativecommons.org/ns#"
   xmlns:rdf="http://www.w3.org/1999/02/22-rdf-syntax-ns#"
   xmlns:svg="http://www.w3.org/2000/svg"
   xmlns="http://www.w3.org/2000/svg"
   xmlns:sodipodi="http://sodipodi.sourceforge.net/DTD/sodipodi-0.dtd"
   xmlns:inkscape="http://www.inkscape.org/namespaces/inkscape"
   width="257.09671"
   height="77.277985"
   id="svg3428"
   version="1.1"
   inkscape:version="0.48.5 r10040"
   sodipodi:docname="New document 9">
  <defs
     id="defs3430">
    <clipPath
       clipPathUnits="userSpaceOnUse"
       id="clipPath18">
      <path
         inkscape:connector-curvature="0"
         d="m 0,0 1796.53,0 0,540 L 0,540 0,0 z"
         id="path20" />
    </clipPath>
  </defs>
  <sodipodi:namedview
     id="base"
     pagecolor="#ffffff"
     bordercolor="#666666"
     borderopacity="1.0"
     inkscape:pageopacity="0.0"
     inkscape:pageshadow="2"
     inkscape:zoom="0.35"
     inkscape:cx="80.69121"
     inkscape:cy="58.638997"
     inkscape:document-units="px"
     inkscape:current-layer="layer1"
     showgrid="false"
     fit-margin-top="0"
     fit-margin-left="0"
     fit-margin-right="0"
     fit-margin-bottom="0"
     inkscape:window-width="501"
     inkscape:window-height="434"
     inkscape:window-x="2391"
     inkscape:window-y="209"
     inkscape:window-maximized="0" />
  <metadata
     id="metadata3433">
    <rdf:RDF>
      <cc:Work
         rdf:about="">
        <dc:format>image/svg+xml</dc:format>
        <dc:type
           rdf:resource="http://purl.org/dc/dcmitype/StillImage" />
        <dc:title></dc:title>
      </cc:Work>
    </rdf:RDF>
  </metadata>
  <g
     inkscape:label="Layer 1"
     inkscape:groupmode="layer"
     id="layer1"
     transform="translate(-294.30879,-513.72319)">
    <g
       id="g12"
       transform="matrix(0.14310738,0,0,-0.14310738,294.30879,591.00118)">
      <g
         id="g14">
        <g
           id="g16"
           clip-path="url(#clipPath18)">
          <path
             inkscape:connector-curvature="0"
             d="m 107.59,153.691 c 3.457,-0.41 13.687,-1.328 28.555,-2.597 0.339,22.851 0.73,37.508 0.73,37.508 0,0 -61.9062,0.5 -127.57031,11.242 C 24.2578,144.238 56.5508,95.8008 99.9883,60.5078 76.8945,164.512 83.2148,156.562 107.59,153.691"
             style="fill:#fbb034;fill-opacity:1;fill-rule:nonzero;stroke:none"
             id="path22" />
          <path
             inkscape:connector-curvature="0"
             d="m 396.438,508.992 c -37.676,19.988 -80.649,31.336 -126.274,31.336 -44.527,0 -86.504,-10.84 -123.531,-29.922 -4.035,-11.988 -10.891,-36.48 -10.942,-63.703 42.422,5.723 95.278,10.215 149.473,8.031 34.816,-0.312 37.063,-1.16 41.731,-13.191 l 0.402,-34.805 c 30.625,0.117 60.508,-0.254 85.641,-1.449 -1.168,31.422 -4.879,73.965 -16.5,103.703"
             style="fill:#6cb33f;fill-opacity:1;fill-rule:nonzero;stroke:none"
             id="path24" />
          <path
             inkscape:connector-curvature="0"
             d="m 179.812,81.1523 c -21.589,2.9415 -20.71,11.7852 -20.82,17.9883 -0.039,1.9144 -0.387,22.5004 -0.879,50.1094 -26.785,2.215 -45.554,3.855 -50.523,4.441 -24.3947,2.871 -30.6955,10.84 -7.578,-93.3472 C 146.477,22.6367 205.664,0 270.164,0 353.523,0 427.988,37.8047 477.527,97.1562 434.543,86.6016 345.078,73.3008 179.812,81.1523"
             style="fill:#f15d22;fill-opacity:1;fill-rule:nonzero;stroke:none"
             id="path26" />
          <path
             inkscape:connector-curvature="0"
             d="m 396.438,509.004 c 19.917,-50.961 16.621,-139.574 17.058,-145.27 0.457,-5.98 -3.684,-19.781 28.516,-19.32 41.062,0.371 77.336,-5.203 89.961,-7.398 -18.993,74.589 -69.035,136.754 -135.535,171.988"
             style="fill:#7c6a55;fill-opacity:1;fill-rule:nonzero;stroke:none"
             id="path28" />
          <path
             inkscape:connector-curvature="0"
             d="m 172.578,325.348 c 10.789,0.218 76.563,1.218 155.652,0.707 l -1.335,115.488 c -4.668,12.031 -6.915,12.879 -41.731,13.191 C 182.82,458.863 84.8711,439.219 54.0742,432.309 20.1289,387.152 0,331.008 0,270.168 0,251.582 1.86328,233.445 5.44922,215.918 42.4023,212.988 101.23,211.062 157.07,209.902 c -0.886,51.004 -1.75,100.371 -1.75,100.371 0,0 -2.949,14.645 17.258,15.075"
             style="fill:#002d62;fill-opacity:1;fill-rule:nonzero;stroke:none"
             id="path30" />
          <path
             inkscape:connector-curvature="0"
             d="m 535.691,319.871 c -61.367,4.168 -139.343,5.742 -207.461,6.184 l 1.125,-96.778 c 0,0 2.723,-19.636 -27.324,-20.547 -15.515,-0.468 -78.093,-0.207 -144.961,1.172 0.918,-52.922 1.875,-107.597 1.922,-110.7614 0.11,-6.2031 -0.769,-15.0468 20.82,-17.9883 165.415,-7.8711 254.895,5.4688 297.844,16.0352 39.114,46.8675 62.664,107.1605 62.664,172.9805 0,16.984 -1.636,33.578 -4.629,49.703"
             style="fill:#005cab;fill-opacity:1;fill-rule:nonzero;stroke:none"
             id="path32" />
          <path
             inkscape:connector-curvature="0"
             d="m 329.355,229.277 -1.125,96.778 c -79.089,0.511 -144.863,-0.489 -155.652,-0.707 -20.207,-0.43 -17.258,-15.075 -17.258,-15.075 0,0 0.864,-49.367 1.75,-100.371 66.868,-1.379 129.446,-1.64 144.961,-1.172 30.047,0.911 27.324,20.547 27.324,20.547"
             style="fill:#b2cee6;fill-opacity:1;fill-rule:nonzero;stroke:none"
             id="path34" />
          <path
             inkscape:connector-curvature="0"
             d="m 631.797,128.801 14.961,0 0,-55.4729 33.164,0 0,-12.5859 -48.125,0 0,68.0588"
             style="fill:#005cab;fill-opacity:1;fill-rule:nonzero;stroke:none"
             id="path36" />
          <path
             inkscape:connector-curvature="0"
             d="m 707.484,111.367 c 15.528,0 25.536,-10.312 25.536,-26.0467 0,-15.625 -10.008,-25.9062 -25.536,-25.9062 -15.441,0 -25.449,10.2812 -25.449,25.9062 0,15.7347 10.008,26.0467 25.449,26.0467 m 0,-41.7693 c 9.246,0 12.004,7.914 12.004,15.7226 0,7.9219 -2.758,15.8317 -12.004,15.8317 -9.16,0 -11.918,-7.9098 -11.918,-15.8317 0,-7.8086 2.758,-15.7226 11.918,-15.7226"
             style="fill:#005cab;fill-opacity:1;fill-rule:nonzero;stroke:none"
             id="path38" />
          <path
             inkscape:connector-curvature="0"
             d="m 770.105,92.6758 c -0.863,5.5156 -4.386,8.4762 -10.003,8.4762 -8.68,0 -11.54,-8.7614 -11.54,-16.0075 0,-7.0703 2.762,-15.5468 11.258,-15.5468 6.285,0 9.907,4.0039 10.77,10.0117 l 13.047,0 c -1.707,-13.0469 -10.77,-20.1953 -23.739,-20.1953 -14.859,0 -24.871,10.4687 -24.871,25.2421 0,15.3558 9.149,26.7108 25.172,26.7108 11.621,0 22.289,-6.101 23.16,-18.6912 l -13.254,0"
             style="fill:#005cab;fill-opacity:1;fill-rule:nonzero;stroke:none"
             id="path40" />
          <path
             inkscape:connector-curvature="0"
             d="m 787.344,94.875 c 0.765,12.684 12.125,16.492 23.179,16.492 9.805,0 21.645,-2.195 21.645,-14.0428 l 0,-25.625 c 0,-4.4726 0.465,-8.9648 1.711,-10.957 l -13.734,0 c -0.461,1.5156 -0.844,3.1445 -0.946,4.7734 -4.289,-4.4922 -10.57,-6.1015 -16.594,-6.1015 -9.339,0 -16.769,4.6679 -16.769,14.7578 0,11.1484 8.375,13.8359 16.769,14.9765 8.297,1.2344 16.008,0.9493 16.008,6.4883 0,5.7973 -3.984,6.6683 -8.754,6.6683 -5.156,0 -8.504,-2.102 -8.964,-7.43 l -13.551,0 z m 31.269,-10.0117 c -2.273,-2.0117 -7.047,-2.0899 -11.234,-2.8594 -4.211,-0.8633 -8.016,-2.2969 -8.016,-7.2461 0,-5.0625 3.907,-6.2812 8.297,-6.2812 10.57,0 10.953,8.3711 10.953,11.3359 l 0,5.0508"
             style="fill:#005cab;fill-opacity:1;fill-rule:nonzero;stroke:none"
             id="path42" />
          <path
             inkscape:connector-curvature="0"
             d="m 839.68,60.7422 13.5469,0 0,68.0586 -13.5469,0 0,-68.0586 z"
             style="fill:#005cab;fill-opacity:1;fill-rule:nonzero;stroke:none"
             id="path44" />
          <path
             inkscape:connector-curvature="0"
             d="m 907.168,60.7422 -15.059,0 -16.851,49.2848 14.195,0 10.391,-33.6598 0.176,0 10.39,33.6598 13.457,0 -16.699,-49.2848"
             style="fill:#005cab;fill-opacity:1;fill-rule:nonzero;stroke:none"
             id="path46" />
          <path
             inkscape:connector-curvature="0"
             d="m 948.164,111.367 c 15.527,0 25.566,-10.312 25.566,-26.0467 0,-15.625 -10.039,-25.9062 -25.566,-25.9062 -15.43,0 -25.449,10.2812 -25.449,25.9062 0,15.7347 10.019,26.0467 25.449,26.0467 m 0,-41.7693 c 9.258,0 12.012,7.914 12.012,15.7226 0,7.9219 -2.754,15.8317 -12.012,15.8317 -9.141,0 -11.914,-7.9098 -11.914,-15.8317 0,-7.8086 2.773,-15.7226 11.914,-15.7226"
             style="fill:#005cab;fill-opacity:1;fill-rule:nonzero;stroke:none"
             id="path48" />
          <path
             inkscape:connector-curvature="0"
             d="m 991.152,117.645 -13.515,0 0,11.156 13.515,0 0,-11.156 z m -13.515,-7.633 13.515,0 0,-49.2893 -13.515,0 0,49.2893"
             style="fill:#005cab;fill-opacity:1;fill-rule:nonzero;stroke:none"
             id="path50" />
          <path
             inkscape:connector-curvature="0"
             d="m 1030.14,92.6758 c -0.86,5.5156 -4.36,8.4762 -10,8.4762 -8.66,0 -11.55,-8.7614 -11.55,-16.0075 0,-7.0703 2.78,-15.5468 11.27,-15.5468 6.27,0 9.91,4.0039 10.77,10.0117 l 13.04,0 c -1.72,-13.0469 -10.76,-20.1953 -23.73,-20.1953 -14.86,0 -24.881,10.4687 -24.881,25.2421 0,15.3558 9.161,26.7108 25.171,26.7108 11.63,0 22.31,-6.101 23.19,-18.6912 l -13.28,0"
             style="fill:#005cab;fill-opacity:1;fill-rule:nonzero;stroke:none"
             id="path52" />
          <path
             inkscape:connector-curvature="0"
             d="m 1059.12,82.0898 c 0.39,-8.582 4.59,-12.4921 12.13,-12.4921 5.43,0 9.8,3.3398 10.66,6.3867 l 11.92,0 c -3.83,-11.6211 -11.92,-16.5703 -23.07,-16.5703 -15.53,0 -25.17,10.6757 -25.17,25.9062 0,14.7847 10.21,26.0467 25.17,26.0467 16.78,0 24.87,-14.1209 23.93,-29.2772 l -35.57,0 z m 22.03,8.5743 c -1.25,6.8632 -4.2,10.4879 -10.78,10.4879 -8.57,0 -11.05,-6.6598 -11.25,-10.4879 l 22.03,0"
             style="fill:#005cab;fill-opacity:1;fill-rule:nonzero;stroke:none"
             id="path54" />
          <path
             inkscape:connector-curvature="0"
             d="m 1109.84,76.75 c 0.1,-5.9219 5.06,-8.293 10.39,-8.293 3.91,0 8.85,1.5235 8.85,6.3008 0,4.0899 -5.62,5.5156 -15.33,7.625 -7.81,1.6992 -15.62,4.4727 -15.62,13.1524 0,12.5628 10.85,15.8318 21.44,15.8318 10.76,0 20.7,-3.633 21.72,-15.7303 l -12.87,0 c -0.37,5.2303 -4.38,6.6683 -9.24,6.6683 -3.05,0 -7.52,-0.567 -7.52,-4.5706 0,-4.875 7.62,-5.5391 15.33,-7.3516 7.91,-1.8203 15.63,-4.668 15.63,-13.8125 0,-12.9687 -11.23,-17.1562 -22.48,-17.1562 -11.45,0 -22.6,4.2851 -23.17,17.3359 l 12.87,0"
             style="fill:#005cab;fill-opacity:1;fill-rule:nonzero;stroke:none"
             id="path56" />
          <path
             inkscape:connector-curvature="0"
             d="m 1145.86,60.7422 14.9805,0 0,14.6953 -14.9805,0 0,-14.6953 z"
             style="fill:#005cab;fill-opacity:1;fill-rule:nonzero;stroke:none"
             id="path58" />
          <path
             inkscape:connector-curvature="0"
             d="m 1234.63,68.457 c -5.25,-6.7461 -12.13,-9.3476 -18.71,-9.3476 -21.06,0 -33.44,15.7265 -33.44,35.3828 0,20.1958 12.38,35.9378 33.44,35.9378 13.92,0 27.11,-8.594 28.69,-24.024 l -14.28,0 c -1.74,7.528 -7.34,11.414 -14.41,11.414 -13.44,0 -18.48,-11.414 -18.48,-23.3278 0,-11.3555 5.04,-22.793 18.48,-22.793 9.72,0 15.37,5.2539 16.21,14.6797 l -15.06,0 0,11.1484 28.61,0 0,-36.8046 -9.53,0 -1.52,7.7343"
             style="fill:#005cab;fill-opacity:1;fill-rule:nonzero;stroke:none"
             id="path60" />
          <path
             inkscape:connector-curvature="0"
             d="m 1253.42,60.7422 13.5078,0 0,68.0586 -13.5078,0 0,-68.0586 z"
             style="fill:#005cab;fill-opacity:1;fill-rule:nonzero;stroke:none"
             id="path62" />
          <path
             inkscape:connector-curvature="0"
             d="m 1296.27,111.367 c 15.53,0 25.55,-10.312 25.55,-26.0467 0,-15.625 -10.02,-25.9062 -25.55,-25.9062 -15.41,0 -25.43,10.2812 -25.43,25.9062 0,15.7347 10.02,26.0467 25.43,26.0467 m 0,-41.7693 c 9.26,0 12.01,7.914 12.01,15.7226 0,7.9219 -2.75,15.8317 -12.01,15.8317 -9.14,0 -11.89,-7.9098 -11.89,-15.8317 0,-7.8086 2.75,-15.7226 11.89,-15.7226"
             style="fill:#005cab;fill-opacity:1;fill-rule:nonzero;stroke:none"
             id="path64" />
          <path
             inkscape:connector-curvature="0"
             d="m 1325.33,128.801 13.54,0 0,-24.785 0.19,0 c 3.34,5.046 9.46,7.351 15.53,7.351 9.82,0 20.43,-7.922 20.43,-25.9373 0,-18.1055 -10.61,-26.0156 -20.43,-26.0156 -7.23,0 -13.22,2.1679 -16.19,7.6289 l -0.18,0 0,-6.3008 -12.89,0 0,68.0588 z m 24.59,-27.649 c -7.97,0 -11.52,-7.527 -11.52,-15.8317 0,-8.1914 3.55,-15.7226 11.52,-15.7226 8.01,0 11.56,7.5312 11.56,15.7226 0,8.3047 -3.55,15.8317 -11.56,15.8317"
             style="fill:#005cab;fill-opacity:1;fill-rule:nonzero;stroke:none"
             id="path66" />
          <path
             inkscape:connector-curvature="0"
             d="m 1379.69,94.875 c 0.76,12.684 12.09,16.492 23.14,16.492 9.83,0 21.64,-2.195 21.64,-14.0428 l 0,-25.625 c 0,-4.4726 0.49,-8.9648 1.72,-10.957 l -13.73,0 c -0.49,1.5156 -0.86,3.1445 -0.94,4.7734 -4.29,-4.4922 -10.58,-6.1015 -16.6,-6.1015 -9.33,0 -16.78,4.6679 -16.78,14.7578 0,11.1484 8.4,13.8359 16.78,14.9765 8.3,1.2344 16.04,0.9493 16.04,6.4883 0,5.7973 -4.01,6.6683 -8.81,6.6683 -5.14,0 -8.46,-2.102 -8.93,-7.43 l -13.53,0 z m 31.27,-10.0117 c -2.31,-2.0117 -7.07,-2.0899 -11.27,-2.8594 -4.18,-0.8633 -8.01,-2.2969 -8.01,-7.2461 0,-5.0625 3.91,-6.2812 8.3,-6.2812 10.57,0 10.98,8.3711 10.98,11.3359 l 0,5.0508"
             style="fill:#005cab;fill-opacity:1;fill-rule:nonzero;stroke:none"
             id="path68" />
          <path
             inkscape:connector-curvature="0"
             d="m 1432.01,60.7422 13.5391,0 0,68.0586 -13.5391,0 0,-68.0586 z"
             style="fill:#005cab;fill-opacity:1;fill-rule:nonzero;stroke:none"
             id="path70" />
          <path
             inkscape:connector-curvature="0"
             d="m 1505.8,92.6758 c -0.88,5.5156 -4.39,8.4762 -10.04,8.4762 -8.65,0 -11.52,-8.7614 -11.52,-16.0075 0,-7.0703 2.77,-15.5468 11.27,-15.5468 6.27,0 9.9,4.0039 10.76,10.0117 l 13.05,0 c -1.7,-13.0469 -10.77,-20.1953 -23.73,-20.1953 -14.87,0 -24.87,10.4687 -24.87,25.2421 0,15.3558 9.14,26.7108 25.16,26.7108 11.62,0 22.3,-6.101 23.16,-18.6912 l -13.24,0"
             style="fill:#005cab;fill-opacity:1;fill-rule:nonzero;stroke:none"
             id="path72" />
          <path
             inkscape:connector-curvature="0"
             d="m 1523.61,128.801 13.54,0 0,-25.637 0.27,0 c 3.46,5.516 9.38,8.203 14.4,8.203 14.39,0 18.02,-8.113 18.02,-20.3201 l 0,-30.3047 -13.53,0 0,27.8203 c 0,8.1172 -2.38,12.1285 -8.67,12.1285 -7.35,0 -10.49,-4.109 -10.49,-14.1207 l 0,-25.8281 -13.54,0 0,68.0588"
             style="fill:#005cab;fill-opacity:1;fill-rule:nonzero;stroke:none"
             id="path74" />
          <path
             inkscape:connector-curvature="0"
             d="m 1576.23,94.875 c 0.76,12.684 12.09,16.492 23.18,16.492 9.83,0 21.64,-2.195 21.64,-14.0428 l 0,-25.625 c 0,-4.4726 0.47,-8.9648 1.7,-10.957 l -13.73,0 c -0.47,1.5156 -0.84,3.1445 -0.95,4.7734 -4.3,-4.4922 -10.57,-6.1015 -16.59,-6.1015 -9.33,0 -16.77,4.6679 -16.77,14.7578 0,11.1484 8.38,13.8359 16.77,14.9765 8.31,1.2344 16.02,0.9493 16.02,6.4883 0,5.7973 -4,6.6683 -8.77,6.6683 -5.14,0 -8.5,-2.102 -8.96,-7.43 l -13.54,0 z m 31.27,-10.0117 c -2.29,-2.0117 -7.05,-2.0899 -11.25,-2.8594 -4.2,-0.8633 -8.01,-2.2969 -8.01,-7.2461 0,-5.0625 3.91,-6.2812 8.28,-6.2812 10.59,0 10.98,8.3711 10.98,11.3359 l 0,5.0508"
             style="fill:#005cab;fill-opacity:1;fill-rule:nonzero;stroke:none"
             id="path76" />
          <path
             inkscape:connector-curvature="0"
             d="m 1626.27,110.027 12.87,0 0,-6.863 0.29,0 c 3.42,5.516 9.34,8.203 15.04,8.203 14.4,0 18.05,-8.113 18.05,-20.3201 l 0,-30.3047 -13.56,0 0,27.8203 c 0,8.0977 -2.38,12.1285 -8.67,12.1285 -7.34,0 -10.47,-4.109 -10.47,-14.1207 l 0,-25.8281 -13.55,0 0,49.2848"
             style="fill:#005cab;fill-opacity:1;fill-rule:nonzero;stroke:none"
             id="path78" />
          <path
             inkscape:connector-curvature="0"
             d="m 1724.94,63.8867 c 0,-8.0937 -2.89,-21.8359 -25.55,-21.8359 -9.72,0 -21.07,4.5976 -21.73,15.832 l 13.43,0 c 1.23,-5.0508 5.36,-6.7695 10.12,-6.7695 7.52,0 10.94,5.1562 10.86,12.207 l 0,6.4844 -0.19,0 c -2.95,-5.1563 -8.87,-7.6367 -14.79,-7.6367 -14.77,0 -21.05,11.2617 -21.05,24.7851 0,12.7735 7.34,24.4139 21.15,24.4139 6.5,0 11.42,-2.195 14.69,-7.922 l 0.19,0 0,6.567 12.87,0 0,-46.1253 z m -12.87,22.1094 c 0,8.0078 -2.77,15.1559 -11.52,15.1559 -7.66,0 -10.98,-6.6598 -10.98,-14.0114 0,-7.0508 2.66,-14.7578 10.98,-14.7578 7.69,0 11.52,6.5625 11.52,13.6133"
             style="fill:#005cab;fill-opacity:1;fill-rule:nonzero;stroke:none"
             id="path80" />
          <path
             inkscape:connector-curvature="0"
             d="m 1741.7,82.0898 c 0.39,-8.582 4.57,-12.4921 12.13,-12.4921 5.41,0 9.8,3.3398 10.64,6.3867 l 11.96,0 c -3.83,-11.6211 -11.96,-16.5703 -23.11,-16.5703 -15.53,0 -25.16,10.6757 -25.16,25.9062 0,14.7847 10.2,26.0467 25.16,26.0467 16.8,0 24.88,-14.1209 23.93,-29.2772 l -35.55,0 z m 22.03,8.5743 c -1.23,6.8632 -4.2,10.4879 -10.76,10.4879 -8.59,0 -11.06,-6.6598 -11.27,-10.4879 l 22.03,0"
             style="fill:#005cab;fill-opacity:1;fill-rule:nonzero;stroke:none"
             id="path82" />
          <path
             inkscape:connector-curvature="0"
             d="m 1780.61,60.7422 14.9609,0 0,14.6953 -14.9609,0 0,-14.6953 z"
             style="fill:#005cab;fill-opacity:1;fill-rule:nonzero;stroke:none"
             id="path84" />
          <path
             inkscape:connector-curvature="0"
             d="m 631.648,183.992 41.168,0 0,187.336 -41.168,0 0,-187.336 z"
             style="fill:#002d62;fill-opacity:1;fill-rule:nonzero;stroke:none"
             id="path86" />
          <path
             inkscape:connector-curvature="0"
             d="m 697.219,319.641 35.383,0 0,-18.875 0.804,0 c 9.43,15.207 25.719,22.578 41.442,22.578 39.609,0 49.582,-22.321 49.582,-55.906 l 0,-83.446 -37.246,0 0,76.613 c 0,22.329 -6.571,33.336 -23.887,33.336 -20.192,0 -28.828,-11.285 -28.828,-38.851 l 0,-71.098 -37.25,0 0,135.649"
             style="fill:#002d62;fill-opacity:1;fill-rule:nonzero;stroke:none"
             id="path88" />
          <path
             inkscape:connector-curvature="0"
             d="m 893.223,319.641 27.257,0 0,-24.946 -27.257,0 0,-67.144 c 0,-12.571 3.132,-15.746 15.742,-15.746 3.933,0 7.566,0.265 11.515,1.039 l 0,-29.106 c -6.3,-1.054 -14.394,-1.277 -21.75,-1.277 -22.839,0 -42.757,5.223 -42.757,32.246 l 0,79.988 -22.578,0 0,24.946 22.578,0 0,40.668 37.25,0 0,-40.668"
             style="fill:#002d62;fill-opacity:1;fill-rule:nonzero;stroke:none"
             id="path90" />
          <path
             inkscape:connector-curvature="0"
             d="m 1026.72,266.391 c -3.38,18.879 -11.53,28.851 -29.642,28.851 -23.582,0 -30.437,-18.394 -30.957,-28.851 l 60.599,0 z m -60.599,-23.625 c 1.059,-23.586 12.617,-34.368 33.332,-34.368 14.937,0 27.007,9.192 29.407,17.598 l 32.78,0 c -10.52,-32.031 -32.78,-45.684 -63.503,-45.684 -42.746,0 -69.258,29.395 -69.258,71.376 0,40.675 28.035,71.66 69.258,71.66 46.173,0 68.473,-38.84 65.843,-80.582 l -97.859,0"
             style="fill:#002d62;fill-opacity:1;fill-rule:nonzero;stroke:none"
             id="path92" />
          <path
             inkscape:connector-curvature="0"
             d="m 1080.9,319.086 35.43,0 0,-25.168 0.54,0 c 6.79,17.043 25.15,28.855 43.24,28.855 2.64,0 5.79,-0.527 8.14,-1.328 l 0,-34.629 c -3.41,0.801 -8.92,1.325 -13.37,1.325 -27.3,0 -36.75,-19.696 -36.75,-43.551 l 0,-61.133 -37.23,0 0,135.629"
             style="fill:#002d62;fill-opacity:1;fill-rule:nonzero;stroke:none"
             id="path94" />
          <path
             inkscape:connector-curvature="0"
             d="m 1182.12,318.949 35.44,0 0,-18.875 0.76,0 c 9.46,15.207 25.72,22.555 41.48,22.555 39.57,0 49.54,-22.281 49.54,-55.902 l 0,-83.426 -37.23,0 0,76.601 c 0,22.328 -6.58,33.344 -23.87,33.344 -20.19,0 -28.85,-11.273 -28.85,-38.82 l 0,-71.125 -37.27,0 0,135.648"
             style="fill:#002d62;fill-opacity:1;fill-rule:nonzero;stroke:none"
             id="path96" />
          <path
             inkscape:connector-curvature="0"
             d="m 1421.47,266.391 c -3.41,18.879 -11.56,28.851 -29.64,28.851 -23.6,0 -30.43,-18.394 -30.95,-28.851 l 60.59,0 z m -60.59,-23.625 c 1.02,-23.586 12.57,-34.368 33.3,-34.368 14.95,0 27.02,9.192 29.37,17.598 l 32.82,0 c -10.51,-32.031 -32.82,-45.684 -63.52,-45.684 -42.71,0 -69.22,29.395 -69.22,71.376 0,40.675 28.05,71.66 69.22,71.66 46.17,0 68.49,-38.84 65.88,-80.582 l -97.85,0"
             style="fill:#002d62;fill-opacity:1;fill-rule:nonzero;stroke:none"
             id="path98" />
          <path
             inkscape:connector-curvature="0"
             d="m 1626.85,183.992 -38.31,0 -24.13,91.047 -0.54,0 -23.09,-91.047 -38.55,0 -43.03,135.664 39.36,0 24.92,-92.105 0.52,0 22.56,92.105 36.19,0 23.11,-91.836 0.52,0 24.92,91.836 38.31,0 -42.76,-135.664"
             style="fill:#002d62;fill-opacity:1;fill-rule:nonzero;stroke:none"
             id="path100" />
          <path
             inkscape:connector-curvature="0"
             d="m 1706.29,228.086 c 0.3,-16.281 13.91,-22.82 28.6,-22.82 10.76,0 24.4,4.168 24.4,17.285 0,11.304 -15.48,15.23 -42.23,21.004 -21.49,4.715 -43.03,12.343 -43.03,36.215 0,34.628 29.9,43.574 59.04,43.574 29.63,0 56.92,-10.008 59.8,-43.317 l -35.42,0 c -1.04,14.43 -12.07,18.356 -25.43,18.356 -8.4,0 -20.73,-1.567 -20.73,-12.598 0,-13.379 20.98,-15.183 42.26,-20.183 21.75,-5.016 42.98,-12.879 42.98,-38.051 0,-35.688 -30.94,-47.239 -61.88,-47.239 -31.5,0 -62.2,11.817 -63.75,47.774 l 35.39,0"
             style="fill:#002d62;fill-opacity:1;fill-rule:nonzero;stroke:none"
             id="path102" />
        </g>
      </g>
    </g>
  </g>
</svg>
