<?xml version="1.0" encoding="UTF-8" standalone="no"?>
<!-- Created with Inkscape (http://www.inkscape.org/) -->

<svg
   xmlns:dc="http://purl.org/dc/elements/1.1/"
   xmlns:cc="http://creativecommons.org/ns#"
   xmlns:rdf="http://www.w3.org/1999/02/22-rdf-syntax-ns#"
   xmlns:svg="http://www.w3.org/2000/svg"
   xmlns="http://www.w3.org/2000/svg"
   xmlns:xlink="http://www.w3.org/1999/xlink"
   xmlns:sodipodi="http://sodipodi.sourceforge.net/DTD/sodipodi-0.dtd"
   xmlns:inkscape="http://www.inkscape.org/namespaces/inkscape"
   width="637.51538"
   height="586.95831"
   id="svg6803"
   version="1.1"
   inkscape:version="0.48.5 r10040"
   sodipodi:docname="New document 25">
  <defs
     id="defs6805" />
  <sodipodi:namedview
     id="base"
     pagecolor="#ffffff"
     bordercolor="#666666"
     borderopacity="1.0"
     inkscape:pageopacity="0.0"
     inkscape:pageshadow="2"
     inkscape:zoom="0.95083333"
     inkscape:cx="363.91773"
     inkscape:cy="275.47971"
     inkscape:document-units="px"
     inkscape:current-layer="layer1"
     showgrid="false"
     fit-margin-top="0"
     fit-margin-left="0"
     fit-margin-right="0"
     fit-margin-bottom="0"
     inkscape:window-width="1920"
     inkscape:window-height="1014"
     inkscape:window-x="0"
     inkscape:window-y="27"
     inkscape:window-maximized="1" />
  <metadata
     id="metadata6808">
    <rdf:RDF>
      <cc:Work
         rdf:about="">
        <dc:format>image/svg+xml</dc:format>
        <dc:type
           rdf:resource="http://purl.org/dc/dcmitype/StillImage" />
        <dc:title></dc:title>
      </cc:Work>
    </rdf:RDF>
  </metadata>
  <g
     inkscape:label="Layer 1"
     inkscape:groupmode="layer"
     id="layer1"
     transform="translate(-106.08227,-227.38662)">
    <path
       inkscape:export-ydpi="300"
       inkscape:export-xdpi="300"
       inkscape:export-filename="/home/s2e/work/projects/OI3/SAFETAG/Art/SAFETAG_expertiese_map.png"
       sodipodi:nodetypes="cccc"
       inkscape:connector-curvature="0"
       id="path6927-9-8-2-1-8-1-1"
       d="m 310.64231,400.63886 0,38.18383 44.49658,0 0,46.02409"
       style="fill:none;stroke:#125fad;stroke-width:3.14151597;stroke-linecap:round;stroke-linejoin:miter;stroke-miterlimit:4;stroke-opacity:1;stroke-dasharray:none;stroke-dashoffset:0;display:inline" />
    <path
       inkscape:export-ydpi="300"
       inkscape:export-xdpi="300"
       inkscape:export-filename="/home/s2e/work/projects/OI3/SAFETAG/Art/SAFETAG_expertiese_map.png"
       sodipodi:nodetypes="cccc"
       inkscape:connector-curvature="0"
       id="path6927-9-1-7-8-2-6-6-4"
       d="m 298.03842,407.14144 0,31.68125 -47.08936,0 0,46.04978"
       style="fill:none;stroke:#0d5cab;stroke-width:3.14151597;stroke-linecap:round;stroke-linejoin:miter;stroke-miterlimit:4;stroke-opacity:1;stroke-dasharray:none;stroke-dashoffset:0;display:inline" />
    <path
       inkscape:export-ydpi="300"
       inkscape:export-xdpi="300"
       inkscape:export-filename="/home/s2e/work/projects/OI3/SAFETAG/Art/SAFETAG_expertiese_map.png"
       sodipodi:nodetypes="cc"
       inkscape:connector-curvature="0"
       id="path6927-9-8-9-5-9-8-4"
       d="m 298.4844,739.61292 0,-146.27982"
       style="fill:none;stroke:#76b748;stroke-width:3.14151597;stroke-linecap:round;stroke-linejoin:miter;stroke-miterlimit:4;stroke-opacity:1;stroke-dasharray:none;stroke-dashoffset:0;display:inline" />
    <path
       inkscape:export-ydpi="300"
       inkscape:export-xdpi="300"
       inkscape:export-filename="/home/s2e/work/projects/OI3/SAFETAG/Art/SAFETAG_expertiese_map.png"
       sodipodi:nodetypes="cc"
       inkscape:connector-curvature="0"
       id="path6927-9-8-2-1-8-1-0"
       d="m 304.77041,739.22551 0,-150.73723"
       style="fill:none;stroke:#f15c22;stroke-width:3.14151597;stroke-linecap:round;stroke-linejoin:miter;stroke-miterlimit:4;stroke-opacity:1;stroke-dasharray:none;stroke-dashoffset:0;display:inline" />
    <path
       inkscape:export-ydpi="300"
       inkscape:export-xdpi="300"
       inkscape:export-filename="/home/s2e/work/projects/OI3/SAFETAG/Art/SAFETAG_expertiese_map.png"
       sodipodi:nodetypes="cc"
       inkscape:connector-curvature="0"
       id="path6927-8-4-2-4-3-7-0-9"
       d="m 310.20623,740.28979 0.0689,-146.07139"
       style="fill:none;stroke:#0d5cab;stroke-width:3.14151597;stroke-linecap:round;stroke-linejoin:miter;stroke-miterlimit:4;stroke-opacity:1;stroke-dasharray:none;stroke-dashoffset:0;display:inline" />
    <path
       inkscape:export-ydpi="300"
       inkscape:export-xdpi="300"
       inkscape:export-filename="/home/s2e/work/projects/OI3/SAFETAG/Art/SAFETAG_expertiese_map.png"
       sodipodi:nodetypes="cc"
       inkscape:connector-curvature="0"
       id="path6927-3-9-6-2-6-4-0-3-3"
       d="m 300.0465,326.20096 0,65.90568"
       style="fill:none;stroke:#0d5cab;stroke-width:3.14151597;stroke-linecap:round;stroke-linejoin:miter;stroke-miterlimit:4;stroke-opacity:1;stroke-dasharray:none;stroke-dashoffset:0;display:inline" />
    <path
       inkscape:export-ydpi="300"
       inkscape:export-xdpi="300"
       inkscape:export-filename="/home/s2e/work/projects/OI3/SAFETAG/Art/SAFETAG_expertiese_map.png"
       sodipodi:nodetypes="cc"
       inkscape:connector-curvature="0"
       id="path6927-3-9-6-2-6-2-0-2"
       d="m 304.95205,326.20096 0,65.90568"
       style="fill:none;stroke:#79b84c;stroke-width:3.14151597;stroke-linecap:round;stroke-linejoin:miter;stroke-miterlimit:4;stroke-opacity:1;stroke-dasharray:none;stroke-dashoffset:0;display:inline" />
    <path
       inkscape:export-ydpi="300"
       inkscape:export-xdpi="300"
       inkscape:export-filename="/home/s2e/work/projects/OI3/SAFETAG/Art/SAFETAG_expertiese_map.png"
       sodipodi:nodetypes="cccc"
       inkscape:connector-curvature="0"
       id="path6927-9-8-9-5-9-8"
       d="m 304.22793,569.94927 0,-34.0515 43.55134,0 0,-50.15643"
       style="fill:none;stroke:#76b748;stroke-width:3.14151597;stroke-linecap:round;stroke-linejoin:miter;stroke-miterlimit:4;stroke-opacity:1;stroke-dasharray:none;stroke-dashoffset:0;display:inline" />
    <path
       inkscape:export-ydpi="300"
       inkscape:export-xdpi="300"
       inkscape:export-filename="/home/s2e/work/projects/OI3/SAFETAG/Art/SAFETAG_expertiese_map.png"
       sodipodi:nodetypes="ccc"
       inkscape:connector-curvature="0"
       id="path6927-9-1-7-9-8-2-7"
       d="m 303.75366,535.89777 -43.86019,0 0,-50.18212"
       style="fill:none;stroke:#76b748;stroke-width:3.14151597;stroke-linecap:round;stroke-linejoin:miter;stroke-miterlimit:4;stroke-opacity:1;stroke-dasharray:none;stroke-dashoffset:0;display:inline" />
    <path
       inkscape:export-ydpi="300"
       inkscape:export-xdpi="300"
       inkscape:export-filename="/home/s2e/work/projects/OI3/SAFETAG/Art/SAFETAG_expertiese_map.png"
       sodipodi:nodetypes="cccc"
       inkscape:connector-curvature="0"
       id="path6927-9-8-2-1-8-1"
       d="m 310.51394,579.64077 0,-38.18385 41.75319,0 0,-46.02409"
       style="fill:none;stroke:#125fad;stroke-width:3.14151597;stroke-linecap:round;stroke-linejoin:miter;stroke-miterlimit:4;stroke-opacity:1;stroke-dasharray:none;stroke-dashoffset:0;display:inline" />
    <path
       inkscape:export-ydpi="300"
       inkscape:export-xdpi="300"
       inkscape:export-filename="/home/s2e/work/projects/OI3/SAFETAG/Art/SAFETAG_expertiese_map.png"
       sodipodi:nodetypes="cccc"
       inkscape:connector-curvature="0"
       id="path6927-9-1-7-8-2-6-6"
       d="m 298.16679,573.13818 0,-31.68126 -44.34596,0 0,-46.04978"
       style="fill:none;stroke:#0d5cab;stroke-width:3.14151597;stroke-linecap:round;stroke-linejoin:miter;stroke-miterlimit:4;stroke-opacity:1;stroke-dasharray:none;stroke-dashoffset:0;display:inline" />
    <path
       inkscape:export-ydpi="300"
       inkscape:export-xdpi="300"
       inkscape:export-filename="/home/s2e/work/projects/OI3/SAFETAG/Art/SAFETAG_expertiese_map.png"
       sodipodi:nodetypes="cccc"
       inkscape:connector-curvature="0"
       id="path6927-9-8-9-2-0"
       d="m 304.73451,407.62651 0,36.3473 45.69612,0 0,47.86062"
       style="fill:none;stroke:#76b748;stroke-width:3.14151597;stroke-linecap:round;stroke-linejoin:miter;stroke-miterlimit:4;stroke-opacity:1;stroke-dasharray:none;stroke-dashoffset:0;display:inline" />
    <path
       inkscape:export-ydpi="300"
       inkscape:export-xdpi="300"
       inkscape:export-filename="/home/s2e/work/projects/OI3/SAFETAG/Art/SAFETAG_expertiese_map.png"
       sodipodi:nodetypes="cccc"
       inkscape:connector-curvature="0"
       id="path6927-9-1-7-9-6-6"
       d="m 304.75792,417.02404 0,26.94977 -48.6414,0 0,47.88646"
       style="fill:none;stroke:#76b748;stroke-width:3.14151597;stroke-linecap:round;stroke-linejoin:miter;stroke-miterlimit:4;stroke-opacity:1;stroke-dasharray:none;stroke-dashoffset:0;display:inline" />
    <a
       style="display:inline"
       transform="matrix(0,1.4358831,-1.4358831,0,794.00348,-628.97663)"
       xlink:href="#vulnerability_prioritization"
       id="a51097">
      <g
         id="g28304">
        <path
           transform="matrix(0.05573072,0.05573072,0.05573072,-0.05573072,736.48977,443.65807)"
           sodipodi:type="arc"
           style="fill:#ffffff;fill-opacity:1;stroke:#125fad;stroke-width:48.12016296;stroke-linejoin:round;stroke-miterlimit:4;stroke-opacity:1;stroke-dasharray:none;stroke-dashoffset:0"
           id="path4254-3-8-5-0-09-3-1-5-84-4"
           sodipodi:cx="-1077.1831"
           sodipodi:cy="738.2251"
           sodipodi:rx="159.54597"
           sodipodi:ry="159.54597"
           d="m -917.63713,738.2251 c 0,88.11481 -71.43117,159.54597 -159.54597,159.54597 -88.1148,0 -159.546,-71.43116 -159.546,-159.54597 0,-88.11481 71.4312,-159.54598 159.546,-159.54598 88.1148,0 159.54597,71.43117 159.54597,159.54598 z"
           inkscape:export-filename="/home/s2e/work/projects/OI3/SAFETAG/Art/SAFETAG_expertiese_map.png"
           inkscape:export-xdpi="300"
           inkscape:export-ydpi="300" />
        <rect
           style="fill:#73b644;fill-opacity:1;stroke:none"
           id="rect4554-3-0-2-5-6-03-3-0-5"
           width="16.280338"
           height="15.797441"
           x="741.39764"
           y="257.34518"
           ry="7.8987207"
           transform="matrix(0.70710678,0.70710678,0.70710678,-0.70710678,0,0)"
           inkscape:export-filename="/home/s2e/work/projects/OI3/SAFETAG/Art/SAFETAG_expertiese_map.png"
           inkscape:export-xdpi="300"
           inkscape:export-ydpi="300" />
      </g>
    </a>
    <a
       style="display:inline"
       transform="matrix(0,1.4358831,-1.4358831,0,794.00348,-628.97663)"
       xlink:href="#resource_identification"
       id="a53486">
      <g
         id="g28372">
        <path
           transform="matrix(0.05573072,0.05573072,0.05573072,-0.05573072,797.9973,411.50132)"
           sodipodi:type="arc"
           style="fill:#ffffff;fill-opacity:1;stroke:#125fad;stroke-width:48.12016296;stroke-linejoin:round;stroke-miterlimit:4;stroke-opacity:1;stroke-dasharray:none;stroke-dashoffset:0"
           id="path4254-3-8-5-0-09-3-5-1-7-6"
           sodipodi:cx="-1077.1831"
           sodipodi:cy="738.2251"
           sodipodi:rx="159.54597"
           sodipodi:ry="159.54597"
           d="m -917.63713,738.2251 c 0,88.11481 -71.43117,159.54597 -159.54597,159.54597 -88.1148,0 -159.546,-71.43116 -159.546,-159.54597 0,-88.11481 71.4312,-159.54598 159.546,-159.54598 88.1148,0 159.54597,71.43117 159.54597,159.54598 z"
           inkscape:export-filename="/home/s2e/work/projects/OI3/SAFETAG/Art/SAFETAG_expertiese_map.png"
           inkscape:export-xdpi="300"
           inkscape:export-ydpi="300" />
        <rect
           style="fill:#76b748;fill-opacity:1;stroke:none"
           id="rect4554-3-0-2-5-6-9-2-2-7"
           width="16.280338"
           height="15.797441"
           x="762.15149"
           y="323.57574"
           ry="7.8987207"
           transform="matrix(0.70710678,0.70710678,0.70710678,-0.70710678,0,0)"
           inkscape:export-filename="/home/s2e/work/projects/OI3/SAFETAG/Art/SAFETAG_expertiese_map.png"
           inkscape:export-xdpi="300"
           inkscape:export-ydpi="300" />
      </g>
    </a>
    <a
       style="display:inline"
       transform="matrix(0,1.4358831,-1.4358831,0,794.00348,-628.97663)"
       id="a54685"
       xlink:href="#reccomendation_development">
      <g
         id="g28376">
        <path
           transform="matrix(0.05573072,0.05573072,0.05573072,-0.05573072,798.46998,474.0265)"
           sodipodi:type="arc"
           style="fill:#ffffff;fill-opacity:1;stroke:#125fad;stroke-width:48.12016296;stroke-linejoin:round;stroke-miterlimit:4;stroke-opacity:1;stroke-dasharray:none;stroke-dashoffset:0"
           id="path4254-3-8-5-0-09-3-8-3-5-5"
           sodipodi:cx="-1077.1831"
           sodipodi:cy="738.2251"
           sodipodi:rx="159.54597"
           sodipodi:ry="159.54597"
           d="m -917.63713,738.2251 c 0,88.11481 -71.43117,159.54597 -159.54597,159.54597 -88.1148,0 -159.546,-71.43116 -159.546,-159.54597 0,-88.11481 71.4312,-159.54598 159.546,-159.54598 88.1148,0 159.54597,71.43117 159.54597,159.54598 z"
           inkscape:export-filename="/home/s2e/work/projects/OI3/SAFETAG/Art/SAFETAG_expertiese_map.png"
           inkscape:export-xdpi="300"
           inkscape:export-ydpi="300" />
        <rect
           style="fill:#76b748;fill-opacity:1;stroke:none"
           id="rect4554-3-0-2-5-6-29-6-9-3"
           width="16.280338"
           height="15.797441"
           x="806.69788"
           y="279.69809"
           ry="7.8987207"
           transform="matrix(0.70710678,0.70710678,0.70710678,-0.70710678,0,0)"
           inkscape:export-filename="/home/s2e/work/projects/OI3/SAFETAG/Art/SAFETAG_expertiese_map.png"
           inkscape:export-xdpi="300"
           inkscape:export-ydpi="300" />
      </g>
    </a>
    <a
       style="display:inline"
       transform="matrix(1.4358831,0,0,1.4358831,-908.8311,95.589694)"
       xlink:href="#remediation_roadmap_development"
       id="a55921">
      <g
         id="g28324">
        <g
           id="g10723-0-2"
           transform="matrix(0.31255189,0,0,0.31255189,447.3269,-1347.3349)"
           inkscape:export-filename="/home/s2e/work/projects/OI3/SAFETAG/Art/SAFETAG_expertiese_map.png"
           inkscape:export-xdpi="300"
           inkscape:export-ydpi="300">
          <path
             id="path10522-7-0-2-4"
             d="m 1273.1875,5357.1875 c -0.4216,0 -0.8312,0.02 -1.25,0.031 l -0.031,42.1562 39.4688,22.8438 c 3.6812,-6.3578 5.7812,-13.7111 5.7812,-21.5626 0,-24.0131 -19.6878,-43.4687 -43.9687,-43.4687 z"
             style="fill:#f15f26;fill-opacity:1;stroke:none"
             inkscape:connector-curvature="0" />
          <path
             id="rect4554-3-0-2-5-6-07-1-1-0-1-0-0-1-8"
             d="m 1272.75,5374.9375 c -0.2796,0 -0.5643,0.022 -0.8438,0.031 l 0,24.4062 24.1563,14 c 5.2302,-9.5881 3.7894,-21.8044 -4.3437,-29.9375 l -1.0938,-1.0937 c -4.9499,-4.95 -11.4151,-7.4063 -17.875,-7.4063 z"
             style="opacity:0.98000004;fill:#f15f26;fill-opacity:1;stroke:none"
             inkscape:connector-curvature="0" />
          <path
             id="path10518-7-1-6-2"
             d="m 1274.0312,5366.9062 c -0.6961,-0.012 -1.3973,0.032 -2.0937,0.063 l -0.031,7.9062 c 6.9151,-0.2891 13.6471,2.3654 18.9376,7.5312 4.6957,4.5853 7.0534,8.9651 8.0624,15 0.9475,5.6665 -0.1414,11.2445 -2.75,16 l 6.9063,4 c 2.0462,-3.6644 3.4429,-7.7389 4.0313,-12.0937 0.4515,-3.342 0.4672,-5.1783 0.094,-8.3125 -0.956,-8.0229 -4.4882,-15.0177 -10.4375,-20.7188 -6.3379,-6.0734 -14.471,-9.2328 -22.7188,-9.375 z"
             style="fill:#ffffff;fill-opacity:1;stroke:none"
             inkscape:connector-curvature="0" />
          <g
             id="g10646-3-2">
            <path
               style="fill:#155fa7;fill-opacity:1;stroke:none"
               d="m 1271.9375,5399 -37.7187,21.8125 c 7.3483,13.8628 22.0443,23.3125 38.9687,23.3125 16.4943,0 30.8529,-8.9921 38.375,-22.2812 L 1271.9375,5399 z"
               id="path10522-7-9-6-9"
               inkscape:connector-curvature="0" />
            <path
               style="opacity:0.98000004;fill:#155ca5;fill-opacity:1;stroke:none"
               d="m 1271.9375,5399 -21.75,12.5938 c 1.1838,2.3388 2.7282,4.5406 4.6875,6.5 l 1.0938,1.0937 c 9.8998,9.8999 25.8501,9.8999 35.75,0 1.8665,-1.8666 3.3997,-3.9412 4.5624,-6.1563 L 1271.9375,5399 z"
               id="rect4554-3-0-2-5-6-07-1-1-0-1-0-2-5-7"
               inkscape:connector-curvature="0" />
            <path
               style="fill:#ffffff;fill-opacity:1;stroke:none"
               d="m 1250.0938,5411.625 -7.1876,4.1562 c 0.01,0.021 0.021,0.042 0.031,0.063 3.2923,6.6547 8.8441,12.2273 15.4687,15.5 3.3493,1.6545 5.8713,2.4227 11.0626,3.375 1.4537,0.2667 8.9291,-0.076 10.8437,-0.5 10.0771,-2.2311 18.2852,-8.5917 22.9375,-17.1563 l -6.9062,-4 c -3.4441,6.5109 -9.7158,11.525 -17.4688,13.125 -5.3524,1.1047 -11.1744,0.3639 -16.0625,-2.0313 -5.0219,-2.4609 -9.7158,-6.9359 -12.3125,-11.75 -0.1392,-0.2579 -0.2766,-0.5211 -0.4062,-0.7812 z"
               id="path10518-7-3-4-4"
               inkscape:connector-curvature="0" />
          </g>
          <path
             id="path10522-7-7-7"
             d="m 1272.2812,5357.1875 c -23.8587,0.4814 -43.0624,19.7578 -43.0624,43.4687 0,7.3054 1.8437,14.1751 5.0624,20.2188 l 38.0626,-22.0312 -0.063,-41.6563 z"
             style="fill:#76b748;fill-opacity:1;stroke:none"
             inkscape:connector-curvature="0" />
          <path
             id="rect4554-3-0-2-5-6-07-1-1-0-1-0-8-6"
             d="m 1272.3125,5374.9375 c -6.3144,0.1085 -12.5985,2.5673 -17.4375,7.4063 -7.9577,7.9577 -9.4917,19.8235 -4.6562,29.3124 l 22.125,-12.8124 -0.031,-23.9063 z"
             style="opacity:0.98000004;fill:#76b748;fill-opacity:1;stroke:none"
             inkscape:connector-curvature="0" />
          <path
             id="path10518-7-12-6"
             d="m 1272.3125,5366.9375 c -6.7117,0.2237 -13.4086,2.4371 -19.1563,6.7187 -13.1095,9.7656 -17.4284,27.6149 -10.2187,42.1876 l 7.1875,-4.1563 c -6.369,-12.7002 -1.3697,-27.8391 11.4375,-34.2187 2.755,-1.3724 5.3058,-2.0967 8.6875,-2.4688 0.6858,-0.075 1.379,-0.1078 2.0625,-0.125 l 0,-7.9375 z"
             style="fill:#ffffff;fill-opacity:1;stroke:none"
             inkscape:connector-curvature="0" />
        </g>
      </g>
    </a>
    <text
       inkscape:export-ydpi="300"
       inkscape:export-xdpi="300"
       inkscape:export-filename="/home/s2e/work/projects/OI3/SAFETAG/Art/SAFETAG_expertiese_map.png"
       sodipodi:linespacing="100%"
       id="text6735-3-7-2-2-3-77-3-5-81-4-9"
       y="321.24365"
       x="276.05801"
       style="font-size:8.97575951px;font-style:normal;font-weight:normal;text-align:end;line-height:100%;letter-spacing:0px;word-spacing:0px;text-anchor:end;fill:#000000;fill-opacity:1;stroke:none;display:inline;font-family:Sans"
       xml:space="preserve"><tspan
         id="tspan12280-2-3-4"
         style="font-size:9.87333488px;font-style:normal;font-variant:normal;font-weight:bold;font-stretch:normal;text-align:end;line-height:100%;text-anchor:end;font-family:Droid Sans;-inkscape-font-specification:Droid Sans Bold"
         y="321.24365"
         x="276.05801"
         sodipodi:role="line">Vulnerability</tspan><tspan
         id="tspan12377-9-7"
         style="font-size:9.87333488px;font-style:normal;font-variant:normal;font-weight:bold;font-stretch:normal;text-align:end;line-height:100%;text-anchor:end;font-family:Droid Sans;-inkscape-font-specification:Droid Sans Bold"
         y="331.11697"
         x="276.05801"
         sodipodi:role="line">Analysis</tspan></text>
    <text
       inkscape:export-ydpi="300"
       inkscape:export-xdpi="300"
       inkscape:export-filename="/home/s2e/work/projects/OI3/SAFETAG/Art/SAFETAG_expertiese_map.png"
       sodipodi:linespacing="100%"
       id="text6735-3-7-2-2-3-77-3-5-9-8-5"
       y="400.2634"
       x="275.11118"
       style="font-size:8.97575951px;font-style:normal;font-weight:normal;text-align:end;line-height:100%;letter-spacing:0px;word-spacing:0px;text-anchor:end;fill:#000000;fill-opacity:1;stroke:none;display:inline;font-family:Sans"
       xml:space="preserve"><tspan
         id="tspan12280-1-5-4"
         style="font-size:9.87333488px;font-style:normal;font-variant:normal;font-weight:bold;font-stretch:normal;text-align:end;line-height:100%;text-anchor:end;font-family:Droid Sans;-inkscape-font-specification:Droid Sans Bold"
         y="400.2634"
         x="275.11118"
         sodipodi:role="line">Vulnerability</tspan><tspan
         id="tspan12479-2-8"
         style="font-size:9.87333488px;font-style:normal;font-variant:normal;font-weight:bold;font-stretch:normal;text-align:end;line-height:100%;text-anchor:end;font-family:Droid Sans;-inkscape-font-specification:Droid Sans Bold"
         y="410.13672"
         x="275.11118"
         sodipodi:role="line">Prioritization</tspan></text>
    <text
       inkscape:export-ydpi="300"
       inkscape:export-xdpi="300"
       inkscape:export-filename="/home/s2e/work/projects/OI3/SAFETAG/Art/SAFETAG_expertiese_map.png"
       sodipodi:linespacing="100%"
       id="text6735-3-7-2-2-3-77-3-5-9-7-1-5-2"
       y="478.52368"
       x="233.33441"
       style="font-size:8.97575951px;font-style:normal;font-weight:normal;text-align:end;line-height:100%;letter-spacing:0px;word-spacing:0px;text-anchor:end;fill:#000000;fill-opacity:1;stroke:none;display:inline;font-family:Sans"
       xml:space="preserve"><tspan
         id="tspan12507-0-0-0"
         style="font-size:9.87333488px;font-style:normal;font-variant:normal;font-weight:bold;font-stretch:normal;text-align:end;line-height:100%;text-anchor:end;font-family:Droid Sans;-inkscape-font-specification:Droid Sans Bold"
         y="478.52368"
         x="233.33441"
         sodipodi:role="line" /><tspan
         id="tspan12513-6-9-8"
         style="font-size:9.87333488px;font-style:normal;font-variant:normal;font-weight:bold;font-stretch:normal;text-align:end;line-height:100%;text-anchor:end;font-family:Droid Sans;-inkscape-font-specification:Droid Sans Bold"
         y="488.397"
         x="233.33441"
         sodipodi:role="line">Reccomendation</tspan><tspan
         id="tspan12511-5-6-2"
         style="font-size:9.87333488px;font-style:normal;font-variant:normal;font-weight:bold;font-stretch:normal;text-align:end;line-height:100%;text-anchor:end;font-family:Droid Sans;-inkscape-font-specification:Droid Sans Bold"
         y="498.27036"
         x="233.33441"
         sodipodi:role="line">Development</tspan></text>
    <text
       inkscape:export-ydpi="300"
       inkscape:export-xdpi="300"
       inkscape:export-filename="/home/s2e/work/projects/OI3/SAFETAG/Art/SAFETAG_expertiese_map.png"
       sodipodi:linespacing="100%"
       id="text6735-3-7-2-2-3-77-3-5-9-7-1-3-6-6"
       y="489.17188"
       x="373.41949"
       style="font-size:8.97575951px;font-style:normal;font-weight:normal;text-align:start;line-height:100%;letter-spacing:0px;word-spacing:0px;text-anchor:start;fill:#000000;fill-opacity:1;stroke:none;display:inline;font-family:Sans"
       xml:space="preserve"><tspan
         id="tspan12511-5-0-6-7"
         style="font-size:9.87333488px;font-style:normal;font-variant:normal;font-weight:bold;font-stretch:normal;text-align:start;line-height:100%;text-anchor:start;font-family:Droid Sans;-inkscape-font-specification:Droid Sans Bold"
         y="489.17188"
         x="373.41949"
         sodipodi:role="line">Resource</tspan><tspan
         id="tspan12587-9-6"
         style="font-size:9.87333488px;font-style:normal;font-variant:normal;font-weight:bold;font-stretch:normal;text-align:start;line-height:100%;text-anchor:start;font-family:Droid Sans;-inkscape-font-specification:Droid Sans Bold"
         y="499.0452"
         x="373.41949"
         sodipodi:role="line">Identification</tspan></text>
    <text
       inkscape:export-ydpi="300"
       inkscape:export-xdpi="300"
       inkscape:export-filename="/home/s2e/work/projects/OI3/SAFETAG/Art/SAFETAG_expertiese_map.png"
       sodipodi:linespacing="100%"
       id="text6735-3-7-2-2-3-77-3-5-9-7-6-9-6-4"
       y="582.8111"
       x="282.24509"
       style="font-size:8.97575951px;font-style:normal;font-weight:normal;text-align:end;line-height:100%;letter-spacing:0px;word-spacing:0px;text-anchor:end;fill:#000000;fill-opacity:1;stroke:none;display:inline;font-family:Sans"
       xml:space="preserve"><tspan
         id="tspan12735-8-7"
         style="font-size:9.87333488px;font-style:normal;font-variant:normal;font-weight:bold;font-stretch:normal;text-align:end;line-height:100%;text-anchor:end;font-family:Droid Sans;-inkscape-font-specification:Droid Sans Bold"
         y="582.8111"
         x="282.24509"
         sodipodi:role="line">Roadmap</tspan><tspan
         id="tspan12511-1-2-0-6"
         style="font-size:9.87333488px;font-style:normal;font-variant:normal;font-weight:bold;font-stretch:normal;text-align:end;line-height:100%;text-anchor:end;font-family:Droid Sans;-inkscape-font-specification:Droid Sans Bold"
         y="592.68445"
         x="282.24509"
         sodipodi:role="line">Development</tspan></text>
    <g
       style="display:inline"
       inkscape:export-ydpi="300"
       inkscape:export-xdpi="300"
       inkscape:export-filename="/home/s2e/work/projects/OI3/SAFETAG/Art/SAFETAG_expertiese_map.png"
       transform="matrix(0.32565975,0,0,0.32565975,661.93847,-1426.3296)"
       id="g12762-8-2">
      <path
         transform="matrix(0.12813475,0,0,-0.12813475,-341.36813,5366.318)"
         sodipodi:type="arc"
         style="fill:#ffffff;fill-opacity:1;stroke:#cccccc;stroke-width:48.12016296;stroke-linejoin:round;stroke-miterlimit:4;stroke-opacity:1;stroke-dasharray:none;stroke-dashoffset:0"
         id="path4254-3-8-5-8-3-9-7-7-6"
         sodipodi:cx="-1077.1831"
         sodipodi:cy="738.2251"
         sodipodi:rx="159.54597"
         sodipodi:ry="159.54597"
         d="m -917.63713,738.2251 c 0,88.11481 -71.43117,159.54597 -159.54597,159.54597 -88.1148,0 -159.546,-71.43116 -159.546,-159.54597 0,-88.11481 71.4312,-159.54598 159.546,-159.54598 88.1148,0 159.54597,71.43117 159.54597,159.54598 z" />
      <rect
         style="fill:#000000;fill-opacity:1;stroke:#0d5cab;stroke-width:0.88346505;stroke-linejoin:round;stroke-miterlimit:4;stroke-opacity:1;stroke-dasharray:none;stroke-dashoffset:0"
         id="rect4554-3-0-8-6-87-2-3-2"
         width="26.467985"
         height="25.682909"
         x="-492.7131"
         y="-5284.5713"
         ry="12.841455"
         transform="scale(1,-1)" />
      <text
         xml:space="preserve"
         style="font-size:21.90477562px;font-style:normal;font-weight:normal;line-height:125%;letter-spacing:0px;word-spacing:0px;fill:#000000;fill-opacity:1;stroke:none;font-family:Sans"
         x="-445.34302"
         y="5277.6406"
         id="text3410-4-1-4-9-3-9"
         sodipodi:linespacing="125%"><tspan
           sodipodi:role="line"
           id="tspan3412-6-1-8-6-2-0"
           x="-445.34302"
           y="5277.6406">Applied Expertise Required</tspan></text>
      <path
         transform="matrix(0.12813475,0,0,-0.12813475,-341.36813,5432.0324)"
         sodipodi:type="arc"
         style="fill:#ffffff;fill-opacity:1;stroke:#000000;stroke-width:48.12016296;stroke-linejoin:round;stroke-miterlimit:4;stroke-opacity:1;stroke-dasharray:none;stroke-dashoffset:0"
         id="path4254-3-8-5-8-3-9-7-2-6-2"
         sodipodi:cx="-1077.1831"
         sodipodi:cy="738.2251"
         sodipodi:rx="159.54597"
         sodipodi:ry="159.54597"
         d="m -917.63713,738.2251 c 0,88.11481 -71.43117,159.54597 -159.54597,159.54597 -88.1148,0 -159.546,-71.43116 -159.546,-159.54597 0,-88.11481 71.4312,-159.54598 159.546,-159.54598 88.1148,0 159.54597,71.43117 159.54597,159.54598 z" />
      <rect
         style="fill:#cccccc;fill-opacity:1;stroke:none"
         id="rect4554-3-0-8-6-87-2-2-6-6"
         width="26.467985"
         height="25.682909"
         x="-492.7131"
         y="-5350.2856"
         ry="12.841455"
         transform="scale(1,-1)" />
      <text
         xml:space="preserve"
         style="font-size:21.90477562px;font-style:normal;font-weight:normal;line-height:125%;letter-spacing:0px;word-spacing:0px;fill:#000000;fill-opacity:1;stroke:none;font-family:Sans"
         x="-445.34302"
         y="5343.3555"
         id="text3410-4-1-4-9-5-0-6"
         sodipodi:linespacing="125%"><tspan
           sodipodi:role="line"
           id="tspan3412-6-1-8-6-4-2-7"
           x="-445.34302"
           y="5343.3555">Topical Knowledge Required</tspan></text>
      <path
         transform="matrix(0.12813475,0,0,-0.12813475,143.06096,5323.0706)"
         sodipodi:type="arc"
         style="fill:#1762af;fill-opacity:1;stroke:#1762af;stroke-width:48.12016296;stroke-linejoin:round;stroke-miterlimit:4;stroke-opacity:1;stroke-dasharray:none;stroke-dashoffset:0"
         id="path4254-3-8-5-8-3-9-7-2-5-8-0"
         sodipodi:cx="-1077.1831"
         sodipodi:cy="738.2251"
         sodipodi:rx="159.54597"
         sodipodi:ry="159.54597"
         d="m -917.63713,738.2251 c 0,88.11481 -71.43117,159.54597 -159.54597,159.54597 -88.1148,0 -159.546,-71.43116 -159.546,-159.54597 0,-88.11481 71.4312,-159.54598 159.546,-159.54598 88.1148,0 159.54597,71.43117 159.54597,159.54598 z" />
      <text
         xml:space="preserve"
         style="font-size:21.90477562px;font-style:normal;font-weight:normal;line-height:125%;letter-spacing:0px;word-spacing:0px;fill:#000000;fill-opacity:1;stroke:none;font-family:Sans"
         x="39.08609"
         y="5234.3936"
         id="text3410-4-1-4-9-5-4-5-6"
         sodipodi:linespacing="125%"><tspan
           sodipodi:role="line"
           id="tspan3412-6-1-8-6-4-7-74-4"
           x="39.08609"
           y="5234.3936">Technical</tspan></text>
      <path
         transform="matrix(0.12813475,0,0,-0.12813475,143.06096,5388.785)"
         sodipodi:type="arc"
         style="fill:#70b541;fill-opacity:0.98039216;stroke:#70b541;stroke-width:48.12016296;stroke-linejoin:round;stroke-miterlimit:4;stroke-opacity:0.98039216;stroke-dasharray:none;stroke-dashoffset:0"
         id="path4254-3-8-5-8-3-9-7-2-5-3-2-1"
         sodipodi:cx="-1077.1831"
         sodipodi:cy="738.2251"
         sodipodi:rx="159.54597"
         sodipodi:ry="159.54597"
         d="m -917.63713,738.2251 c 0,88.11481 -71.43117,159.54597 -159.54597,159.54597 -88.1148,0 -159.546,-71.43116 -159.546,-159.54597 0,-88.11481 71.4312,-159.54598 159.546,-159.54598 88.1148,0 159.54597,71.43117 159.54597,159.54598 z" />
      <text
         xml:space="preserve"
         style="font-size:21.90477562px;font-style:normal;font-weight:normal;line-height:125%;letter-spacing:0px;word-spacing:0px;fill:#000000;fill-opacity:1;stroke:none;font-family:Sans"
         x="39.08609"
         y="5300.1079"
         id="text3410-4-1-4-9-5-4-9-6-0"
         sodipodi:linespacing="125%"><tspan
           sodipodi:role="line"
           id="tspan3412-6-1-8-6-4-7-7-93-7"
           x="39.08609"
           y="5300.1079">Security</tspan></text>
      <path
         transform="matrix(0.12813475,0,0,-0.12813475,143.06096,5454.4993)"
         sodipodi:type="arc"
         style="fill:#f15f26;fill-opacity:1;stroke:#f15f26;stroke-width:48.12016296;stroke-linejoin:round;stroke-miterlimit:4;stroke-opacity:1;stroke-dasharray:none;stroke-dashoffset:0"
         id="path4254-3-8-5-8-3-9-7-2-5-3-0-8-6"
         sodipodi:cx="-1077.1831"
         sodipodi:cy="738.2251"
         sodipodi:rx="159.54597"
         sodipodi:ry="159.54597"
         d="m -917.63713,738.2251 c 0,88.11481 -71.43117,159.54597 -159.54597,159.54597 -88.1148,0 -159.546,-71.43116 -159.546,-159.54597 0,-88.11481 71.4312,-159.54598 159.546,-159.54598 88.1148,0 159.54597,71.43117 159.54597,159.54598 z" />
      <text
         xml:space="preserve"
         style="font-size:21.90477562px;font-style:normal;font-weight:normal;line-height:125%;letter-spacing:0px;word-spacing:0px;fill:#000000;fill-opacity:1;stroke:none;font-family:Sans"
         x="39.08609"
         y="5365.8223"
         id="text3410-4-1-4-9-5-4-9-3-7-3"
         sodipodi:linespacing="125%"><tspan
           sodipodi:role="line"
           id="tspan3412-6-1-8-6-4-7-7-9-1-5"
           x="39.08609"
           y="5365.8223">Facilitation</tspan></text>
      <path
         style="fill:none;stroke:#000000;stroke-width:1px;stroke-linecap:butt;stroke-linejoin:miter;stroke-opacity:1"
         d="m -551.283,5183.3572 801.53644,2e-4 0,248.4401 -801.53644,0 z"
         id="path12758-8-8"
         inkscape:connector-curvature="0"
         sodipodi:nodetypes="ccccc" />
      <rect
         style="fill:#ffffff;fill-opacity:1;stroke:none"
         id="rect12760-3-1"
         width="112.43271"
         height="79.790955"
         x="-602.24561"
         y="5140.9023"
         ry="23.449596" />
      <text
         xml:space="preserve"
         style="font-size:45.28767776px;font-style:normal;font-weight:normal;line-height:125%;letter-spacing:0px;word-spacing:0px;fill:#000000;fill-opacity:1;stroke:none;font-family:Sans"
         x="-582.79761"
         y="5197.333"
         id="text11020-4-2-5"
         sodipodi:linespacing="125%"><tspan
           sodipodi:role="line"
           id="tspan11022-9-5-8"
           x="-582.79761"
           y="5197.333">Key</tspan></text>
    </g>
    <a
       style="display:inline"
       transform="matrix(0,1.4358831,-1.4358831,0,794.00348,-628.97663)"
       id="a50096"
       xlink:href="#vulnerability_assessment">
      <g
         id="g28300">
        <path
           transform="matrix(0.05573072,0.05573072,0.05573072,-0.05573072,681.82729,443.65807)"
           sodipodi:type="arc"
           style="fill:#ffffff;fill-opacity:1;stroke:#76b748;stroke-width:48.12016296;stroke-linejoin:round;stroke-miterlimit:4;stroke-opacity:1;stroke-dasharray:none;stroke-dashoffset:0"
           id="path4254-3-8-5-0-09-3-1-5-8-4-2"
           sodipodi:cx="-1077.1831"
           sodipodi:cy="738.2251"
           sodipodi:rx="159.54597"
           sodipodi:ry="159.54597"
           d="m -917.63713,738.2251 c 0,88.11481 -71.43117,159.54597 -159.54597,159.54597 -88.1148,0 -159.546,-71.43116 -159.546,-159.54597 0,-88.11481 71.4312,-159.54598 159.546,-159.54598 88.1148,0 159.54597,71.43117 159.54597,159.54598 z"
           inkscape:export-filename="/home/s2e/work/projects/OI3/SAFETAG/Art/SAFETAG_expertiese_map.png"
           inkscape:export-xdpi="300"
           inkscape:export-ydpi="300" />
        <rect
           style="fill:#0d5cab;fill-opacity:1;stroke:none"
           id="rect4554-3-0-2-5-6-03-3-1-1-5"
           width="16.280338"
           height="15.797441"
           x="702.74481"
           y="218.69296"
           ry="7.8987207"
           transform="matrix(0.70710678,0.70710678,0.70710678,-0.70710678,0,0)"
           inkscape:export-filename="/home/s2e/work/projects/OI3/SAFETAG/Art/SAFETAG_expertiese_map.png"
           inkscape:export-xdpi="300"
           inkscape:export-ydpi="300" />
      </g>
    </a>
    <a
       style="display:inline"
       transform="matrix(1.4358831,0,0,1.4358831,-985.02746,171.78606)"
       id="a57272"
       xlink:href="#reporting">
      <g
         inkscape:export-ydpi="300"
         inkscape:export-xdpi="300"
         inkscape:export-filename="/home/s2e/work/projects/OI3/SAFETAG/Art/SAFETAG_expertiese_map.png"
         transform="matrix(0.31255189,0,0,0.31255189,500.39276,-1347.3349)"
         id="g10723-0-2-6">
        <path
           inkscape:connector-curvature="0"
           style="fill:#f15f26;fill-opacity:1;stroke:none"
           d="m 1273.1875,5357.1875 c -0.4216,0 -0.8312,0.02 -1.25,0.031 l -0.031,42.1562 39.4688,22.8438 c 3.6812,-6.3578 5.7812,-13.7111 5.7812,-21.5626 0,-24.0131 -19.6878,-43.4687 -43.9687,-43.4687 z"
           id="path10522-7-0-2-4-7" />
        <path
           inkscape:connector-curvature="0"
           style="opacity:0.98000004;fill:#f15f26;fill-opacity:1;stroke:none"
           d="m 1272.75,5374.9375 c -0.2796,0 -0.5643,0.022 -0.8438,0.031 l 0,24.4062 24.1563,14 c 5.2302,-9.5881 3.7894,-21.8044 -4.3437,-29.9375 l -1.0938,-1.0937 c -4.9499,-4.95 -11.4151,-7.4063 -17.875,-7.4063 z"
           id="rect4554-3-0-2-5-6-07-1-1-0-1-0-0-1-8-1" />
        <path
           inkscape:connector-curvature="0"
           style="fill:#ffffff;fill-opacity:1;stroke:none"
           d="m 1274.0312,5366.9062 c -0.6961,-0.012 -1.3973,0.032 -2.0937,0.063 l -0.031,7.9062 c 6.9151,-0.2891 13.6471,2.3654 18.9376,7.5312 4.6957,4.5853 7.0534,8.9651 8.0624,15 0.9475,5.6665 -0.1414,11.2445 -2.75,16 l 6.9063,4 c 2.0462,-3.6644 3.4429,-7.7389 4.0313,-12.0937 0.4515,-3.342 0.4672,-5.1783 0.094,-8.3125 -0.956,-8.0229 -4.4882,-15.0177 -10.4375,-20.7188 -6.3379,-6.0734 -14.471,-9.2328 -22.7188,-9.375 z"
           id="path10518-7-1-6-2-8" />
        <g
           id="g10646-3-2-3">
          <path
             inkscape:connector-curvature="0"
             id="path10522-7-9-6-9-3"
             d="m 1271.9375,5399 -37.7187,21.8125 c 7.3483,13.8628 22.0443,23.3125 38.9687,23.3125 16.4943,0 30.8529,-8.9921 38.375,-22.2812 L 1271.9375,5399 z"
             style="fill:#155fa7;fill-opacity:1;stroke:none" />
          <path
             inkscape:connector-curvature="0"
             id="rect4554-3-0-2-5-6-07-1-1-0-1-0-2-5-7-5"
             d="m 1271.9375,5399 -21.75,12.5938 c 1.1838,2.3388 2.7282,4.5406 4.6875,6.5 l 1.0938,1.0937 c 9.8998,9.8999 25.8501,9.8999 35.75,0 1.8665,-1.8666 3.3997,-3.9412 4.5624,-6.1563 L 1271.9375,5399 z"
             style="opacity:0.98000004;fill:#155ca5;fill-opacity:1;stroke:none" />
          <path
             inkscape:connector-curvature="0"
             id="path10518-7-3-4-4-1"
             d="m 1250.0938,5411.625 -7.1876,4.1562 c 0.01,0.021 0.021,0.042 0.031,0.063 3.2923,6.6547 8.8441,12.2273 15.4687,15.5 3.3493,1.6545 5.8713,2.4227 11.0626,3.375 1.4537,0.2667 8.9291,-0.076 10.8437,-0.5 10.0771,-2.2311 18.2852,-8.5917 22.9375,-17.1563 l -6.9062,-4 c -3.4441,6.5109 -9.7158,11.525 -17.4688,13.125 -5.3524,1.1047 -11.1744,0.3639 -16.0625,-2.0313 -5.0219,-2.4609 -9.7158,-6.9359 -12.3125,-11.75 -0.1392,-0.2579 -0.2766,-0.5211 -0.4062,-0.7812 z"
             style="fill:#ffffff;fill-opacity:1;stroke:none" />
        </g>
        <path
           inkscape:connector-curvature="0"
           style="fill:#76b748;fill-opacity:1;stroke:none"
           d="m 1272.2812,5357.1875 c -23.8587,0.4814 -43.0624,19.7578 -43.0624,43.4687 0,7.3054 1.8437,14.1751 5.0624,20.2188 l 38.0626,-22.0312 -0.063,-41.6563 z"
           id="path10522-7-7-7-8" />
        <path
           inkscape:connector-curvature="0"
           style="opacity:0.98000004;fill:#76b748;fill-opacity:1;stroke:none"
           d="m 1272.3125,5374.9375 c -6.3144,0.1085 -12.5985,2.5673 -17.4375,7.4063 -7.9577,7.9577 -9.4917,19.8235 -4.6562,29.3124 l 22.125,-12.8124 -0.031,-23.9063 z"
           id="rect4554-3-0-2-5-6-07-1-1-0-1-0-8-6-8" />
        <path
           inkscape:connector-curvature="0"
           style="fill:#ffffff;fill-opacity:1;stroke:none"
           d="m 1272.3125,5366.9375 c -6.7117,0.2237 -13.4086,2.4371 -19.1563,6.7187 -13.1095,9.7656 -17.4284,27.6149 -10.2187,42.1876 l 7.1875,-4.1563 c -6.369,-12.7002 -1.3697,-27.8391 11.4375,-34.2187 2.755,-1.3724 5.3058,-2.0967 8.6875,-2.4688 0.6858,-0.075 1.379,-0.1078 2.0625,-0.125 l 0,-7.9375 z"
           id="path10518-7-12-6-1" />
      </g>
    </a>
    <a
       style="display:inline"
       transform="matrix(1.4358831,0,0,1.4358831,-1062.5651,249.32375)"
       xlink:href="#follow_up"
       id="a58485">
      <g
         inkscape:export-ydpi="300"
         inkscape:export-xdpi="300"
         inkscape:export-filename="/home/s2e/work/projects/OI3/SAFETAG/Art/SAFETAG_expertiese_map.png"
         transform="matrix(0.31255189,0,0,0.31255189,554.39276,-1347.3349)"
         id="g10723-0-2-6-1">
        <path
           inkscape:connector-curvature="0"
           style="fill:#f15f26;fill-opacity:1;stroke:none"
           d="m 1273.1875,5357.1875 c -0.4216,0 -0.8312,0.02 -1.25,0.031 l -0.031,42.1562 39.4688,22.8438 c 3.6812,-6.3578 5.7812,-13.7111 5.7812,-21.5626 0,-24.0131 -19.6878,-43.4687 -43.9687,-43.4687 z"
           id="path10522-7-0-2-4-7-0" />
        <path
           inkscape:connector-curvature="0"
           style="opacity:0.98000004;fill:#f15f26;fill-opacity:1;stroke:none"
           d="m 1272.75,5374.9375 c -0.2796,0 -0.5643,0.022 -0.8438,0.031 l 0,24.4062 24.1563,14 c 5.2302,-9.5881 3.7894,-21.8044 -4.3437,-29.9375 l -1.0938,-1.0937 c -4.9499,-4.95 -11.4151,-7.4063 -17.875,-7.4063 z"
           id="rect4554-3-0-2-5-6-07-1-1-0-1-0-0-1-8-1-7" />
        <path
           inkscape:connector-curvature="0"
           style="fill:#ffffff;fill-opacity:1;stroke:none"
           d="m 1274.0312,5366.9062 c -0.6961,-0.012 -1.3973,0.032 -2.0937,0.063 l -0.031,7.9062 c 6.9151,-0.2891 13.6471,2.3654 18.9376,7.5312 4.6957,4.5853 7.0534,8.9651 8.0624,15 0.9475,5.6665 -0.1414,11.2445 -2.75,16 l 6.9063,4 c 2.0462,-3.6644 3.4429,-7.7389 4.0313,-12.0937 0.4515,-3.342 0.4672,-5.1783 0.094,-8.3125 -0.956,-8.0229 -4.4882,-15.0177 -10.4375,-20.7188 -6.3379,-6.0734 -14.471,-9.2328 -22.7188,-9.375 z"
           id="path10518-7-1-6-2-8-8" />
        <g
           id="g10646-3-2-3-4">
          <path
             inkscape:connector-curvature="0"
             id="path10522-7-9-6-9-3-0"
             d="m 1271.9375,5399 -37.7187,21.8125 c 7.3483,13.8628 22.0443,23.3125 38.9687,23.3125 16.4943,0 30.8529,-8.9921 38.375,-22.2812 L 1271.9375,5399 z"
             style="fill:#155fa7;fill-opacity:1;stroke:none" />
          <path
             inkscape:connector-curvature="0"
             id="rect4554-3-0-2-5-6-07-1-1-0-1-0-2-5-7-5-1"
             d="m 1271.9375,5399 -21.75,12.5938 c 1.1838,2.3388 2.7282,4.5406 4.6875,6.5 l 1.0938,1.0937 c 9.8998,9.8999 25.8501,9.8999 35.75,0 1.8665,-1.8666 3.3997,-3.9412 4.5624,-6.1563 L 1271.9375,5399 z"
             style="opacity:0.98000004;fill:#155ca5;fill-opacity:1;stroke:none" />
          <path
             inkscape:connector-curvature="0"
             id="path10518-7-3-4-4-1-5"
             d="m 1250.0938,5411.625 -7.1876,4.1562 c 0.01,0.021 0.021,0.042 0.031,0.063 3.2923,6.6547 8.8441,12.2273 15.4687,15.5 3.3493,1.6545 5.8713,2.4227 11.0626,3.375 1.4537,0.2667 8.9291,-0.076 10.8437,-0.5 10.0771,-2.2311 18.2852,-8.5917 22.9375,-17.1563 l -6.9062,-4 c -3.4441,6.5109 -9.7158,11.525 -17.4688,13.125 -5.3524,1.1047 -11.1744,0.3639 -16.0625,-2.0313 -5.0219,-2.4609 -9.7158,-6.9359 -12.3125,-11.75 -0.1392,-0.2579 -0.2766,-0.5211 -0.4062,-0.7812 z"
             style="fill:#ffffff;fill-opacity:1;stroke:none" />
        </g>
        <path
           inkscape:connector-curvature="0"
           style="fill:#76b748;fill-opacity:1;stroke:none"
           d="m 1272.2812,5357.1875 c -23.8587,0.4814 -43.0624,19.7578 -43.0624,43.4687 0,7.3054 1.8437,14.1751 5.0624,20.2188 l 38.0626,-22.0312 -0.063,-41.6563 z"
           id="path10522-7-7-7-8-0" />
        <path
           inkscape:connector-curvature="0"
           style="opacity:0.98000004;fill:#76b748;fill-opacity:1;stroke:none"
           d="m 1272.3125,5374.9375 c -6.3144,0.1085 -12.5985,2.5673 -17.4375,7.4063 -7.9577,7.9577 -9.4917,19.8235 -4.6562,29.3124 l 22.125,-12.8124 -0.031,-23.9063 z"
           id="rect4554-3-0-2-5-6-07-1-1-0-1-0-8-6-8-6" />
        <path
           inkscape:connector-curvature="0"
           style="fill:#ffffff;fill-opacity:1;stroke:none"
           d="m 1272.3125,5366.9375 c -6.7117,0.2237 -13.4086,2.4371 -19.1563,6.7187 -13.1095,9.7656 -17.4284,27.6149 -10.2187,42.1876 l 7.1875,-4.1563 c -6.369,-12.7002 -1.3697,-27.8391 11.4375,-34.2187 2.755,-1.3724 5.3058,-2.0967 8.6875,-2.4688 0.6858,-0.075 1.379,-0.1078 2.0625,-0.125 l 0,-7.9375 z"
           id="path10518-7-12-6-1-2" />
      </g>
    </a>
    <text
       inkscape:export-ydpi="300"
       inkscape:export-xdpi="300"
       inkscape:export-filename="/home/s2e/work/projects/OI3/SAFETAG/Art/SAFETAG_expertiese_map.png"
       sodipodi:linespacing="100%"
       id="text6735-3-7-2-2-3-77-3-5-9-7-6-9-6-4-3"
       y="659.54987"
       x="279.69333"
       style="font-size:8.97575951px;font-style:normal;font-weight:normal;text-align:end;line-height:100%;letter-spacing:0px;word-spacing:0px;text-anchor:end;fill:#000000;fill-opacity:1;stroke:none;display:inline;font-family:Sans"
       xml:space="preserve"><tspan
         id="tspan12511-1-2-0-6-2"
         style="font-size:9.87333488px;font-style:normal;font-variant:normal;font-weight:bold;font-stretch:normal;text-align:end;line-height:100%;text-anchor:end;font-family:Droid Sans;-inkscape-font-specification:Droid Sans Bold"
         y="659.54987"
         x="279.69333"
         sodipodi:role="line">Report</tspan><tspan
         style="font-size:9.87333488px;font-style:normal;font-variant:normal;font-weight:bold;font-stretch:normal;text-align:end;line-height:100%;text-anchor:end;font-family:Droid Sans;-inkscape-font-specification:Droid Sans Bold"
         y="669.42322"
         x="279.69333"
         sodipodi:role="line"
         id="tspan16797">Creation</tspan></text>
    <text
       inkscape:export-ydpi="300"
       inkscape:export-xdpi="300"
       inkscape:export-filename="/home/s2e/work/projects/OI3/SAFETAG/Art/SAFETAG_expertiese_map.png"
       sodipodi:linespacing="100%"
       id="text6735-3-7-2-2-3-77-3-5-9-7-6-9-6-4-3-3"
       y="741.39746"
       x="257.78195"
       style="font-size:8.97575951px;font-style:normal;font-weight:normal;text-align:center;line-height:100%;letter-spacing:0px;word-spacing:0px;text-anchor:middle;fill:#000000;fill-opacity:1;stroke:none;display:inline;font-family:Sans"
       xml:space="preserve"><tspan
         id="tspan12511-1-2-0-6-2-2"
         style="font-size:9.87333488px;font-style:normal;font-variant:normal;font-weight:bold;font-stretch:normal;text-align:center;line-height:100%;text-anchor:middle;font-family:Droid Sans;-inkscape-font-specification:Droid Sans Bold"
         y="741.39746"
         x="257.78195"
         sodipodi:role="line">Follow-up</tspan></text>
    <rect
       style="color:#000000;fill:none;stroke:#cccccc;stroke-width:7.17941523;stroke-linecap:round;stroke-linejoin:round;stroke-miterlimit:4;stroke-opacity:1;stroke-dasharray:none;stroke-dashoffset:0;marker:none;visibility:visible;display:inline;overflow:visible;enable-background:accumulate"
       id="rect289295-6-8"
       width="322.82162"
       height="525.75757"
       x="139.66483"
       y="260.36523"
       ry="17.509188" />
    <text
       inkscape:export-ydpi="300"
       inkscape:export-xdpi="300"
       inkscape:export-filename="/home/s2e/work/projects/OI3/SAFETAG/Art/SAFETAG_expertiese_map.png"
       sodipodi:linespacing="125%"
       id="text3410-8-0-3-0-0"
       y="810.6109"
       x="261.55765"
       style="font-size:17.95151901px;font-style:normal;font-weight:normal;line-height:125%;letter-spacing:0px;word-spacing:0px;fill:#000000;fill-opacity:1;stroke:none;display:inline;font-family:Sans"
       xml:space="preserve"><tspan
         y="810.6109"
         x="261.55765"
         id="tspan3412-4-8-4-9-9"
         sodipodi:role="line">Reporting</tspan></text>
    <path
       sodipodi:type="arc"
       style="color:#000000;fill:#ffffff;fill-opacity:1;fill-rule:nonzero;stroke:#cccccc;stroke-width:5;stroke-linecap:butt;stroke-linejoin:round;stroke-miterlimit:4;stroke-opacity:1;stroke-dasharray:none;stroke-dashoffset:0;marker:none;visibility:visible;display:inline;overflow:visible;enable-background:accumulate"
       id="path289385-1-7"
       sodipodi:cx="257.70868"
       sodipodi:cy="236.29301"
       sodipodi:rx="20.196604"
       sodipodi:ry="20.196604"
       d="m 277.90528,236.29301 c 0,11.15428 -9.04232,20.19661 -20.1966,20.19661 -11.15428,0 -20.1966,-9.04233 -20.1966,-20.19661 0,-11.15427 9.04232,-20.1966 20.1966,-20.1966 11.15428,0 20.1966,9.04233 20.1966,20.1966 z"
       transform="matrix(1.4358831,0,0,1.4358831,-231.35026,-79.309032)" />
    <text
       xml:space="preserve"
       style="font-size:39.44666672px;font-style:normal;font-variant:normal;font-weight:normal;font-stretch:normal;line-height:125%;letter-spacing:0px;word-spacing:0px;fill:#808080;fill-opacity:1;stroke:none;font-family:Sans;-inkscape-font-specification:Sans"
       x="126.24298"
       y="273.76038"
       id="text289387-9-2"
       sodipodi:linespacing="125%"><tspan
         sodipodi:role="line"
         id="tspan289389-0-6"
         x="126.24298"
         y="273.76038">4</tspan></text>
  </g>
</svg>
