<?xml version="1.0" encoding="UTF-8" standalone="no"?>
<svg
   version="1.1"
   viewBox="0 0 48 48"
   id="svg4"
   sodipodi:docname="language-white.svg"
   inkscape:version="1.1.1 (3bf5ae0d25, 2021-09-20)"
   xmlns:inkscape="http://www.inkscape.org/namespaces/inkscape"
   xmlns:sodipodi="http://sodipodi.sourceforge.net/DTD/sodipodi-0.dtd"
   xmlns="http://www.w3.org/2000/svg"
   xmlns:svg="http://www.w3.org/2000/svg">
  <defs
     id="defs8" />
  <sodipodi:namedview
     id="namedview6"
     pagecolor="#ffffff"
     bordercolor="#666666"
     borderopacity="1.0"
     inkscape:pageshadow="2"
     inkscape:pageopacity="0.0"
     inkscape:pagecheckerboard="0"
     showgrid="false"
     inkscape:zoom="4.1041668"
     inkscape:cx="25.461928"
     inkscape:cy="7.0659897"
     inkscape:window-width="1920"
     inkscape:window-height="1036"
     inkscape:window-x="0"
     inkscape:window-y="24"
     inkscape:window-maximized="1"
     inkscape:current-layer="svg4"
     inkscape:snap-page="true"
     inkscape:snap-nodes="false"
     inkscape:snap-bbox="true"
     inkscape:bbox-nodes="true" />
  <path
     d="m 41.878644,8.0409869 c -0.0112,-0.014399 -0.0128,-0.033598 -0.0256,-0.046397 -0.0592,-0.065595 -0.12639,-0.1215908 -0.185586,-0.1855859 Q 40.982712,7.0602612 40.237169,6.3691136 C 40.118778,6.2603219 40.001986,6.1515301 39.880396,6.0491379 39.371634,5.5979722 38.843674,5.1724045 38.298116,4.7692351 38.186124,4.6860414 38.077332,4.6012478 37.963741,4.519654 Q 37.093407,3.8925015 36.165477,3.3485428 C 36.080684,3.2989465 36.005489,3.2445507 35.914296,3.1885549 Q 34.915972,2.6157983 33.860052,2.1374346 l -0.12639,-0.060795 A 23.934185,23.934185 0 0 0 31.452235,1.1935061 l -0.0256,-0.0096 A 23.636608,23.636608 0 0 0 29.026819,0.53435606 h -0.0176 Q 27.842908,0.28797474 26.6382,0.15358493 c -0.04,0 -0.07839,-0.0143989 -0.118391,-0.0191985 a 23.691004,23.691004 0 0 0 -5.039618,0 c -0.04,0 -0.07839,0.0143989 -0.118391,0.0191985 q -1.204709,0.13119006 -2.371021,0.38077113 h -0.0176 A 23.636608,23.636608 0 0 0 16.573363,1.1839068 l -0.0272,0.0096 a 24.070175,24.070175 0 0 0 -2.279828,0.8831331 c -0.0432,0.019199 -0.08479,0.041597 -0.12799,0.062395 q -1.05432,0.4799636 -2.052642,1.0495204 c -0.08479,0.049596 -0.159988,0.1039921 -0.251181,0.1599879 Q 10.908194,3.8957013 10.03626,4.519654 C 9.9226686,4.6012478 9.8138769,4.6796419 9.7018854,4.7692351 9.1563251,5.1772041 8.6283658,5.6027719 8.1196044,6.0491379 7.9980136,6.1563297 7.8812225,6.2651215 7.7628314,6.3691136 Q 7.017288,7.0554616 6.3325399,7.8090045 c -0.059196,0.063995 -0.1263905,0.1199909 -0.185586,0.1855859 -0.012799,0.012799 -0.014399,0.031998 -0.025598,0.046397 a 23.850992,23.850992 0 0 0 0,31.9079806 c 0.011199,0.0144 0.012799,0.0336 0.025598,0.0464 0.059196,0.0656 0.1263905,0.12159 0.185586,0.185586 q 0.6847481,0.748743 1.4302915,1.43989 c 0.1183911,0.108792 0.2351822,0.217584 0.356773,0.319976 0.5087614,0.451166 1.0367207,0.876734 1.582281,1.279903 0.1119915,0.08319 0.2207832,0.159988 0.3343746,0.249581 q 0.870334,0.625553 1.798264,1.171111 c 0.08479,0.0496 0.159988,0.103992 0.251181,0.159988 q 0.998322,0.571157 2.049442,1.049521 c 0.0448,0.0192 0.08799,0.0432 0.13279,0.0624 a 23.287834,23.287834 0 0 0 2.278228,0.881533 l 0.0272,0.0112 a 23.636608,23.636608 0 0 0 2.399818,0.649551 h 0.0176 q 1.166312,0.246381 2.371021,0.380771 c 0.04,0 0.07839,0.0144 0.118391,0.0192 a 23.691004,23.691004 0 0 0 5.039618,0 c 0.04,0 0.07839,-0.0144 0.118391,-0.0192 q 1.204708,-0.13279 2.37102,-0.380771 h 0.0176 a 23.636608,23.636608 0 0 0 2.399818,-0.649551 l 0.0272,-0.0112 a 23.287834,23.287834 0 0 0 2.278227,-0.881533 c 0.0448,-0.0192 0.08639,-0.0432 0.13119,-0.0624 q 1.05432,-0.479964 2.051044,-1.049521 c 0.08479,-0.0496 0.159988,-0.103992 0.251181,-0.159988 q 0.92633,-0.547158 1.798264,-1.171111 c 0.113591,-0.08159 0.222383,-0.159988 0.334375,-0.249581 0.545558,-0.407969 1.073518,-0.833537 1.58228,-1.279903 0.12159,-0.107192 0.238382,-0.215984 0.356773,-0.319976 q 0.747143,-0.686348 1.430291,-1.43989 c 0.0592,-0.064 0.126391,-0.119991 0.185586,-0.185586 0.0128,-0.0128 0.0144,-0.032 0.0256,-0.0464 a 23.850992,23.850992 0 0 0 0,-31.9079806 z M 40.257967,36.933197 a 29.405771,29.405771 0 0 0 -4.870031,-1.841461 41.665641,41.665641 0 0 0 1.371096,-9.49688 h 7.959397 a 20.680032,20.680032 0 0 1 -4.460462,11.338341 z m -2.419017,2.545407 q -0.607953,0.542359 -1.249505,1.033521 c -0.08319,0.064 -0.167987,0.126391 -0.252781,0.188786 q -0.65115,0.479964 -1.332699,0.911931 l -0.267179,0.159988 c -0.457566,0.278379 -0.92633,0.540759 -1.403094,0.782341 -0.09919,0.0496 -0.198385,0.09439 -0.297577,0.142389 q -0.675149,0.329575 -1.369497,0.606354 a 22.785473,22.785473 0 0 0 2.719794,-5.159609 28.010676,28.010676 0 0 1 3.56293,1.230307 z M 14.669507,42.553571 C 14.189543,42.311989 13.723978,42.049609 13.266413,41.77123 l -0.267179,-0.159988 q -0.683147,-0.430367 -1.332698,-0.911931 c -0.08479,-0.0624 -0.169587,-0.12479 -0.25278,-0.188785 Q 10.773804,40.019363 10.16425,39.477004 l -0.111991,-0.102392 a 28.010676,28.010676 0 0 1 3.562928,-1.230307 22.785473,22.785473 0 0 0 2.719794,5.159609 Q 15.639033,43.025535 14.965484,42.69756 c -0.09759,-0.0464 -0.196785,-0.09119 -0.295977,-0.143989 z M 3.2847709,25.594856 h 7.9593971 a 41.665641,41.665641 0 0 0 1.371095,9.49688 A 29.405771,29.405771 0 0 0 7.7452328,36.933197 20.680032,20.680032 0 0 1 3.2847709,25.594856 Z M 7.7452328,11.056758 a 29.405771,29.405771 0 0 0 4.8700302,1.841461 41.665641,41.665641 0 0 0 -1.371095,9.49688 H 3.2847709 A 20.680032,20.680032 0 0 1 7.7452328,11.056758 Z M 10.16425,8.5113512 q 0.607954,-0.5423589 1.249506,-1.0335216 c 0.08319,-0.063995 0.159987,-0.1263905 0.25278,-0.1887857 q 0.647951,-0.4799636 1.331098,-0.910331 L 13.268013,6.218725 c 0.457565,-0.276779 0.92473,-0.5391589 1.401494,-0.7807406 0.09919,-0.049596 0.198385,-0.094393 0.297577,-0.1423892 Q 15.640633,4.9660201 16.336581,4.6892411 A 22.750275,22.750275 0 0 0 13.616787,9.8488498 28.010676,28.010676 0 0 1 10.053859,8.6185431 Z M 33.333692,5.4363845 c 0.479964,0.2415817 0.943928,0.5039616 1.401494,0.7807406 l 0.270379,0.1599879 q 0.681549,0.4271676 1.331099,0.910331 c 0.08479,0.062395 0.169587,0.1247905 0.252781,0.1887857 q 0.639952,0.4927626 1.249505,1.0335216 l 0.111992,0.1023923 a 28.010676,28.010676 0 0 1 -3.56293,1.2303067 22.750275,22.750275 0 0 0 -2.719794,-5.1596087 q 0.695948,0.2783789 1.369496,0.606354 c 0.09759,0.049596 0.196786,0.094393 0.295978,0.1471889 z M 22.401721,11.16075 A 40.704114,40.704114 0 0 1 16.73815,10.557596 c 1.503886,-3.705319 3.550131,-6.1771315 5.663571,-7.0250672 z m 0,3.199758 v 8.034591 h -7.959397 a 38.454685,38.454685 0 0 1 1.265504,-8.776934 43.356713,43.356713 0 0 0 6.693893,0.735944 z m 0,11.234348 v 8.040991 a 43.356713,43.356713 0 0 0 -6.693893,0.735944 38.454685,38.454685 0 0 1 -1.265504,-8.776935 z m 0,11.234349 v 7.628221 c -2.11344,-0.847935 -4.159685,-3.319748 -5.663571,-7.025067 a 40.704114,40.704114 0 0 1 5.663571,-0.603154 z m 3.199757,0 a 40.704114,40.704114 0 0 1 5.663571,0.603154 c -1.503886,3.705319 -3.550131,6.177132 -5.663571,7.025067 z m 0,-3.199758 v -8.034591 h 7.959397 a 38.454685,38.454685 0 0 1 -1.265504,8.776935 43.356713,43.356713 0 0 0 -6.693893,-0.735944 z m 0,-11.234348 v -8.04099 a 43.356713,43.356713 0 0 0 6.693893,-0.735944 38.454685,38.454685 0 0 1 1.265504,8.776934 z m 0,-11.234349 V 3.5325288 c 2.11344,0.8479357 4.159685,3.3197482 5.663571,7.0250672 a 40.704114,40.704114 0 0 1 -5.663571,0.603154 z m 11.157554,11.234349 a 41.665641,41.665641 0 0 0 -1.371096,-9.49688 29.405771,29.405771 0 0 0 4.870031,-1.841461 20.680032,20.680032 0 0 1 4.460462,11.338341 z"
     id="path4"
     style="stroke-width:1.59988;fill:#ffffff" />
</svg>
