<?xml version="1.0" encoding="UTF-8" standalone="no"?>
<!-- Created with Inkscape (http://www.inkscape.org/) -->

<svg
   xmlns:dc="http://purl.org/dc/elements/1.1/"
   xmlns:cc="http://creativecommons.org/ns#"
   xmlns:rdf="http://www.w3.org/1999/02/22-rdf-syntax-ns#"
   xmlns:svg="http://www.w3.org/2000/svg"
   xmlns="http://www.w3.org/2000/svg"
   xmlns:sodipodi="http://sodipodi.sourceforge.net/DTD/sodipodi-0.dtd"
   xmlns:inkscape="http://www.inkscape.org/namespaces/inkscape"
   width="350.73816"
   height="63.405758"
   id="svg2"
   version="1.1"
   inkscape:version="0.48.4 r9939"
   sodipodi:docname="risk_equation.svg">
  <defs
     id="defs4" />
  <sodipodi:namedview
     id="base"
     pagecolor="#ffffff"
     bordercolor="#666666"
     borderopacity="1.0"
     inkscape:pageopacity="0.0"
     inkscape:pageshadow="2"
     inkscape:zoom="2.2588938"
     inkscape:cx="123.99279"
     inkscape:cy="-1.8677885"
     inkscape:document-units="px"
     inkscape:current-layer="layer1"
     showgrid="false"
     inkscape:window-width="1871"
     inkscape:window-height="1056"
     inkscape:window-x="49"
     inkscape:window-y="24"
     inkscape:window-maximized="1"
     fit-margin-top="10"
     fit-margin-left="10"
     fit-margin-right="10"
     fit-margin-bottom="10"
     units="px"
     showguides="true"
     inkscape:guide-bbox="true">
    <sodipodi:guide
       orientation="0,1"
       position="140.33418,38.957122"
       id="guide3039" />
    <sodipodi:guide
       orientation="0,1"
       position="201.42603,10.181975"
       id="guide3041" />
    <sodipodi:guide
       orientation="0,1"
       position="130.1522,38.957122"
       id="guide3043" />
  </sodipodi:namedview>
  <metadata
     id="metadata7">
    <rdf:RDF>
      <cc:Work
         rdf:about="">
        <dc:format>image/svg+xml</dc:format>
        <dc:type
           rdf:resource="http://purl.org/dc/dcmitype/StillImage" />
        <dc:title />
      </cc:Work>
    </rdf:RDF>
  </metadata>
  <g
     inkscape:label="Layer 1"
     inkscape:groupmode="layer"
     id="layer1"
     transform="translate(23.831913,-320.85392)">
    <path
       style="fill:#79b84c;fill-opacity:1;stroke:#79b84c;stroke-width:1.97350037px;stroke-linecap:butt;stroke-linejoin:miter;stroke-opacity:1"
       d="m 67.236472,351.82562 255.663418,0"
       id="path2989"
       inkscape:connector-curvature="0"
       sodipodi:nodetypes="cc" />
    <text
       sodipodi:linespacing="125%"
       id="text3021"
       y="358.10919"
       x="9.8443718"
       style="font-size:40px;font-style:normal;font-weight:normal;text-align:center;line-height:125%;letter-spacing:0px;word-spacing:0px;text-anchor:middle;fill:#000000;fill-opacity:1;stroke:none;font-family:Sans"
       xml:space="preserve"><tspan
         style="font-size:16px"
         y="358.10919"
         x="9.8443718"
         id="tspan3023"
         sodipodi:role="line">RIESGO</tspan></text>
    <text
       sodipodi:linespacing="125%"
       id="text3025"
       y="345.30255"
       x="108.32029"
       style="font-size:20px;font-style:normal;font-weight:normal;text-align:center;line-height:125%;letter-spacing:0px;word-spacing:0px;text-anchor:middle;fill:#000000;fill-opacity:1;stroke:none;font-family:Sans"
       xml:space="preserve"><tspan
         style="font-size:16px"
         y="345.30255"
         x="108.32029"
         id="tspan3027"
         sodipodi:role="line">AMENAZA</tspan></text>
    <text
       sodipodi:linespacing="125%"
       id="text3031"
       y="345.30255"
       x="242.68597"
       style="font-size:40px;font-style:normal;font-weight:normal;text-align:center;line-height:125%;letter-spacing:0px;word-spacing:0px;text-anchor:middle;fill:#000000;fill-opacity:1;stroke:none;font-family:Sans"
       xml:space="preserve"><tspan
         style="font-size:16px"
         y="345.30255"
         x="242.68597"
         id="tspan3033"
         sodipodi:role="line">VULNERABILIDAD</tspan></text>
    <text
       sodipodi:linespacing="125%"
       id="text3035"
       y="370.0777"
       x="183.59412"
       style="font-size:40px;font-style:normal;font-weight:normal;text-align:center;line-height:125%;letter-spacing:0px;word-spacing:0px;text-anchor:middle;fill:#000000;fill-opacity:1;stroke:none;font-family:Sans"
       xml:space="preserve"><tspan
         style="font-size:16px"
         y="370.0777"
         x="183.59412"
         id="tspan3037"
         sodipodi:role="line">CAPACIDAD</tspan></text>
    <g
       inkscape:groupmode="layer"
       id="layer2"
       inkscape:label="Layer"
       style="display:none"
       sodipodi:insensitive="true">
      <path
         inkscape:connector-curvature="0"
         d="m 61.977357,330.0979 12.170563,0 0,1.63816 -5.107204,0 0,12.74873 -1.956155,0 0,-12.74873 -5.107204,0 0,-1.63816"
         style="font-size:19.73500633px;font-style:normal;font-weight:normal;text-align:center;line-height:125%;letter-spacing:0px;word-spacing:0px;text-anchor:middle;fill:#000000;fill-opacity:1;stroke:none;font-family:Sans"
         id="path3513" />
      <path
         inkscape:connector-curvature="0"
         d="m 76.036622,330.0979 1.946519,0 0,5.89737 7.072995,0 0,-5.89737 1.946519,0 0,14.38689 -1.946519,0 0,-6.85136 -7.072995,0 0,6.85136 -1.946519,0 0,-14.38689"
         style="font-size:19.73500633px;font-style:normal;font-weight:normal;text-align:center;line-height:125%;letter-spacing:0px;word-spacing:0px;text-anchor:middle;fill:#000000;fill-opacity:1;stroke:none;font-family:Sans"
         id="path3515" />
      <path
         inkscape:connector-curvature="0"
         d="m 97.698875,337.73943 c 0.417561,0.14134 0.822283,0.44327 1.214166,0.90581 0.398287,0.46254 0.796585,1.09853 1.194889,1.90797 l 1.97543,3.93158 -2.09106,0 -1.840522,-3.69067 c -0.475396,-0.96362 -0.937935,-1.60282 -1.387617,-1.91761 -0.443274,-0.31478 -1.050357,-0.47217 -1.821248,-0.47218 l -2.119972,0 0,6.08046 -1.946519,0 0,-14.38689 4.394122,0 c 1.644576,1e-5 2.871589,0.3437 3.681042,1.03107 0.809433,0.6874 1.214154,1.7249 1.214164,3.11251 -1e-5,0.90581 -0.212006,1.65744 -0.635989,2.25488 -0.417582,0.59745 -1.027876,1.01181 -1.830886,1.24307 m -4.875934,-6.04192 0,5.10721 2.447603,0 c 0.93792,0 1.644576,-0.21521 2.119972,-0.64563 0.481803,-0.43684 0.722708,-1.07604 0.722717,-1.91761 -9e-6,-0.84156 -0.240914,-1.47433 -0.722717,-1.89834 -0.475396,-0.43041 -1.182052,-0.64561 -2.119972,-0.64563 l -2.447603,0"
         style="font-size:19.73500633px;font-style:normal;font-weight:normal;text-align:center;line-height:125%;letter-spacing:0px;word-spacing:0px;text-anchor:middle;fill:#000000;fill-opacity:1;stroke:none;font-family:Sans"
         id="path3517" />
      <path
         inkscape:connector-curvature="0"
         d="m 104.59842,330.0979 9.09661,0 0,1.63816 -7.15009,0 0,4.25921 6.85136,0 0,1.63816 -6.85136,0 0,5.2132 7.32354,0 0,1.63816 -9.27006,0 0,-14.38689"
         style="font-size:19.73500633px;font-style:normal;font-weight:normal;text-align:center;line-height:125%;letter-spacing:0px;word-spacing:0px;text-anchor:middle;fill:#000000;fill-opacity:1;stroke:none;font-family:Sans"
         id="path3519" />
      <path
         inkscape:connector-curvature="0"
         d="m 121.89546,332.01551 -2.64033,7.15972 5.2903,0 -2.64997,-7.15972 m -1.09853,-1.91761 2.2067,0 5.48302,14.38689 -2.02361,0 -1.31053,-3.69067 -6.48519,0 -1.31052,3.69067 -2.05252,0 5.49265,-14.38689"
         style="font-size:19.73500633px;font-style:normal;font-weight:normal;text-align:center;line-height:125%;letter-spacing:0px;word-spacing:0px;text-anchor:middle;fill:#000000;fill-opacity:1;stroke:none;font-family:Sans"
         id="path3521" />
      <path
         inkscape:connector-curvature="0"
         d="m 127.04121,330.0979 12.17056,0 0,1.63816 -5.1072,0 0,12.74873 -1.95616,0 0,-12.74873 -5.1072,0 0,-1.63816"
         style="font-size:19.73500633px;font-style:normal;font-weight:normal;text-align:center;line-height:125%;letter-spacing:0px;word-spacing:0px;text-anchor:middle;fill:#000000;fill-opacity:1;stroke:none;font-family:Sans"
         id="path3523" />
      <path
         inkscape:connector-curvature="0"
         d="m 169.94172,344.48479 -5.49265,-14.38689 2.03324,0 4.55794,12.11274 4.56758,-12.11274 2.02361,0 -5.48302,14.38689 -2.2067,0"
         style="font-size:19.73500633px;font-style:normal;font-weight:normal;text-align:center;line-height:125%;letter-spacing:0px;word-spacing:0px;text-anchor:middle;fill:#000000;fill-opacity:1;stroke:none;font-family:Sans"
         id="path3525" />
      <path
         inkscape:connector-curvature="0"
         d="m 179.50087,330.0979 1.95615,0 0,8.74006 c 0,1.5418 0.27945,2.65318 0.83836,3.33414 0.55889,0.67454 1.4647,1.0118 2.71741,1.0118 1.24628,0 2.14887,-0.33726 2.70779,-1.0118 0.55889,-0.68096 0.83834,-1.79234 0.83835,-3.33414 l 0,-8.74006 1.95615,0 0,8.98097 c -1e-5,1.87585 -0.46576,3.29238 -1.39725,4.24958 -0.92509,0.9572 -2.29343,1.43579 -4.10504,1.43579 -1.81804,0 -3.19281,-0.47859 -4.1243,-1.43579 -0.92508,-0.9572 -1.38762,-2.37373 -1.38762,-4.24958 l 0,-8.98097"
         style="font-size:19.73500633px;font-style:normal;font-weight:normal;text-align:center;line-height:125%;letter-spacing:0px;word-spacing:0px;text-anchor:middle;fill:#000000;fill-opacity:1;stroke:none;font-family:Sans"
         id="path3527" />
      <path
         inkscape:connector-curvature="0"
         d="m 194.17685,330.0979 1.94652,0 0,12.74873 7.00554,0 0,1.63816 -8.95206,0 0,-14.38689"
         style="font-size:19.73500633px;font-style:normal;font-weight:normal;text-align:center;line-height:125%;letter-spacing:0px;word-spacing:0px;text-anchor:middle;fill:#000000;fill-opacity:1;stroke:none;font-family:Sans"
         id="path3529" />
      <path
         inkscape:connector-curvature="0"
         d="m 205.16215,330.0979 2.62106,0 6.37919,12.03565 0,-12.03565 1.8887,0 0,14.38689 -2.62106,0 -6.37918,-12.03565 0,12.03565 -1.88871,0 0,-14.38689"
         style="font-size:19.73500633px;font-style:normal;font-weight:normal;text-align:center;line-height:125%;letter-spacing:0px;word-spacing:0px;text-anchor:middle;fill:#000000;fill-opacity:1;stroke:none;font-family:Sans"
         id="path3531" />
      <path
         inkscape:connector-curvature="0"
         d="m 219.92486,330.0979 9.09661,0 0,1.63816 -7.15009,0 0,4.25921 6.85137,0 0,1.63816 -6.85137,0 0,5.2132 7.32354,0 0,1.63816 -9.27006,0 0,-14.38689"
         style="font-size:19.73500633px;font-style:normal;font-weight:normal;text-align:center;line-height:125%;letter-spacing:0px;word-spacing:0px;text-anchor:middle;fill:#000000;fill-opacity:1;stroke:none;font-family:Sans"
         id="path3533" />
      <path
         inkscape:connector-curvature="0"
         d="m 239.23587,337.73943 c 0.41756,0.14134 0.82229,0.44327 1.21417,0.90581 0.39829,0.46254 0.79658,1.09853 1.19489,1.90797 l 1.97543,3.93158 -2.09106,0 -1.84052,-3.69067 c -0.4754,-0.96362 -0.93794,-1.60282 -1.38762,-1.91761 -0.44328,-0.31478 -1.05036,-0.47217 -1.82125,-0.47218 l -2.11997,0 0,6.08046 -1.94652,0 0,-14.38689 4.39412,0 c 1.64458,1e-5 2.87159,0.3437 3.68104,1.03107 0.80944,0.6874 1.21416,1.7249 1.21417,3.11251 -1e-5,0.90581 -0.21201,1.65744 -0.63599,2.25488 -0.41758,0.59745 -1.02788,1.01181 -1.83089,1.24307 m -4.87593,-6.04192 0,5.10721 2.4476,0 c 0.93792,0 1.64458,-0.21521 2.11997,-0.64563 0.48181,-0.43684 0.72271,-1.07604 0.72272,-1.91761 -1e-5,-0.84156 -0.24091,-1.47433 -0.72272,-1.89834 -0.47539,-0.43041 -1.18205,-0.64561 -2.11997,-0.64563 l -2.4476,0"
         style="font-size:19.73500633px;font-style:normal;font-weight:normal;text-align:center;line-height:125%;letter-spacing:0px;word-spacing:0px;text-anchor:middle;fill:#000000;fill-opacity:1;stroke:none;font-family:Sans"
         id="path3535" />
      <path
         inkscape:connector-curvature="0"
         d="m 250.13445,332.01551 -2.64033,7.15972 5.2903,0 -2.64997,-7.15972 m -1.09853,-1.91761 2.2067,0 5.48302,14.38689 -2.02361,0 -1.31053,-3.69067 -6.48519,0 -1.31052,3.69067 -2.05252,0 5.49265,-14.38689"
         style="font-size:19.73500633px;font-style:normal;font-weight:normal;text-align:center;line-height:125%;letter-spacing:0px;word-spacing:0px;text-anchor:middle;fill:#000000;fill-opacity:1;stroke:none;font-family:Sans"
         id="path3537" />
      <path
         inkscape:connector-curvature="0"
         d="m 260.76323,337.61416 0,5.27102 3.12214,0 c 1.04713,0 1.82124,-0.21521 2.32233,-0.64563 0.5075,-0.43684 0.76125,-1.10174 0.76126,-1.9947 -10e-6,-0.89938 -0.25376,-1.56106 -0.76126,-1.98506 -0.50109,-0.43041 -1.2752,-0.64562 -2.32233,-0.64563 l -3.12214,0 m 0,-5.91665 0,4.33631 2.88123,0 c 0.95077,1e-5 1.65743,-0.17666 2.11997,-0.53 0.46896,-0.35974 0.70344,-0.90579 0.70345,-1.63816 -10e-6,-0.72591 -0.23449,-1.26875 -0.70345,-1.62852 -0.46254,-0.35974 -1.1692,-0.53961 -2.11997,-0.53963 l -2.88123,0 m -1.94652,-1.59961 4.9723,0 c 1.48397,1e-5 2.62747,0.30837 3.4305,0.92508 0.803,0.61673 1.20451,1.49362 1.20452,2.63069 -1e-5,0.88012 -0.20558,1.58035 -0.61671,2.1007 -0.41116,0.52036 -1.01503,0.84478 -1.81162,0.97326 0.95719,0.20558 1.69918,0.63599 2.22597,1.29125 0.5332,0.64885 0.7998,1.4615 0.79981,2.43797 -10e-6,1.28483 -0.43685,2.27736 -1.31053,2.97759 -0.87369,0.70024 -2.11676,1.05035 -3.72922,1.05035 l -5.16502,0 0,-14.38689"
         style="font-size:19.73500633px;font-style:normal;font-weight:normal;text-align:center;line-height:125%;letter-spacing:0px;word-spacing:0px;text-anchor:middle;fill:#000000;fill-opacity:1;stroke:none;font-family:Sans"
         id="path3539" />
      <path
         inkscape:connector-curvature="0"
         d="m 272.34598,330.0979 1.94652,0 0,14.38689 -1.94652,0 0,-14.38689"
         style="font-size:19.73500633px;font-style:normal;font-weight:normal;text-align:center;line-height:125%;letter-spacing:0px;word-spacing:0px;text-anchor:middle;fill:#000000;fill-opacity:1;stroke:none;font-family:Sans"
         id="path3541" />
      <path
         inkscape:connector-curvature="0"
         d="m 278.16626,330.0979 1.94652,0 0,12.74873 7.00554,0 0,1.63816 -8.95206,0 0,-14.38689"
         style="font-size:19.73500633px;font-style:normal;font-weight:normal;text-align:center;line-height:125%;letter-spacing:0px;word-spacing:0px;text-anchor:middle;fill:#000000;fill-opacity:1;stroke:none;font-family:Sans"
         id="path3543" />
      <path
         inkscape:connector-curvature="0"
         d="m 289.15156,330.0979 1.94652,0 0,14.38689 -1.94652,0 0,-14.38689"
         style="font-size:19.73500633px;font-style:normal;font-weight:normal;text-align:center;line-height:125%;letter-spacing:0px;word-spacing:0px;text-anchor:middle;fill:#000000;fill-opacity:1;stroke:none;font-family:Sans"
         id="path3545" />
      <path
         inkscape:connector-curvature="0"
         d="m 292.97715,330.0979 12.17056,0 0,1.63816 -5.10721,0 0,12.74873 -1.95615,0 0,-12.74873 -5.1072,0 0,-1.63816"
         style="font-size:19.73500633px;font-style:normal;font-weight:normal;text-align:center;line-height:125%;letter-spacing:0px;word-spacing:0px;text-anchor:middle;fill:#000000;fill-opacity:1;stroke:none;font-family:Sans"
         id="path3547" />
      <path
         inkscape:connector-curvature="0"
         d="m 305.06099,330.0979 2.09107,0 3.9894,5.91664 3.96049,-5.91664 2.09106,0 -5.08793,7.53553 0,6.85136 -1.95616,0 0,-6.85136 -5.08793,-7.53553"
         style="font-size:19.73500633px;font-style:normal;font-weight:normal;text-align:center;line-height:125%;letter-spacing:0px;word-spacing:0px;text-anchor:middle;fill:#000000;fill-opacity:1;stroke:none;font-family:Sans"
         id="path3549" />
      <g
         transform="translate(-9.6649824,-0.59020455)"
         style="font-size:19.73500633px;font-style:normal;font-weight:normal;text-align:center;line-height:125%;letter-spacing:0px;word-spacing:0px;text-anchor:middle;fill:#000000;fill-opacity:1;stroke:none;font-family:Sans"
         id="text3003">
        <path
           inkscape:connector-curvature="0"
           d="m 153.79957,360.70149 0,2.05252 c -0.65527,-0.61028 -1.35551,-1.0664 -2.1007,-1.36834 -0.73878,-0.30193 -1.52574,-0.45289 -2.36087,-0.45291 -1.64459,2e-5 -2.90373,0.50431 -3.77741,1.51289 -0.87369,1.00218 -1.31053,2.45404 -1.31053,4.35558 0,1.89513 0.43684,3.34699 1.31053,4.35558 0.87368,1.00217 2.13282,1.50325 3.77741,1.50325 0.83513,0 1.62209,-0.15097 2.36087,-0.4529 0.74519,-0.30194 1.44543,-0.75805 2.1007,-1.36835 l 0,2.03325 c -0.68097,0.46254 -1.40369,0.80944 -2.16815,1.04071 -0.75806,0.23127 -1.56108,0.34691 -2.40906,0.34691 -2.17779,0 -3.89304,-0.6649 -5.14575,-1.9947 -1.25271,-1.33623 -1.87906,-3.15747 -1.87906,-5.46375 0,-2.31269 0.62635,-4.13393 1.87906,-5.46374 1.25271,-1.33621 2.96796,-2.00433 5.14575,-2.00434 0.86083,1e-5 1.67027,0.11565 2.42833,0.3469 0.76447,0.22486 1.48076,0.56534 2.14888,1.02144"
           id="path3493" />
        <path
           inkscape:connector-curvature="0"
           d="m 161.63383,361.51094 -2.64033,7.15972 5.29029,0 -2.64996,-7.15972 m -1.09853,-1.91761 2.2067,0 5.48301,14.38689 -2.02361,0 -1.31052,-3.69067 -6.48519,0 -1.31053,3.69067 -2.05251,0 5.49265,-14.38689"
           id="path3495" />
        <path
           inkscape:connector-curvature="0"
           d="m 172.2626,361.19294 0,5.40593 2.4476,0 c 0.9058,1e-5 1.60603,-0.23447 2.1007,-0.70345 0.49465,-0.46895 0.74198,-1.13706 0.74199,-2.00433 -1e-5,-0.86083 -0.24734,-1.52573 -0.74199,-1.9947 -0.49467,-0.46895 -1.1949,-0.70343 -2.1007,-0.70345 l -2.4476,0 m -1.94652,-1.59961 4.39412,0 c 1.61245,1e-5 2.82983,0.36619 3.65213,1.09853 0.82871,0.72594 1.24306,1.79235 1.24308,3.19923 -2e-5,1.41975 -0.41437,2.49258 -1.24308,3.2185 -0.8223,0.72594 -2.03968,1.0889 -3.65213,1.08889 l -2.4476,0 0,5.78174 -1.94652,0 0,-14.38689"
           id="path3497" />
        <path
           inkscape:connector-curvature="0"
           d="m 185.76296,361.51094 -2.64033,7.15972 5.29029,0 -2.64996,-7.15972 m -1.09853,-1.91761 2.2067,0 5.48301,14.38689 -2.02361,0 -1.31052,-3.69067 -6.48519,0 -1.31053,3.69067 -2.05252,0 5.49266,-14.38689"
           id="path3499" />
        <path
           inkscape:connector-curvature="0"
           d="m 204.87161,360.70149 0,2.05252 c -0.65528,-0.61028 -1.35551,-1.0664 -2.1007,-1.36834 -0.73879,-0.30193 -1.52575,-0.45289 -2.36088,-0.45291 -1.64459,2e-5 -2.90372,0.50431 -3.7774,1.51289 -0.87369,1.00218 -1.31053,2.45404 -1.31053,4.35558 0,1.89513 0.43684,3.34699 1.31053,4.35558 0.87368,1.00217 2.13281,1.50325 3.7774,1.50325 0.83513,0 1.62209,-0.15097 2.36088,-0.4529 0.74519,-0.30194 1.44542,-0.75805 2.1007,-1.36835 l 0,2.03325 c -0.68097,0.46254 -1.40369,0.80944 -2.16815,1.04071 -0.75806,0.23127 -1.56108,0.34691 -2.40906,0.34691 -2.1778,0 -3.89304,-0.6649 -5.14575,-1.9947 -1.25271,-1.33623 -1.87907,-3.15747 -1.87907,-5.46375 0,-2.31269 0.62636,-4.13393 1.87907,-5.46374 1.25271,-1.33621 2.96795,-2.00433 5.14575,-2.00434 0.86083,1e-5 1.67027,0.11565 2.42833,0.3469 0.76446,0.22486 1.48075,0.56534 2.14888,1.02144"
           id="path3501" />
        <path
           inkscape:connector-curvature="0"
           d="m 207.89739,359.59333 1.94652,0 0,14.38689 -1.94652,0 0,-14.38689"
           id="path3503" />
        <path
           inkscape:connector-curvature="0"
           d="m 211.72297,359.59333 12.17056,0 0,1.63816 -5.1072,0 0,12.74873 -1.95616,0 0,-12.74873 -5.1072,0 0,-1.63816"
           id="path3505" />
        <path
           inkscape:connector-curvature="0"
           d="m 223.80681,359.59333 2.09106,0 3.9894,5.91665 3.96049,-5.91665 2.09107,0 -5.08793,7.53553 0,6.85136 -1.95616,0 0,-6.85136 -5.08793,-7.53553"
           id="path3507" />
      </g>
      <g
         transform="translate(-0.7172273,-0.22832529)"
         style="font-size:19.73500633px;font-style:normal;font-weight:normal;text-align:center;line-height:125%;letter-spacing:0px;word-spacing:0px;text-anchor:middle;fill:#000000;fill-opacity:1;stroke:none;font-family:Sans"
         id="text2985-3">
        <path
           inkscape:connector-curvature="0"
           d="m -7.0094592,352.26407 c 0.417561,0.14133 0.8222824,0.44327 1.2141655,0.9058 0.3982873,0.46255 0.7965845,1.09854 1.1948929,1.90798 l 1.9754279,3.93158 -2.0910627,0 -1.8405206,-3.69068 c -0.4753962,-0.96362 -0.937935,-1.60282 -1.3876176,-1.91761 -0.4432741,-0.31478 -1.0503562,-0.47217 -1.8212482,-0.47217 l -2.119971,0 0,6.08046 -1.94652,0 0,-14.3869 4.394123,0 c 1.6445759,2e-5 2.8715884,0.34371 3.6810412,1.03108 0.8094328,0.6874 1.2141542,1.7249 1.2141654,3.1125 -1.12e-5,0.90582 -0.2120081,1.65744 -0.6359914,2.25488 -0.4175803,0.59746 -1.0278745,1.01181 -1.8308844,1.24308 m -4.8759338,-6.04192 0,5.1072 2.447603,0 c 0.9379195,1e-5 1.6445759,-0.2152 2.1199714,-0.64563 0.4818027,-0.43683 0.7227083,-1.07603 0.7227175,-1.91761 -9.2e-6,-0.84155 -0.2409148,-1.47433 -0.7227175,-1.89833 -0.4753955,-0.43041 -1.1820519,-0.64562 -2.1199714,-0.64563 l -2.447603,0"
           id="path3552-4" />
        <path
           inkscape:connector-curvature="0"
           d="m -0.10991621,344.62253 1.94651921,0 0,14.3869 -1.94651921,0 0,-14.3869"
           id="path3554-9" />
        <path
           inkscape:connector-curvature="0"
           d="m 14.334799,345.09471 0,1.89834 c -0.738788,-0.35332 -1.435808,-0.61671 -2.091063,-0.79017 -0.655272,-0.17344 -1.28805,-0.26017 -1.898338,-0.26018 -1.0599913,10e-6 -1.8790703,0.20558 -2.4572396,0.61672 -0.5717534,0.41115 -0.8576281,0.99575 -0.8576248,1.75379 -3.3e-6,0.636 0.1895091,1.11781 0.5685378,1.44544 0.3854451,0.32121 1.111374,0.58139 2.1777888,0.78053 l 1.1756208,0.24091 c 1.45185,0.27624 2.521471,0.76448 3.208865,1.4647 0.693798,0.69382 1.040702,1.62532 1.040714,2.79451 -1.2e-5,1.39405 -0.468975,2.45082 -1.40689,3.17032 -0.931512,0.71951 -2.299856,1.07926 -4.105036,1.07926 -0.6809657,0 -1.4068946,-0.0771 -2.1777887,-0.23127 -0.7644775,-0.15418 -1.55786,-0.38224 -2.3801497,-0.68417 l 0,-2.00434 c 0.790169,0.44327 1.564279,0.77733 2.3223323,1.00217 0.7580459,0.22485 1.5032472,0.33727 2.2356061,0.33727 1.111372,0 1.968996,-0.21842 2.572874,-0.65527 0.603862,-0.43684 0.905797,-1.05998 0.905806,-1.86942 -9e-6,-0.70666 -0.21843,-1.25913 -0.655264,-1.65744 -0.430426,-0.39829 -1.140295,-0.69701 -2.129607,-0.89617 l -1.1852569,-0.23127 c -1.4518631,-0.28908 -2.5022115,-0.74198 -3.1510483,-1.35871 -0.6488414,-0.61671 -0.9732609,-1.47433 -0.9732596,-2.57287 -1.3e-6,-1.27197 0.446477,-2.27414 1.3394364,-3.0065 0.8993783,-0.73234 2.136027,-1.09852 3.7099504,-1.09854 0.674529,2e-5 1.361913,0.0611 2.062154,0.18309 0.700223,0.12208 1.416516,0.30516 2.14888,0.54927"
           id="path3556-3" />
        <path
           inkscape:connector-curvature="0"
           d="m 18.237473,344.62253 1.946519,0 0,6.08047 6.456277,-6.08047 2.50542,0 -7.140449,6.70682 7.65117,7.68008 -2.563238,0 -6.90918,-6.92845 0,6.92845 -1.946519,0 0,-14.3869"
           id="path3558-6" />
      </g>
    </g>
    <g
       style="font-size:18.57625771px;font-style:normal;font-weight:normal;text-align:center;line-height:125%;letter-spacing:0px;word-spacing:0px;text-anchor:middle;fill:#79b84c;fill-opacity:1;stroke:none;font-family:Sans"
       id="text2999"
       transform="translate(8,0)">
      <path
         d="m 156.13704,333.10765 -3.67353,4.94339 3.86401,5.2155 -1.96829,0 -2.95696,-3.99099 -2.95696,3.99099 -1.96829,0 3.94564,-5.31528 -3.61003,-4.84361 1.96828,0 2.69392,3.6191 2.69392,-3.6191 1.96829,0"
         id="path3510"
         inkscape:connector-curvature="0" />
    </g>
    <g
       style="font-size:19.73500633px;font-style:normal;font-weight:normal;text-align:center;line-height:125%;letter-spacing:0px;word-spacing:0px;text-anchor:middle;fill:#79b84c;fill-opacity:1;stroke:none;font-family:Sans"
       id="text3366"
       transform="translate(12,0)">
      <path
         d="m 35.230729,349.04071 12.353651,0 0,1.61889 -12.353651,0 0,-1.61889 m 0,3.93159 12.353651,0 0,1.63816 -12.353651,0 0,-1.63816"
         id="path3490"
         inkscape:connector-curvature="0" />
    </g>
  </g>
</svg>
