<svg width="536" height="144" viewBox="0 0 536 144" fill="none" xmlns="http://www.w3.org/2000/svg">
<path d="M59.44 62.44C59.44 58.6 60.8533 55.6133 63.68 53.48C66.5067 51.2933 70.32 50.2 75.12 50.2C79.44 50.2 83.04 51.1867 85.92 53.16C88.8 55.08 90.7467 57.6933 91.76 61L82.64 63.8C81.7867 59.8533 79.28 57.88 75.12 57.88C73.2 57.88 71.7333 58.2267 70.72 58.92C69.7067 59.6133 69.2 60.5733 69.2 61.8C69.2 63.08 69.7067 64.0667 70.72 64.76C71.7867 65.4 73.4133 65.9333 75.6 66.36L77.68 66.76C81.1467 67.4533 83.9733 68.2267 86.16 69.08C88.3467 69.9333 90.08 71.16 91.36 72.76C92.6933 74.36 93.36 76.4667 93.36 79.08C93.36 83.1867 91.8667 86.3867 88.88 88.68C85.8933 90.9733 81.84 92.12 76.72 92.12C71.4933 92.12 67.2267 91 63.92 88.76C60.6667 86.52 58.6933 83.32 58 79.16L67.28 76.76C68.1867 81.88 71.3333 84.44 76.72 84.44C78.96 84.44 80.6667 84.0133 81.84 83.16C83.0133 82.3067 83.6 81.2133 83.6 79.88C83.6 78.6533 83.04 77.6933 81.92 77C80.8 76.2533 78.96 75.64 76.4 75.16L74.32 74.76C69.5733 73.8533 65.8933 72.4933 63.28 70.68C60.72 68.8133 59.44 66.0667 59.44 62.44Z" fill="white"/>
<path d="M99.8344 61.4C100.901 58.0933 102.874 55.4 105.754 53.32C108.688 51.24 112.581 50.2 117.434 50.2C122.714 50.2 126.848 51.5333 129.834 54.2C132.874 56.8133 134.394 60.5733 134.394 65.48V91H124.794V86.36H123.674C123.088 87.7467 121.941 89.0533 120.234 90.28C118.581 91.5067 116.154 92.12 112.954 92.12C108.741 92.12 105.248 91 102.474 88.76C99.7544 86.4667 98.3944 83.3467 98.3944 79.4C98.3944 75.4533 99.781 72.4133 102.554 70.28C105.381 68.0933 109.114 67 113.754 67H124.634V64.76C124.634 62.7867 124.021 61.2133 122.794 60.04C121.568 58.8133 119.728 58.2 117.274 58.2C114.874 58.2 113.008 58.7867 111.674 59.96C110.341 61.08 109.488 62.6 109.114 64.52L99.8344 61.4ZM108.474 79.16C108.474 80.6 109.034 81.7733 110.154 82.68C111.328 83.5333 112.954 83.96 115.034 83.96C117.861 83.96 120.154 83.16 121.914 81.56C123.728 79.9067 124.634 77.7733 124.634 75.16V74.52H114.474C112.608 74.52 111.141 74.9467 110.074 75.8C109.008 76.6533 108.474 77.7733 108.474 79.16Z" fill="white"/>
<path d="M148.991 43.96C148.991 41.24 149.791 39.08 151.391 37.48C152.991 35.8267 155.125 35 157.791 35H168.191V43.16H161.311C159.818 43.16 159.071 43.96 159.071 45.56V51.32H169.471V59.48H159.071V91H148.991V59.48H138.911V51.32H148.991V43.96Z" fill="white"/>
<path d="M172.602 71.16C172.602 67 173.429 63.3467 175.082 60.2C176.789 57 179.135 54.5467 182.122 52.84C185.162 51.08 188.629 50.2 192.522 50.2C196.362 50.2 199.722 51.0533 202.602 52.76C205.535 54.4667 207.802 56.8933 209.402 60.04C211.002 63.1333 211.802 66.68 211.802 70.68V74.12H182.922C183.029 76.84 184.015 79.08 185.882 80.84C187.802 82.6 190.175 83.48 193.002 83.48C195.562 83.48 197.535 82.92 198.922 81.8C200.362 80.68 201.482 79.2133 202.282 77.4L210.522 81.72C206.842 88.6533 200.895 92.12 192.682 92.12C188.789 92.12 185.322 91.2667 182.282 89.56C179.242 87.8 176.869 85.3467 175.162 82.2C173.455 79 172.602 75.32 172.602 71.16ZM201.562 66.6C201.295 64.3067 200.335 62.44 198.682 61C197.082 59.56 195.002 58.84 192.442 58.84C189.829 58.84 187.669 59.56 185.962 61C184.309 62.44 183.322 64.3067 183.002 66.6H201.562Z" fill="white"/>
<path d="M223.418 51.32V39H233.498V51.32H244.378V59.48H233.498V80.44C233.498 82.04 234.245 82.84 235.738 82.84H243.418V91H232.218C229.551 91 227.418 90.2 225.818 88.6C224.218 86.9467 223.418 84.76 223.418 82.04V59.48H213.498V51.32H223.418Z" fill="white"/>
<path d="M250.616 61.4C251.682 58.0933 253.656 55.4 256.536 53.32C259.469 51.24 263.362 50.2 268.216 50.2C273.496 50.2 277.629 51.5333 280.616 54.2C283.656 56.8133 285.176 60.5733 285.176 65.48V91H275.576V86.36H274.456C273.869 87.7467 272.722 89.0533 271.016 90.28C269.362 91.5067 266.936 92.12 263.736 92.12C259.522 92.12 256.029 91 253.256 88.76C250.536 86.4667 249.176 83.3467 249.176 79.4C249.176 75.4533 250.562 72.4133 253.336 70.28C256.162 68.0933 259.896 67 264.536 67H275.416V64.76C275.416 62.7867 274.802 61.2133 273.576 60.04C272.349 58.8133 270.509 58.2 268.056 58.2C265.656 58.2 263.789 58.7867 262.456 59.96C261.122 61.08 260.269 62.6 259.896 64.52L250.616 61.4ZM259.256 79.16C259.256 80.6 259.816 81.7733 260.936 82.68C262.109 83.5333 263.736 83.96 265.816 83.96C268.642 83.96 270.936 83.16 272.696 81.56C274.509 79.9067 275.416 77.7733 275.416 75.16V74.52H265.256C263.389 74.52 261.922 74.9467 260.856 75.8C259.789 76.6533 259.256 77.7733 259.256 79.16Z" fill="white"/>
<path d="M333.034 51.32V88.68C333.034 94.9733 331.14 99.7733 327.354 103.08C323.62 106.44 318.527 108.12 312.074 108.12C306.42 108.12 301.887 106.893 298.474 104.44C295.114 101.987 292.82 99 291.594 95.48L300.634 91.56C301.38 94.0133 302.66 95.96 304.474 97.4C306.34 98.8933 308.82 99.64 311.914 99.64C315.327 99.64 318.02 98.7067 319.994 96.84C321.967 94.9733 322.954 92.1733 322.954 88.44V84.6H322.154C319.167 88.76 314.847 90.84 309.194 90.84C306.047 90.84 303.087 89.9867 300.314 88.28C297.594 86.5733 295.407 84.2 293.754 81.16C292.1 78.0667 291.274 74.52 291.274 70.52C291.274 66.52 292.1 63 293.754 59.96C295.407 56.8667 297.594 54.4667 300.314 52.76C303.087 51.0533 306.047 50.2 309.194 50.2C314.9 50.2 319.274 52.36 322.314 56.68H323.114V51.32H333.034ZM312.234 82.2C315.434 82.2 318.047 81.1333 320.074 79C322.1 76.8667 323.114 74.04 323.114 70.52C323.114 67 322.1 64.1733 320.074 62.04C318.047 59.9067 315.434 58.84 312.234 58.84C309.034 58.84 306.42 59.9067 304.394 62.04C302.367 64.1733 301.354 67 301.354 70.52C301.354 74.04 302.367 76.8667 304.394 79C306.42 81.1333 309.034 82.2 312.234 82.2Z" fill="white"/>
<rect x="4" y="4" width="384" height="136" stroke="white" stroke-width="8"/>
<path fill-rule="evenodd" clip-rule="evenodd" d="M536 0H392V144H536V0ZM464 52C471.732 52 478 45.732 478 38C478 30.268 471.732 24 464 24C456.268 24 450 30.268 450 38C450 45.732 456.268 52 464 52ZM464 56C450.745 56 440 66.2335 440 78.8571V120H488V78.8571C488 66.2335 477.255 56 464 56ZM488 78.8571L488 84.3429H450.56L450.56 78.8571C450.56 71.7879 456.577 66.0571 464 66.0571C471.423 66.0571 477.44 71.7879 477.44 78.8571H488Z" fill="white"/>
</svg>
